<?xml version="1.0" encoding="utf-8"?>
<!-- Generator: Adobe Illustrator 26.1.0, SVG Export Plug-In . SVG Version: 6.00 Build 0)  -->
<svg version="1.1" id="tira" xmlns="http://www.w3.org/2000/svg" xmlns:xlink="http://www.w3.org/1999/xlink" x="0px" y="0px"
	 viewBox="0 0 169 103.4" style="enable-background:new 0 0 169 103.4;" xml:space="preserve">
<style type="text/css">
	.st0{fill:none;}
	.st1{fill:#000001;}
</style>
<rect class="st0" width="169" height="103.4"/>
<g>
	<path d="M104.3,61.8h-1v1.4h1c0.4,0,0.7-0.3,0.7-0.7C105,62.1,104.7,61.8,104.3,61.8z"/>
	<path d="M61.9,47.9c-2.3,0-3.9,1.7-3.9,4c0,2.3,1.6,4,3.9,4c2.3,0,3.9-1.7,3.9-4C65.9,49.6,64.2,47.9,61.9,47.9z"/>
	<path d="M19.9,22.9l-6,32.7l135.2,24.9l6-32.7L19.9,22.9z M103.4,46.1h2v9.7h6v1.8h-8V46.1z M33.1,57.2h-3.3V46.6h3.3V57.2z
		 M50.3,57.2h-3L43.2,52v5.1h-3.5V46.6h3l4.1,5.2v-5.2h3.5V57.2z M61.9,57.7c-3.3,0-5.8-2.5-5.8-5.8c0-3.3,2.5-5.8,5.8-5.8
		c3.3,0,5.8,2.5,5.8,5.8C67.8,55.2,65.3,57.7,61.9,57.7z M83.4,52.9c0,2.9-2.1,4.9-5,4.9c-3.1,0-5-1.9-5-4.9v-6.7h2v6.7
		c0,2,1.1,3.1,3,3.1c2.8,0,3.1-2.2,3.1-3.1v-6.7h2V52.9z M98.2,48.1h-3.8v9.5h-2v-9.5h-4v-2h9.8V48.1z M104.5,64.2h-1.1v1.2h-1.1
		v-4.6h2.3c0.9,0,1.7,0.5,1.7,1.7C106.2,63.5,105.4,64.2,104.5,64.2z M111.5,65.5c-1.1,0-1.8-1.3-2.4-1.7h-0.2v1.7h-1.1l0,0h0h0
		v-4.6h2.2c0.9,0,1.8,0.4,1.8,1.5c0,0.7-0.5,1.2-1.2,1.4c0.4,0.4,0.8,0.8,1.2,0.8c0.1,0,0.3,0,0.5-0.1l0.1,0.9
		C112.1,65.4,111.8,65.5,111.5,65.5z M117.2,61.8h-2.6v0.8h2.1v1h-2.1v0.9h2.6v1l-3.7,0v-4.6h3.7V61.8z M124.1,65.4H123v-2.8
		l-1.4,1.7h-0.2l-1.4-1.7v2.8h-1.1v-4.6h1l1.6,1.9l1.6-1.9h1V65.4z M125.5,48.1h-6.9v2.6h5.8v1.8h-5.8v3.3h6.9v1.8h-8.7V46.1h8.7
		V48.1z M127,65.4h-1.1v-4.6h1.1V65.4z M133,63.4c0,1.1-0.8,2-2.1,2c-1.4,0-2.1-0.9-2.1-2v-2.6h1.1v2.5c0,0.7,0.3,1.1,1,1.1
		c0.7,0,1-0.4,1-1.1v-2.5h1.1V63.4z M139.9,65.4h-1.1h0v-2.8l-1.4,1.7h-0.2l-1.4-1.7v2.8h-1.1v-4.6h1l1.6,1.9l1.6-1.9h1V65.4z
		 M139.9,48.1h-3.8v9.5h-2v-9.5h-4v-2h9.8V48.1z"/>
	<path d="M109.9,61.8l-1,0v1.1h1c0.4,0,0.6-0.2,0.6-0.6C110.5,62,110.3,61.8,109.9,61.8z"/>
</g>
<g>
	<path class="st1" d="M-96.7-83.5c-10,0-18.1,8-18.1,18c0,10,8,18.1,18,18.1c10,0,18.1-8,18.1-18C-78.6-75.4-86.7-83.5-96.7-83.5z
		 M-100.3-49.3c-6.8-1.5-12.1-7.3-12.9-14.3c0.3,0,0.6,0,1,0c6.7,0,12.1,5.5,12.1,12.2C-100.1-50.7-100.2-50-100.3-49.3z
		 M-96.7-48.8c-0.6,0-1.2,0-1.8-0.1c0.2-0.8,0.2-1.7,0.2-2.5c0-5.7-3.4-10.6-8.3-12.7c0.1-5.4,4.5-9.7,9.9-9.7
		c5.4,0,9.8,4.4,9.9,9.8c-4.8,2.2-8.2,7-8.2,12.6c0,0.8,0.1,1.7,0.2,2.5C-95.4-48.9-96.1-48.8-96.7-48.8z M-93-49.3
		c-0.1-0.7-0.2-1.4-0.2-2.2c0-6.7,5.5-12.1,12.2-12.1c0.3,0,0.5,0,0.8,0C-81-56.5-86.2-50.8-93-49.3z M-81-65.3
		c-1.4,0-2.7,0.2-4,0.6c-0.4-6.1-5.5-10.9-11.6-10.9c-6.2,0-11.2,4.8-11.7,10.8c-1.2-0.4-2.5-0.6-3.9-0.6c-0.4,0-0.7,0-1.1,0
		c0,0,0-0.1,0-0.1c0-9.2,7.5-16.6,16.6-16.6c9.2,0,16.6,7.5,16.6,16.6v0.1C-80.4-65.3-80.7-65.3-81-65.3z"/>
	<g>
		<path class="st1" d="M-36.1-29.6c0-1.7,1.4-3.1,3.1-3.1c1.7,0,3.1,1.4,3.1,3.1c0,1.7-1.4,3.1-3.1,3.1
			C-34.7-26.4-36.1-27.9-36.1-29.6 M-30.6-29.6c0-1.5-1-2.5-2.4-2.5c-1.3,0-2.4,1.1-2.4,2.5c0,1.5,1,2.5,2.4,2.5
			C-31.6-27-30.6-28.1-30.6-29.6 M-34.1-31.4l1.3,0c0.8,0,1.3,0.3,1.3,1c0,0.6-0.3,0.9-0.9,1l0.9,1.6l-0.7,0l-0.9-1.5l-0.4,0l0,1.5
			l-0.7,0L-34.1-31.4z M-33.5-29.8l0.6,0c0.4,0,0.7,0,0.7-0.5c0-0.4-0.4-0.5-0.7-0.5l-0.6,0L-33.5-29.8z"/>
		<polygon class="st1" points="-154.1,-30.2 -151.1,-30.2 -151.1,-17.5 -145.3,-17.4 -145.3,-15.1 -154.2,-15.1 		"/>
		<path class="st1" d="M-143.9-25.6c1.1-0.5,2.6-0.8,3.9-0.8c3.4,0,4.8,1.4,4.8,4.7l0,1.4c0,1.1,0,2,0,2.8c0,0.8,0.1,1.6,0.1,2.5
			l-2.6,0c-0.1-0.6-0.1-1.3-0.1-1.7h0c-0.7,1.2-2.1,1.9-3.4,1.9c-2,0-3.9-1.2-3.9-3.3c0-1.7,0.8-2.6,1.9-3.2
			c1.1-0.5,2.5-0.6,3.7-0.6l1.6,0c0-1.8-0.8-2.4-2.5-2.4c-1.2,0-2.5,0.5-3.4,1.2L-143.9-25.6z M-140.6-16.9c0.9,0,1.6-0.4,2-1
			c0.5-0.6,0.6-1.4,0.6-2.3l-1.3,0c-1.3,0-3.2,0.2-3.2,1.9C-142.4-17.3-141.6-16.9-140.6-16.9"/>
		<path class="st1" d="M-133.3-26.2l2.7,0l0,1.6h0c0.9-1.4,2.2-1.8,3.3-1.8c1.6,0,2.7,0.6,3.3,2c0.7-1.3,2.1-2,3.5-2
			c2.7,0,3.5,1.9,3.5,4.4l0,7l-2.9,0l0-6.6c0-1,0-2.5-1.7-2.5c-1.9,0-2.2,2.3-2.2,3.7l0,5.4l-2.9,0l0-6.6c0-1,0-2.5-1.7-2.5
			c-1.9,0-2.2,2.3-2.2,3.7l0,5.4l-2.9,0L-133.3-26.2z"/>
		<path class="st1" d="M-114.9-31.2l2.9,0l0,6.5h0c0.8-1.1,1.8-1.7,3.3-1.7c3.4,0,4.7,2.7,4.6,5.8c0,3-1.3,5.8-4.7,5.8
			c-1.2,0-2.6-0.4-3.4-1.6h0l0,1.4l-2.8,0L-114.9-31.2z M-109.4-17c1.9,0,2.4-2.1,2.5-3.6c0-1.5-0.5-3.5-2.4-3.6
			c-1.9,0-2.6,2-2.6,3.5C-112-19-111.4-17-109.4-17"/>
		<path class="st1" d="M-102.4-26.1l2.6,0l0,2.5l0,0c0.1-1,1.3-2.8,3-2.8c0.3,0,0.6,0,0.9,0.1l0,2.9c-0.3-0.1-0.8-0.2-1.3-0.2
			c-2.4,0-2.4,2.9-2.4,4.5l0,4.1l-2.9,0L-102.4-26.1z"/>
		<path class="st1" d="M-94.4-25.5c1.1-0.5,2.6-0.8,3.9-0.8c3.4,0,4.8,1.4,4.8,4.7l0,1.4c0,1.1,0,2,0,2.8c0,0.8,0.1,1.6,0.1,2.5
			l-2.6,0c-0.1-0.6-0.1-1.3-0.1-1.7l0,0c-0.7,1.2-2.1,1.9-3.4,1.9c-2,0-3.9-1.2-3.9-3.3c0-1.7,0.8-2.6,1.9-3.2
			c1.1-0.5,2.5-0.6,3.7-0.6l1.6,0c0-1.8-0.8-2.4-2.5-2.4c-1.2,0-2.5,0.5-3.4,1.2L-94.4-25.5z M-91.1-16.8c0.9,0,1.6-0.4,2-1
			c0.5-0.6,0.6-1.4,0.6-2.3l-1.3,0c-1.3,0-3.2,0.2-3.2,1.9C-92.9-17.2-92.1-16.8-91.1-16.8"/>
		<path class="st1" d="M-83.8-26.1l2.7,0l0,1.6h0c0.9-1.4,2.2-1.8,3.3-1.8c1.6,0,2.7,0.6,3.3,2c0.7-1.3,2.1-2,3.5-2
			c2.7,0,3.5,1.9,3.5,4.4l0,7l-2.9,0l0-6.6c0-1,0-2.5-1.7-2.5c-1.9,0-2.2,2.3-2.2,3.7l0,5.4l-2.9,0l0-6.6c0-1,0-2.5-1.7-2.5
			c-1.9,0-2.2,2.3-2.2,3.7l0,5.4l-2.9,0L-83.8-26.1z"/>
		<path class="st1" d="M-64.9-25.4c1.1-0.5,2.6-0.8,3.9-0.8c3.4,0,4.8,1.4,4.8,4.7l0,1.4c0,1.1,0,2,0,2.8c0,0.8,0.1,1.6,0.1,2.5
			l-2.6,0c-0.1-0.6-0.1-1.3-0.1-1.7l0,0c-0.7,1.2-2.1,1.9-3.4,1.9c-2,0-3.9-1.2-3.9-3.3c0-1.7,0.8-2.6,1.9-3.2
			c1.1-0.5,2.5-0.6,3.7-0.6l1.6,0c0-1.8-0.8-2.4-2.5-2.4c-1.2,0-2.5,0.5-3.4,1.2L-64.9-25.4z M-61.5-16.7c0.9,0,1.6-0.4,2-1
			c0.5-0.6,0.6-1.4,0.6-2.3l-1.3,0c-1.3,0-3.2,0.2-3.2,1.9C-63.3-17.2-62.5-16.7-61.5-16.7"/>
		<path class="st1" d="M-54.2-26l2.7,0l0,1.5h0c0.9-1.3,2.1-1.8,3.7-1.8c2.6,0,3.8,1.9,3.8,4.4l0,7l-2.9,0l0-5.9
			c0-1.4,0-3.2-1.9-3.2c-2.1,0-2.6,2.3-2.6,3.7l0,5.4l-2.9,0L-54.2-26z"/>
		<path class="st1" d="M-41.7-30.8l2.9,0l0,2.8l-2.9,0L-41.7-30.8z M-41.7-26l2.9,0l0,11.1l-2.9,0L-41.7-26z"/>
	</g>
	<g>
		<path class="st1" d="M-124.2-48.3l3.5,0c2.7,0,4.5,1.4,4.5,4.1c0,2.7-2,4.1-4.6,4.1l-2,0l0,6.2l-1.4,0L-124.2-48.3z M-122.8-41.3
			l1,0c2.2,0,4.2-0.2,4.2-2.8c0-1.8-1-2.9-2.8-2.9l-2.3,0L-122.8-41.3z"/>
		<path class="st1" d="M-108.8-35.5L-108.8-35.5c-0.6,1.3-2.1,1.9-3.4,1.9c-3,0-3.5-2-3.5-3c0-3.5,3.8-3.7,6.5-3.7l0.2,0l0-0.5
			c0-1.8-0.6-2.7-2.4-2.7c-1.1,0-2.1,0.2-3.1,0.9l0-1.3c0.8-0.4,2.2-0.7,3.1-0.7c2.6,0,3.7,1.2,3.7,3.9l0,4.6c0,0.8,0,1.5,0.1,2.2
			l-1.3,0L-108.8-35.5z M-108.9-39.1l-0.4,0c-2.3,0-4.9,0.2-4.9,2.5c0,1.4,1,1.9,2.2,1.9c3.1,0,3.1-2.7,3.1-3.8L-108.9-39.1z"/>
		<path class="st1" d="M-105.3-42c0-1.2,0-1.6-0.1-2.4l1.3,0l0,2l0,0c0.5-1.2,1.4-2.3,2.7-2.3c0.3,0,0.7,0.1,0.9,0.1l0,1.4
			c-0.3-0.1-0.6-0.1-0.9-0.1c-2.1,0-2.6,2.3-2.6,4.2l0,5.2l-1.3,0L-105.3-42z"/>
		<path class="st1" d="M-90.9-29.4l-1.3,0l0-6.1h0c-0.6,1.4-1.6,2-3.3,2c-2.9,0-4.3-2.4-4.3-5.5c0-3.2,1.2-5.5,4.3-5.5
			c2.2,0,3,1.6,3.3,2l0,0l0-1.7l1.3,0L-90.9-29.4z M-95.3-34.6c2.3,0,3.1-2.5,3.1-4.4c0-1.9-0.8-4.4-3.1-4.4c-2.5,0-3.1,2.3-3.1,4.4
			C-98.4-37-97.8-34.7-95.3-34.6"/>
		<path class="st1" d="M-80.3-36.2c0,0.8,0,1.6,0.1,2.5l-1.3,0l0-1.9h0c-0.4,0.9-1.2,2.1-3.4,2.1c-2.6,0-3.6-1.7-3.6-4.1l0-6.7
			l1.3,0l0,6.4c0,2,0.7,3.3,2.5,3.3c2.4,0,3.1-2.1,3.1-3.8l0-5.8l1.3,0L-80.3-36.2z"/>
		<path class="st1" d="M-70.7-34.1c-0.9,0.4-2.1,0.6-3.1,0.6c-3.5,0-4.8-2.4-4.8-5.5c0-3.2,1.8-5.5,4.5-5.5c3,0,4.2,2.4,4.2,5.2
			l0,0.7l-7.2,0c0,2.2,1.2,4,3.5,4c1,0,2.3-0.4,3-0.8L-70.7-34.1z M-71.4-39.7c0-1.8-0.7-3.7-2.7-3.7c-1.9,0-3.1,1.9-3.1,3.7
			L-71.4-39.7z"/>
	</g>
	<g>
		<path class="st1" d="M-137.4-2.6c-0.3,0.1-0.9,0.3-1.6,0.3c-2.3,0-3.4-1.7-3.4-3.8c0-2.2,1.2-3.8,3.4-3.8c0.8,0,1.4,0.2,1.7,0.3
			l-0.1,1.2c-0.3-0.1-0.7-0.4-1.4-0.4c-1.1,0-2.1,0.8-2.1,2.7c0,1.9,1,2.7,2.1,2.7c0.7,0,1.1-0.2,1.4-0.4L-137.4-2.6z"/>
		<polygon class="st1" points="-136.2,-9.9 -132.3,-9.9 -132.3,-8.8 -134.9,-8.8 -134.9,-6.8 -132.5,-6.8 -132.5,-5.7 -134.9,-5.7 
			-134.9,-3.5 -132.2,-3.5 -132.2,-2.4 -136.3,-2.5 		"/>
		<polygon class="st1" points="-130.9,-9.9 -129.3,-9.9 -126.8,-4 -126.8,-4 -126.8,-9.9 -125.6,-9.9 -125.6,-2.4 -127.2,-2.4 
			-129.7,-8.2 -129.7,-8.2 -129.7,-2.4 -130.9,-2.4 		"/>
		<polygon class="st1" points="-122.9,-8.8 -124.5,-8.8 -124.5,-9.9 -119.9,-9.9 -119.9,-8.8 -121.5,-8.8 -121.5,-2.4 -122.9,-2.4 
					"/>
		<path class="st1" d="M-118.9-9.9l2.3,0c1.3,0,2.2,0.6,2.2,2c0,1-0.6,1.6-1.4,1.7v0c0.3,0,0.6,0.2,0.8,0.9l1,2.8l-1.5,0l-0.7-2.4
			c-0.2-0.6-0.5-0.8-1-0.8l-0.3,0l0,3.2l-1.4,0L-118.9-9.9z M-117-6.6c0.7,0,1.2-0.4,1.2-1.1c0-0.9-0.4-1.1-1.2-1.1l-0.6,0l0,2.2
			L-117-6.6z"/>
		<path class="st1" d="M-110.2-10c1.5,0,3,1.2,3,3.8c0,2.7-1.4,3.8-3,3.8c-1.5,0-3-1.2-3-3.8C-113.2-8.8-111.8-10-110.2-10
			 M-110.3-3.3c0.9,0,1.6-0.7,1.6-2.8c0-2-0.7-2.8-1.6-2.8c-0.9,0-1.6,0.7-1.6,2.8C-111.8-4.1-111.1-3.3-110.3-3.3"/>
		<path class="st1" d="M-98.5-2.5c-0.3,0.1-0.9,0.3-1.6,0.3c-2.3,0-3.4-1.7-3.4-3.8c0-2.2,1.2-3.8,3.4-3.8c0.8,0,1.4,0.2,1.7,0.3
			l-0.1,1.2c-0.3-0.1-0.7-0.4-1.4-0.4c-1.1,0-2.1,0.8-2.1,2.7c0,1.9,1,2.7,2.1,2.7c0.7,0,1.1-0.2,1.4-0.4L-98.5-2.5z"/>
		<path class="st1" d="M-94.6-9.9c1.5,0,3,1.2,3,3.8c0,2.7-1.4,3.8-3,3.8c-1.5,0-3-1.2-3-3.8C-97.6-8.8-96.2-9.9-94.6-9.9
			 M-94.6-3.3c0.9,0,1.6-0.7,1.6-2.8c0-2-0.7-2.8-1.6-2.8c-0.9,0-1.6,0.7-1.6,2.8C-96.2-4-95.5-3.3-94.6-3.3"/>
		<polygon class="st1" points="-84.5,-8.6 -84.5,-8.6 -86.4,-2.3 -87.3,-2.3 -89.1,-8.6 -89.1,-8.6 -89.1,-2.4 -90.4,-2.4 
			-90.4,-9.8 -88.3,-9.8 -86.8,-4.2 -86.8,-4.2 -85.2,-9.8 -83.2,-9.8 -83.2,-2.3 -84.5,-2.3 		"/>
		<polygon class="st1" points="-81.7,-9.8 -77.7,-9.8 -77.7,-8.7 -80.3,-8.7 -80.3,-6.7 -77.9,-6.7 -77.9,-5.6 -80.3,-5.6 
			-80.3,-3.4 -77.7,-3.4 -77.7,-2.3 -81.7,-2.3 		"/>
		<path class="st1" d="M-76.4-9.8l2.3,0c1.3,0,2.2,0.6,2.2,2c0,1-0.6,1.6-1.4,1.7v0c0.3,0,0.6,0.2,0.8,0.9l1,2.8l-1.5,0l-0.7-2.4
			c-0.2-0.6-0.5-0.8-1-0.8l-0.3,0l0,3.2l-1.4,0L-76.4-9.8z M-74.5-6.5c0.7,0,1.2-0.4,1.2-1.1c0-0.9-0.4-1.1-1.2-1.1l-0.6,0l0,2.2
			L-74.5-6.5z"/>
		<path class="st1" d="M-65.7-2.5c-0.3,0.1-0.9,0.3-1.6,0.3c-2.3,0-3.4-1.7-3.4-3.8c0-2.2,1.2-3.8,3.4-3.8c0.8,0,1.4,0.2,1.7,0.3
			l-0.1,1.2c-0.3-0.1-0.7-0.4-1.4-0.4c-1.1,0-2.1,0.8-2.1,2.7c0,1.9,1,2.7,2.1,2.7c0.7,0,1.1-0.2,1.4-0.4L-65.7-2.5z"/>
		
			<rect x="-67.5" y="-6.7" transform="matrix(2.032063e-03 -1 1 2.032063e-03 -57.6138 -69.7733)" class="st1" width="7.4" height="1.4"/>
		<path class="st1" d="M-57.8-4.1l-2.6,0l-0.5,1.8l-1.4,0l2.5-7.4l1.5,0l2.4,7.5l-1.4,0L-57.8-4.1z M-58-5.1L-59-8.6l0,0l-1,3.5
			L-58-5.1z"/>
		<polygon class="st1" points="-55,-9.7 -53.7,-9.7 -53.7,-3.4 -51.2,-3.4 -51.2,-2.3 -55,-2.3 		"/>
	</g>
</g>
</svg>
