<?xml version="1.0" encoding="utf-8"?>
<!-- Generator: Adobe Illustrator 26.1.0, SVG Export Plug-In . SVG Version: 6.00 Build 0)  -->
<svg version="1.1" id="tira" xmlns="http://www.w3.org/2000/svg" xmlns:xlink="http://www.w3.org/1999/xlink" x="0px" y="0px"
	 viewBox="0 0 169 103.4" style="enable-background:new 0 0 169 103.4;" xml:space="preserve">
<style type="text/css">
	.st0{fill:none;}
	.st1{fill:#000001;}
	.st2{fill-rule:evenodd;clip-rule:evenodd;fill:#000001;}
</style>
<rect class="st0" width="169" height="103.4"/>
<g>
	<path d="M118.1-37.3h-1v1.4h1c0.4,0,0.7-0.3,0.7-0.7C118.8-37,118.5-37.3,118.1-37.3z"/>
	<path d="M75.7-51.2c-2.3,0-3.9,1.7-3.9,4c0,2.3,1.6,4,3.9,4c2.3,0,3.9-1.7,3.9-4C79.6-49.5,77.9-51.2,75.7-51.2z"/>
	<path d="M33.6-76.2l-6,32.7l135.2,24.9l6-32.7L33.6-76.2z M117.1-53h2v9.7h6v1.8h-8V-53z M46.8-41.9h-3.3v-10.6h3.3V-41.9z
		 M64-41.9h-3L56.9-47v5.1h-3.5v-10.6h3l4.1,5.2v-5.2H64V-41.9z M75.7-41.4c-3.3,0-5.8-2.5-5.8-5.8c0-3.3,2.5-5.8,5.8-5.8
		c3.3,0,5.8,2.5,5.8,5.8C81.5-43.9,79-41.4,75.7-41.4z M97.2-46.2c0,2.9-2.1,4.9-5,4.9c-3.1,0-5-1.9-5-4.9V-53h2v6.7
		c0,2,1.1,3.1,3,3.1c2.8,0,3.1-2.2,3.1-3.1V-53h2V-46.2z M111.9-51h-3.8v9.5h-2V-51h-4v-2h9.8V-51z M118.2-34.9h-1.1v1.2H116v-4.6
		h2.3c0.9,0,1.7,0.5,1.7,1.7C119.9-35.5,119.2-34.9,118.2-34.9z M125.3-33.6c-1.1,0-1.8-1.3-2.4-1.7h-0.2v1.7h-1.1l0,0h0h0v-4.6h2.2
		c0.9,0,1.8,0.4,1.8,1.5c0,0.7-0.5,1.2-1.2,1.4c0.4,0.4,0.8,0.8,1.2,0.8c0.1,0,0.3,0,0.5-0.1l0.1,0.9
		C125.8-33.7,125.6-33.6,125.3-33.6z M131-37.3h-2.6v0.8h2.1v1h-2.1v0.9h2.6v1l-3.7,0v-4.6h3.7V-37.3z M137.8-33.7h-1.1v-2.8
		l-1.4,1.7h-0.2l-1.4-1.7v2.8h-1.1v-4.6h1l1.6,1.9l1.6-1.9h1V-33.7z M139.2-51h-6.9v2.6h5.8v1.8h-5.8v3.3h6.9v1.8h-8.7V-53h8.7V-51z
		 M140.7-33.7h-1.1v-4.6h1.1V-33.7z M146.8-35.7c0,1.1-0.8,2-2.1,2c-1.4,0-2.1-0.9-2.1-2v-2.6h1.1v2.5c0,0.7,0.3,1.1,1,1.1
		c0.7,0,1-0.4,1-1.1v-2.5h1.1V-35.7z M153.6-33.7h-1.1h0v-2.8l-1.4,1.7h-0.2l-1.4-1.7v2.8h-1.1v-4.6h1l1.6,1.9l1.6-1.9h1V-33.7z
		 M153.6-51h-3.8v9.5h-2V-51h-4v-2h9.8V-51z"/>
	<path d="M123.6-37.3l-1,0v1.1h1c0.4,0,0.6-0.2,0.6-0.6C124.2-37.1,124-37.3,123.6-37.3z"/>
</g>
<g>
	<path class="st1" d="M-96.7-83.5c-10,0-18.1,8-18.1,18c0,10,8,18.1,18,18.1c10,0,18.1-8,18.1-18C-78.6-75.4-86.7-83.5-96.7-83.5z
		 M-100.3-49.3c-6.8-1.5-12.1-7.3-12.9-14.3c0.3,0,0.6,0,1,0c6.7,0,12.1,5.5,12.1,12.2C-100.1-50.7-100.2-50-100.3-49.3z
		 M-96.7-48.8c-0.6,0-1.2,0-1.8-0.1c0.2-0.8,0.2-1.7,0.2-2.5c0-5.7-3.4-10.6-8.3-12.7c0.1-5.4,4.5-9.7,9.9-9.7
		c5.4,0,9.8,4.4,9.9,9.8c-4.8,2.2-8.2,7-8.2,12.6c0,0.8,0.1,1.7,0.2,2.5C-95.4-48.9-96.1-48.8-96.7-48.8z M-93-49.3
		c-0.1-0.7-0.2-1.4-0.2-2.2c0-6.7,5.5-12.1,12.2-12.1c0.3,0,0.5,0,0.8,0C-81-56.5-86.2-50.8-93-49.3z M-81-65.3
		c-1.4,0-2.7,0.2-4,0.6c-0.4-6.1-5.5-10.9-11.6-10.9c-6.2,0-11.2,4.8-11.7,10.8c-1.2-0.4-2.5-0.6-3.9-0.6c-0.4,0-0.7,0-1.1,0
		c0,0,0-0.1,0-0.1c0-9.2,7.5-16.6,16.6-16.6c9.2,0,16.6,7.5,16.6,16.6v0.1C-80.4-65.3-80.7-65.3-81-65.3z"/>
	<g>
		<path class="st1" d="M-36.1-29.6c0-1.7,1.4-3.1,3.1-3.1c1.7,0,3.1,1.4,3.1,3.1c0,1.7-1.4,3.1-3.1,3.1
			C-34.7-26.4-36.1-27.9-36.1-29.6 M-30.6-29.6c0-1.5-1-2.5-2.4-2.5c-1.3,0-2.4,1.1-2.4,2.5c0,1.5,1,2.5,2.4,2.5
			C-31.6-27-30.6-28.1-30.6-29.6 M-34.1-31.4l1.3,0c0.8,0,1.3,0.3,1.3,1c0,0.6-0.3,0.9-0.9,1l0.9,1.6l-0.7,0l-0.9-1.5l-0.4,0l0,1.5
			l-0.7,0L-34.1-31.4z M-33.5-29.8l0.6,0c0.4,0,0.7,0,0.7-0.5c0-0.4-0.4-0.5-0.7-0.5l-0.6,0L-33.5-29.8z"/>
		<polygon class="st1" points="-154.1,-30.2 -151.1,-30.2 -151.1,-17.5 -145.3,-17.4 -145.3,-15.1 -154.2,-15.1 		"/>
		<path class="st1" d="M-143.9-25.6c1.1-0.5,2.6-0.8,3.9-0.8c3.4,0,4.8,1.4,4.8,4.7l0,1.4c0,1.1,0,2,0,2.8c0,0.8,0.1,1.6,0.1,2.5
			l-2.6,0c-0.1-0.6-0.1-1.3-0.1-1.7h0c-0.7,1.2-2.1,1.9-3.4,1.9c-2,0-3.9-1.2-3.9-3.3c0-1.7,0.8-2.6,1.9-3.2
			c1.1-0.5,2.5-0.6,3.7-0.6l1.6,0c0-1.8-0.8-2.4-2.5-2.4c-1.2,0-2.5,0.5-3.4,1.2L-143.9-25.6z M-140.6-16.9c0.9,0,1.6-0.4,2-1
			c0.5-0.6,0.6-1.4,0.6-2.3l-1.3,0c-1.3,0-3.2,0.2-3.2,1.9C-142.4-17.3-141.6-16.9-140.6-16.9"/>
		<path class="st1" d="M-133.3-26.2l2.7,0l0,1.6h0c0.9-1.4,2.2-1.8,3.3-1.8c1.6,0,2.7,0.6,3.3,2c0.7-1.3,2.1-2,3.5-2
			c2.7,0,3.5,1.9,3.5,4.4l0,7l-2.9,0l0-6.6c0-1,0-2.5-1.7-2.5c-1.9,0-2.2,2.3-2.2,3.7l0,5.4l-2.9,0l0-6.6c0-1,0-2.5-1.7-2.5
			c-1.9,0-2.2,2.3-2.2,3.7l0,5.4l-2.9,0L-133.3-26.2z"/>
		<path class="st1" d="M-114.9-31.2l2.9,0l0,6.5h0c0.8-1.1,1.8-1.7,3.3-1.7c3.4,0,4.7,2.7,4.6,5.8c0,3-1.3,5.8-4.7,5.8
			c-1.2,0-2.6-0.4-3.4-1.6h0l0,1.4l-2.8,0L-114.9-31.2z M-109.4-17c1.9,0,2.4-2.1,2.5-3.6c0-1.5-0.5-3.5-2.4-3.6
			c-1.9,0-2.6,2-2.6,3.5C-112-19-111.4-17-109.4-17"/>
		<path class="st1" d="M-102.4-26.1l2.6,0l0,2.5l0,0c0.1-1,1.3-2.8,3-2.8c0.3,0,0.6,0,0.9,0.1l0,2.9c-0.3-0.1-0.8-0.2-1.3-0.2
			c-2.4,0-2.4,2.9-2.4,4.5l0,4.1l-2.9,0L-102.4-26.1z"/>
		<path class="st1" d="M-94.4-25.5c1.1-0.5,2.6-0.8,3.9-0.8c3.4,0,4.8,1.4,4.8,4.7l0,1.4c0,1.1,0,2,0,2.8c0,0.8,0.1,1.6,0.1,2.5
			l-2.6,0c-0.1-0.6-0.1-1.3-0.1-1.7l0,0c-0.7,1.2-2.1,1.9-3.4,1.9c-2,0-3.9-1.2-3.9-3.3c0-1.7,0.8-2.6,1.9-3.2
			c1.1-0.5,2.5-0.6,3.7-0.6l1.6,0c0-1.8-0.8-2.4-2.5-2.4c-1.2,0-2.5,0.5-3.4,1.2L-94.4-25.5z M-91.1-16.8c0.9,0,1.6-0.4,2-1
			c0.5-0.6,0.6-1.4,0.6-2.3l-1.3,0c-1.3,0-3.2,0.2-3.2,1.9C-92.9-17.2-92.1-16.8-91.1-16.8"/>
		<path class="st1" d="M-83.8-26.1l2.7,0l0,1.6h0c0.9-1.4,2.2-1.8,3.3-1.8c1.6,0,2.7,0.6,3.3,2c0.7-1.3,2.1-2,3.5-2
			c2.7,0,3.5,1.9,3.5,4.4l0,7l-2.9,0l0-6.6c0-1,0-2.5-1.7-2.5c-1.9,0-2.2,2.3-2.2,3.7l0,5.4l-2.9,0l0-6.6c0-1,0-2.5-1.7-2.5
			c-1.9,0-2.2,2.3-2.2,3.7l0,5.4l-2.9,0L-83.8-26.1z"/>
		<path class="st1" d="M-64.9-25.4c1.1-0.5,2.6-0.8,3.9-0.8c3.4,0,4.8,1.4,4.8,4.7l0,1.4c0,1.1,0,2,0,2.8c0,0.8,0.1,1.6,0.1,2.5
			l-2.6,0c-0.1-0.6-0.1-1.3-0.1-1.7l0,0c-0.7,1.2-2.1,1.9-3.4,1.9c-2,0-3.9-1.2-3.9-3.3c0-1.7,0.8-2.6,1.9-3.2
			c1.1-0.5,2.5-0.6,3.7-0.6l1.6,0c0-1.8-0.8-2.4-2.5-2.4c-1.2,0-2.5,0.5-3.4,1.2L-64.9-25.4z M-61.5-16.7c0.9,0,1.6-0.4,2-1
			c0.5-0.6,0.6-1.4,0.6-2.3l-1.3,0c-1.3,0-3.2,0.2-3.2,1.9C-63.3-17.2-62.5-16.7-61.5-16.7"/>
		<path class="st1" d="M-54.2-26l2.7,0l0,1.5h0c0.9-1.3,2.1-1.8,3.7-1.8c2.6,0,3.8,1.9,3.8,4.4l0,7l-2.9,0l0-5.9
			c0-1.4,0-3.2-1.9-3.2c-2.1,0-2.6,2.3-2.6,3.7l0,5.4l-2.9,0L-54.2-26z"/>
		<path class="st1" d="M-41.7-30.8l2.9,0l0,2.8l-2.9,0L-41.7-30.8z M-41.7-26l2.9,0l0,11.1l-2.9,0L-41.7-26z"/>
	</g>
	<g>
		<path class="st1" d="M-124.2-48.3l3.5,0c2.7,0,4.5,1.4,4.5,4.1c0,2.7-2,4.1-4.6,4.1l-2,0l0,6.2l-1.4,0L-124.2-48.3z M-122.8-41.3
			l1,0c2.2,0,4.2-0.2,4.2-2.8c0-1.8-1-2.9-2.8-2.9l-2.3,0L-122.8-41.3z"/>
		<path class="st1" d="M-108.8-35.5L-108.8-35.5c-0.6,1.3-2.1,1.9-3.4,1.9c-3,0-3.5-2-3.5-3c0-3.5,3.8-3.7,6.5-3.7l0.2,0l0-0.5
			c0-1.8-0.6-2.7-2.4-2.7c-1.1,0-2.1,0.2-3.1,0.9l0-1.3c0.8-0.4,2.2-0.7,3.1-0.7c2.6,0,3.7,1.2,3.7,3.9l0,4.6c0,0.8,0,1.5,0.1,2.2
			l-1.3,0L-108.8-35.5z M-108.9-39.1l-0.4,0c-2.3,0-4.9,0.2-4.9,2.5c0,1.4,1,1.9,2.2,1.9c3.1,0,3.1-2.7,3.1-3.8L-108.9-39.1z"/>
		<path class="st1" d="M-105.3-42c0-1.2,0-1.6-0.1-2.4l1.3,0l0,2l0,0c0.5-1.2,1.4-2.3,2.7-2.3c0.3,0,0.7,0.1,0.9,0.1l0,1.4
			c-0.3-0.1-0.6-0.1-0.9-0.1c-2.1,0-2.6,2.3-2.6,4.2l0,5.2l-1.3,0L-105.3-42z"/>
		<path class="st1" d="M-90.9-29.4l-1.3,0l0-6.1h0c-0.6,1.4-1.6,2-3.3,2c-2.9,0-4.3-2.4-4.3-5.5c0-3.2,1.2-5.5,4.3-5.5
			c2.2,0,3,1.6,3.3,2l0,0l0-1.7l1.3,0L-90.9-29.4z M-95.3-34.6c2.3,0,3.1-2.5,3.1-4.4c0-1.9-0.8-4.4-3.1-4.4c-2.5,0-3.1,2.3-3.1,4.4
			C-98.4-37-97.8-34.7-95.3-34.6"/>
		<path class="st1" d="M-80.3-36.2c0,0.8,0,1.6,0.1,2.5l-1.3,0l0-1.9h0c-0.4,0.9-1.2,2.1-3.4,2.1c-2.6,0-3.6-1.7-3.6-4.1l0-6.7
			l1.3,0l0,6.4c0,2,0.7,3.3,2.5,3.3c2.4,0,3.1-2.1,3.1-3.8l0-5.8l1.3,0L-80.3-36.2z"/>
		<path class="st1" d="M-70.7-34.1c-0.9,0.4-2.1,0.6-3.1,0.6c-3.5,0-4.8-2.4-4.8-5.5c0-3.2,1.8-5.5,4.5-5.5c3,0,4.2,2.4,4.2,5.2
			l0,0.7l-7.2,0c0,2.2,1.2,4,3.5,4c1,0,2.3-0.4,3-0.8L-70.7-34.1z M-71.4-39.7c0-1.8-0.7-3.7-2.7-3.7c-1.9,0-3.1,1.9-3.1,3.7
			L-71.4-39.7z"/>
	</g>
	<g>
		<path class="st1" d="M-137.4-2.6c-0.3,0.1-0.9,0.3-1.6,0.3c-2.3,0-3.4-1.7-3.4-3.8c0-2.2,1.2-3.8,3.4-3.8c0.8,0,1.4,0.2,1.7,0.3
			l-0.1,1.2c-0.3-0.1-0.7-0.4-1.4-0.4c-1.1,0-2.1,0.8-2.1,2.7c0,1.9,1,2.7,2.1,2.7c0.7,0,1.1-0.2,1.4-0.4L-137.4-2.6z"/>
		<polygon class="st1" points="-136.2,-9.9 -132.3,-9.9 -132.3,-8.8 -134.9,-8.8 -134.9,-6.8 -132.5,-6.8 -132.5,-5.7 -134.9,-5.7 
			-134.9,-3.5 -132.2,-3.5 -132.2,-2.4 -136.3,-2.5 		"/>
		<polygon class="st1" points="-130.9,-9.9 -129.3,-9.9 -126.8,-4 -126.8,-4 -126.8,-9.9 -125.6,-9.9 -125.6,-2.4 -127.2,-2.4 
			-129.7,-8.2 -129.7,-8.2 -129.7,-2.4 -130.9,-2.4 		"/>
		<polygon class="st1" points="-122.9,-8.8 -124.5,-8.8 -124.5,-9.9 -119.9,-9.9 -119.9,-8.8 -121.5,-8.8 -121.5,-2.4 -122.9,-2.4 
					"/>
		<path class="st1" d="M-118.9-9.9l2.3,0c1.3,0,2.2,0.6,2.2,2c0,1-0.6,1.6-1.4,1.7v0c0.3,0,0.6,0.2,0.8,0.9l1,2.8l-1.5,0l-0.7-2.4
			c-0.2-0.6-0.5-0.8-1-0.8l-0.3,0l0,3.2l-1.4,0L-118.9-9.9z M-117-6.6c0.7,0,1.2-0.4,1.2-1.1c0-0.9-0.4-1.1-1.2-1.1l-0.6,0l0,2.2
			L-117-6.6z"/>
		<path class="st1" d="M-110.2-10c1.5,0,3,1.2,3,3.8c0,2.7-1.4,3.8-3,3.8c-1.5,0-3-1.2-3-3.8C-113.2-8.8-111.8-10-110.2-10
			 M-110.3-3.3c0.9,0,1.6-0.7,1.6-2.8c0-2-0.7-2.8-1.6-2.8c-0.9,0-1.6,0.7-1.6,2.8C-111.8-4.1-111.1-3.3-110.3-3.3"/>
		<path class="st1" d="M-98.5-2.5c-0.3,0.1-0.9,0.3-1.6,0.3c-2.3,0-3.4-1.7-3.4-3.8c0-2.2,1.2-3.8,3.4-3.8c0.8,0,1.4,0.2,1.7,0.3
			l-0.1,1.2c-0.3-0.1-0.7-0.4-1.4-0.4c-1.1,0-2.1,0.8-2.1,2.7c0,1.9,1,2.7,2.1,2.7c0.7,0,1.1-0.2,1.4-0.4L-98.5-2.5z"/>
		<path class="st1" d="M-94.6-9.9c1.5,0,3,1.2,3,3.8c0,2.7-1.4,3.8-3,3.8c-1.5,0-3-1.2-3-3.8C-97.6-8.8-96.2-9.9-94.6-9.9
			 M-94.6-3.3c0.9,0,1.6-0.7,1.6-2.8c0-2-0.7-2.8-1.6-2.8c-0.9,0-1.6,0.7-1.6,2.8C-96.2-4-95.5-3.3-94.6-3.3"/>
		<polygon class="st1" points="-84.5,-8.6 -84.5,-8.6 -86.4,-2.3 -87.3,-2.3 -89.1,-8.6 -89.1,-8.6 -89.1,-2.4 -90.4,-2.4 
			-90.4,-9.8 -88.3,-9.8 -86.8,-4.2 -86.8,-4.2 -85.2,-9.8 -83.2,-9.8 -83.2,-2.3 -84.5,-2.3 		"/>
		<polygon class="st1" points="-81.7,-9.8 -77.7,-9.8 -77.7,-8.7 -80.3,-8.7 -80.3,-6.7 -77.9,-6.7 -77.9,-5.6 -80.3,-5.6 
			-80.3,-3.4 -77.7,-3.4 -77.7,-2.3 -81.7,-2.3 		"/>
		<path class="st1" d="M-76.4-9.8l2.3,0c1.3,0,2.2,0.6,2.2,2c0,1-0.6,1.6-1.4,1.7v0c0.3,0,0.6,0.2,0.8,0.9l1,2.8l-1.5,0l-0.7-2.4
			c-0.2-0.6-0.5-0.8-1-0.8l-0.3,0l0,3.2l-1.4,0L-76.4-9.8z M-74.5-6.5c0.7,0,1.2-0.4,1.2-1.1c0-0.9-0.4-1.1-1.2-1.1l-0.6,0l0,2.2
			L-74.5-6.5z"/>
		<path class="st1" d="M-65.7-2.5c-0.3,0.1-0.9,0.3-1.6,0.3c-2.3,0-3.4-1.7-3.4-3.8c0-2.2,1.2-3.8,3.4-3.8c0.8,0,1.4,0.2,1.7,0.3
			l-0.1,1.2c-0.3-0.1-0.7-0.4-1.4-0.4c-1.1,0-2.1,0.8-2.1,2.7c0,1.9,1,2.7,2.1,2.7c0.7,0,1.1-0.2,1.4-0.4L-65.7-2.5z"/>
		
			<rect x="-67.5" y="-6.7" transform="matrix(2.032063e-03 -1 1 2.032063e-03 -57.6138 -69.7733)" class="st1" width="7.4" height="1.4"/>
		<path class="st1" d="M-57.8-4.1l-2.6,0l-0.5,1.8l-1.4,0l2.5-7.4l1.5,0l2.4,7.5l-1.4,0L-57.8-4.1z M-58-5.1L-59-8.6l0,0l-1,3.5
			L-58-5.1z"/>
		<polygon class="st1" points="-55,-9.7 -53.7,-9.7 -53.7,-3.4 -51.2,-3.4 -51.2,-2.3 -55,-2.3 		"/>
	</g>
</g>
<g>
	<path class="st1" d="M154.5,201.9c-0.2,0-0.4,0-0.5,0.1c-0.1,0.1-0.2,0.2-0.2,0.4c0,0.2,0.1,0.3,0.2,0.4c0.1,0.1,0.4,0.2,0.9,0.3
		c0.4,0.1,0.8,0.3,1,0.4c0.2,0.2,0.3,0.5,0.3,0.8c0,0.4-0.1,0.7-0.4,0.9c-0.3,0.2-0.6,0.3-1.1,0.3c-0.7,0-1.3-0.2-1.8-0.7l0.5-0.5
		c0.4,0.4,0.9,0.6,1.3,0.6c0.2,0,0.4,0,0.5-0.1c0.1-0.1,0.2-0.2,0.2-0.4c0-0.2-0.1-0.3-0.2-0.4c-0.1-0.1-0.3-0.2-0.7-0.2
		c-0.3-0.1-0.5-0.1-0.7-0.2c-0.2-0.1-0.3-0.1-0.4-0.2c-0.3-0.2-0.4-0.5-0.4-0.9c0-0.4,0.1-0.7,0.4-0.9c0.3-0.2,0.6-0.3,1.1-0.3
		c0.3,0,0.5,0,0.8,0.1c0.3,0.1,0.5,0.2,0.7,0.4l-0.4,0.5c-0.1-0.1-0.3-0.2-0.5-0.3C154.9,201.9,154.7,201.9,154.5,201.9"/>
	<polygon class="st1" points="157.2,205.6 157.2,201.3 158,201.3 158,203.2 160.1,203.2 160.1,201.3 160.8,201.3 160.8,205.6 
		160.1,205.6 160.1,203.8 158,203.8 158,205.6 	"/>
	<path class="st1" d="M165.7,205c-0.4,0.4-1,0.6-1.6,0.6c-0.6,0-1.2-0.2-1.6-0.6c-0.4-0.4-0.6-0.9-0.6-1.6c0-0.6,0.2-1.1,0.6-1.6
		c0.4-0.4,1-0.6,1.6-0.6c0.6,0,1.2,0.2,1.6,0.6c0.4,0.4,0.6,0.9,0.6,1.6C166.4,204.1,166.2,204.6,165.7,205 M165.2,202.3
		c-0.3-0.3-0.6-0.5-1.1-0.5c-0.4,0-0.8,0.1-1.1,0.5c-0.3,0.3-0.4,0.7-0.4,1.1c0,0.4,0.1,0.8,0.4,1.1c0.3,0.3,0.6,0.5,1.1,0.5
		c0.4,0,0.8-0.2,1.1-0.5c0.3-0.3,0.4-0.7,0.4-1.1C165.6,203,165.5,202.6,165.2,202.3"/>
	<path class="st1" d="M170.4,201.7c0.3,0.3,0.4,0.6,0.4,1.1c0,0.5-0.1,0.9-0.5,1.1c-0.3,0.2-0.8,0.4-1.4,0.4h-0.8v1.2h-0.7v-4.2h1.5
		C169.6,201.3,170.1,201.5,170.4,201.7 M169.9,203.5c0.1-0.2,0.2-0.4,0.2-0.7c0-0.3-0.1-0.5-0.3-0.6c-0.2-0.1-0.5-0.2-0.9-0.2h-0.7
		v1.7h0.8C169.4,203.7,169.7,203.6,169.9,203.5"/>
	<path class="st1" d="M174.7,201.7c0.3,0.3,0.4,0.6,0.4,1.1c0,0.5-0.1,0.9-0.5,1.1c-0.3,0.2-0.8,0.4-1.4,0.4h-0.8v1.2h-0.7v-4.2h1.5
		C174,201.3,174.4,201.5,174.7,201.7 M174.2,203.5c0.1-0.2,0.2-0.4,0.2-0.7c0-0.3-0.1-0.5-0.3-0.6c-0.2-0.1-0.5-0.2-0.9-0.2h-0.7
		v1.7h0.8C173.8,203.7,174.1,203.6,174.2,203.5"/>
	<rect x="176.2" y="201.3" class="st1" width="0.7" height="4.2"/>
	<polygon class="st1" points="181.5,201.3 182.3,201.3 182.3,205.6 181.5,205.6 179.1,202.5 179.1,205.6 178.4,205.6 178.4,201.3 
		179.1,201.3 181.5,204.5 	"/>
	<path class="st1" d="M186.6,203.5h0.7v1.5c-0.4,0.4-1,0.7-1.7,0.7c-0.6,0-1.2-0.2-1.6-0.6c-0.4-0.4-0.6-0.9-0.6-1.6
		c0-0.6,0.2-1.2,0.6-1.6c0.4-0.4,1-0.6,1.6-0.6c0.6,0,1.1,0.2,1.5,0.5l-0.4,0.5c-0.2-0.1-0.3-0.2-0.5-0.3c-0.2,0-0.4-0.1-0.6-0.1
		c-0.4,0-0.8,0.1-1.1,0.4c-0.3,0.3-0.4,0.6-0.4,1.1c0,0.4,0.1,0.8,0.4,1.1c0.3,0.3,0.6,0.4,1,0.4c0.4,0,0.7-0.1,1-0.3V203.5z"/>
	<path class="st1" d="M193.8,201.7c0.3,0.2,0.4,0.6,0.4,1.1c0,0.5-0.2,0.9-0.5,1.1c-0.3,0.2-0.8,0.4-1.4,0.4h-0.8v1.2H191v-4.2h1.5
		C193.1,201.3,193.5,201.5,193.8,201.7 M193.3,203.5c0.1-0.2,0.2-0.4,0.2-0.7c0-0.3-0.1-0.5-0.3-0.6c-0.2-0.1-0.5-0.2-0.9-0.2h-0.7
		v1.7h0.8C192.9,203.7,193.2,203.6,193.3,203.5"/>
	<polygon class="st1" points="195.3,205.6 195.3,201.3 196.1,201.3 196.1,204.9 198,204.9 198,205.6 	"/>
	<path class="st1" d="M199.6,204.6l-0.4,1h-0.8l1.9-4.2h0.8l1.9,4.2h-0.8l-0.4-1H199.6z M201.4,204l-0.8-1.7l-0.8,1.7H201.4z"/>
	<polygon class="st1" points="205.9,202 203.5,202 203.5,201.3 206.9,201.3 206.9,201.9 204.4,204.9 204.4,204.9 206.9,204.9 
		206.9,205.6 203.4,205.6 203.4,205 205.9,202 	"/>
	<path class="st1" d="M208.6,204.6l-0.4,1h-0.8l1.9-4.2h0.8l1.9,4.2l-0.8,0l-0.4-1H208.6z M210.5,204l-0.8-1.7l-0.8,1.7H210.5z"/>
	<path class="st2" d="M140.3,195.6c2.6-0.1,5.3,2.7,7.8,2.7c1.9,0,2.5-0.6,2.6-1c0,0.9-1.2,4.1-4.6,4.1c-1.1,0-2.2-0.4-3-1.4
		c-1.1-1.3-1.7-3.7-3.1-4.3c-0.5-0.2-1.2-0.1-1.9-0.2c-5.3-0.4-8.3-4.7-8-10.3c0.3-4.8,3.7-8.3,9.2-8.4c2.2,0,4.4,0.6,5.9,1.8
		c3.5,2.9,4,10.4,0.8,14.1C144.7,194.3,142.8,195.2,140.3,195.6 M135,186.4c0,3.4,0.5,7.9,3.2,8.8c4.2,1.5,5-4.4,5.1-8.7
		c0.1-4.4-0.6-10-4.6-9.4C135.5,177.6,135,182.2,135,186.4"/>
	<path class="st2" d="M172.5,178.8c0.4-2-1.3-2.8-2.8-2.7c-1.7,0.1-2.8,0.9-2.5,2.6C167.6,181.1,172,181,172.5,178.8"/>
	<path class="st2" d="M167,195.3h6.1c0,0-0.6-0.5-0.8-1.6c-0.5-5.4,0-9.9,0-11.9h-5.5c0.8,0.5,1,2.3,1,3.8c0.1,3,0.2,7.4-0.4,9
		C167.4,194.8,167.3,195,167,195.3"/>
	<path class="st2" d="M201.1,182.8c0-0.5,0-0.9,0-1.3c0-1.7-0.3-3.5-0.9-4.2c1.9-0.4,4-0.8,5.7-1c-0.5,4.1-0.9,11.2-0.5,15.8
		c0.1,1.3,0.5,2.4,1.8,2.5c-1.7,1-4.8,1.8-5.7,0c-0.8-1.5-0.6-4.4-0.5-6.7c0.1-2.4,0.6-6.1-1.9-5.9c-1.4,0.1-2.1,2.8-2.2,4.7
		c-0.2,2.8,0.3,5.5,1.2,6.8c0.6,0.8,1.8,1.4,2.6,0.2c-0.8,3-5.6,2.2-7.1,0.3c-1.3-1.7-1.5-4.3-1.4-6.5c0.2-3.2,2.1-5.7,4.7-6
		c0.3,0,0.6,0,0.9,0C199,181.3,200.6,181.6,201.1,182.8"/>
	<path class="st2" d="M219.9,193.2c-0.4,1.1-2.2,2.5-5.1,2.5c-2.6,0-4.3-1.2-5.2-2.4c-2.6-3.2-1.7-9.4,2.2-11.2
		c2.2-1.1,8.3-1.4,8.3,2.9c0,3.5-4,4.3-6.7,3c-0.3-0.1,0.4,0.1,0.7,0.1c0.8,0,1.5-0.1,1.9-0.9c0.9-1.7,0.1-5.6-1.3-5.6
		c-2.1-0.1-2.2,5.2-2.1,7.6c0.2,2.5,1.4,5.3,4,5.4C218.4,194.5,219.5,193.6,219.9,193.2"/>
	<path class="st2" d="M164.6,160.9c-0.5,1.8-0.6,4.4-0.6,6.9c0,2.8-0.3,6.3,0.7,7.8h-4.7c-0.1-0.1,0.3-0.4,0.4-0.7
		c0.5-1.5,0.3-3.8,0.3-6.2c0-2.9,0.2-5.6-0.6-7.1C161.7,161.3,164.2,160.9,164.6,160.9"/>
	<path class="st2" d="M190.2,193.9c-1.3-1.8-0.4-5.8-0.6-8.5c-0.1-1-0.4-2-0.9-2.7c-0.7-0.9-1.7-1.3-2.9-1.3c-1.4,0-3.9,0.8-4.8,2.9
		c-0.1-0.8-0.3-1.6-0.5-2.1c-1.1-1.7-4.5-0.6-5.9,0.2c1.8,0,2.1,1.8,2.2,3.6c0.1,2.7,0.2,7.3-0.5,8.7c-0.1,0.3-0.3,0.5-0.4,0.6h6.2
		c-1.4-1.8-0.8-7.1-1-10.6c0.2-0.8,0.9-2.2,2.4-2.2c1.6,0,1.7,2.5,1.6,4.5c-0.1,2.5-0.5,6.1,0.5,7.6c1.2,1.7,4.3,0.7,5.9-0.2
		C190.7,194.5,190.4,194.2,190.2,193.9"/>
	<path class="st2" d="M163.8,188.2c0-2.5,0.1-4.8,0.3-6.4h-5.5c0,0,1.1,0.5,1.1,4.2c0,2.4-0.2,4.6-0.1,6.3c0,0.7-1,2-2.1,2
		c-1.6,0-1.8-1.4-1.9-2.4c-0.2-3.1,0.1-7.6,0.1-10.2h-5.2c0.9,1.2,0.9,3.9,0.9,7.4c0,3.5,0.4,6.5,3.4,6.5c1.6,0,4-0.6,4.9-2.4
		c0.1,0.9,0.4,1.6,1,2c1.3,1.1,4,0,5.1-0.6C163.3,194.4,163.8,190.9,163.8,188.2"/>
	<path class="st2" d="M158.9,174c-0.3,0.9-1.7,1.9-4,1.9c-2,0-3.3-0.9-4.1-1.8c-2-2.5-1.3-7.3,1.7-8.7c1.7-0.8,6.4-1.1,6.4,2.2
		c0,2.7-3.1,3.3-5.2,2.4c-0.2-0.1,0.3,0.1,0.6,0.1c0.6,0,1.2-0.1,1.5-0.7c0.7-1.3,0.1-4.3-1-4.4c-1.6,0-1.7,4.1-1.6,5.9
		c0.1,1.9,1.1,4.1,3.1,4.2C157.7,175.1,158.6,174.4,158.9,174"/>
	<path class="st1" d="M227.5,154c-0.1-0.1-0.3-0.1-0.3-0.1c-0.1,0-11.6,6.9-14.9,8.4c-0.3,0.2-0.7,0.3-1,0.5
		c-4.3-0.5-10.2-2.4-14.6-5c-1.5-0.9-2.7-1.6-3.8-2.4c0,0,0,0,0,0c0.7-0.2,1.3-0.4,1.9-0.7c11.4-4.5,17.5-25.1,17.8-28.7
		c0-0.1,0-0.1,0-0.2c0,0,0,0,0,0c0,0,0,0,0,0c0,0,0,0,0,0c-0.1-0.1-0.2-0.1-0.3,0c-0.1,0.1-12.8,14.1-23.4,18.5
		c-1.5,0.6-3,1-4.5,1.3c-2.6-3.5-4.2-6.4-4.5-7.5c-0.6-2-1.8-5.7-7.1-7.3c-3.2-1-5.7,0-7.6,0.5c-2,0.5-3.9,0.7-3.9,0.7
		s-20.2-3.9-20.5-3.9c-0.3,0-0.4,0-0.5,0.1c-0.1,0.1-0.1,0.3,0.3,0.4c0.4,0.1,18.4,4.9,19.8,5.7c2.9,2.2,3.7,7.6,4,8.8l0,0
		c0.3,1.4,0.7,3.1,1.2,4.4c1.3,3.4,3.2,6.5,5.6,9.3c2.4,2.8,5.4,5.1,8.7,6.9c3.3,1.8,7,3,10.7,3.5c3.8,0.6,7.6,0.5,11.4-0.1
		c0.9-0.1,1.9-0.3,2.8-0.6c0.9-0.2,1.8-0.5,2.7-0.8c1.3-0.4,2.5-0.9,3.7-1.4l0,0c6.5,0.4,12,2.4,15.3,3.8c0.3,0.1,0.5-0.3,0.2-0.4
		c-1-0.6-3.4-2-7.2-3.3c-1.9-0.6-3.9-1.1-5.6-1.4h0c5.3-2.9,13.5-8.7,13.6-8.8C227.5,154.2,227.6,154.1,227.5,154 M196.6,163.8
		c-6.1,0-12-1.6-16.7-4.5c-3.5-2.2-6.5-5-8.7-8.3c0.1,0,0.2,0.1,0.3,0.1c5,3.7,11.2,5.6,17.3,5c1.7,1.4,3.7,2.7,6.4,4.2
		c1.9,1.1,4.2,2.2,6.5,3C200.1,163.6,198.3,163.8,196.6,163.8"/>
</g>
<g>
	<g>
		<polygon points="39.2,74.6 42.3,74.6 45.7,80 49,74.6 52.1,74.6 52.1,87.3 49.3,87.3 49.3,79 45.7,84.5 45.6,84.5 42,79.1 
			42,87.3 39.2,87.3 		"/>
		<path d="M53.9,82.5L53.9,82.5c0-2.8,2-5.1,4.9-5.1c3.3,0,4.8,2.5,4.8,5.3c0,0.2,0,0.5,0,0.7h-6.8c0.3,1.3,1.2,1.9,2.4,1.9
			c0.9,0,1.6-0.3,2.4-1l1.6,1.4c-0.9,1.1-2.2,1.8-4,1.8C56.1,87.6,53.9,85.5,53.9,82.5 M60.9,81.7c-0.2-1.2-0.9-2.1-2.1-2.1
			c-1.2,0-1.9,0.8-2.1,2.1H60.9z"/>
		<path d="M65.3,89.3l1-2.1c1,0.6,2,0.9,3.3,0.9c1.9,0,2.8-0.9,2.8-2.7V85c-0.8,1-1.7,1.6-3.2,1.6c-2.3,0-4.4-1.7-4.4-4.5v0
			c0-2.9,2.1-4.5,4.4-4.5c1.5,0,2.4,0.6,3.2,1.5v-1.3h2.8v7.5c0,1.7-0.4,3-1.2,3.8c-0.9,0.9-2.3,1.3-4.2,1.3
			C68,90.3,66.5,89.9,65.3,89.3 M72.4,82L72.4,82c0-1.4-1-2.3-2.4-2.3c-1.4,0-2.4,0.9-2.4,2.3v0c0,1.3,1,2.3,2.4,2.3
			C71.3,84.2,72.4,83.3,72.4,82"/>
		<path d="M76.6,84.5L76.6,84.5c0-2.2,1.6-3.1,4-3.1c1,0,1.7,0.2,2.4,0.4v-0.2c0-1.1-0.7-1.8-2.1-1.8c-1.1,0-1.8,0.2-2.7,0.5
			l-0.7-2.1c1.1-0.5,2.1-0.8,3.8-0.8c1.5,0,2.6,0.4,3.3,1.1c0.7,0.7,1.1,1.8,1.1,3.1v5.7h-2.7v-1.1c-0.7,0.7-1.6,1.2-3,1.2
			C78.1,87.5,76.6,86.5,76.6,84.5 M83,83.9v-0.5c-0.5-0.2-1.1-0.4-1.8-0.4c-1.2,0-1.9,0.5-1.9,1.3v0c0,0.7,0.6,1.2,1.5,1.2
			C82.1,85.6,83,84.9,83,83.9"/>
		<path d="M88.1,74.6h4.8c0.7,0,1.4,0.1,2,0.3c0.6,0.2,1.1,0.5,1.5,0.8c0.4,0.3,0.7,0.8,1,1.3c0.2,0.5,0.3,1.1,0.3,1.7v0
			c0,0.7-0.1,1.3-0.4,1.8c-0.3,0.5-0.6,0.9-1.1,1.3c-0.5,0.4-1,0.6-1.6,0.8c-0.6,0.2-1.3,0.3-1.9,0.3h-3.1v4.5h-1.4V74.6z
			 M92.8,81.6c0.5,0,1-0.1,1.4-0.2c0.4-0.1,0.8-0.3,1.1-0.6c0.3-0.2,0.6-0.5,0.7-0.9c0.2-0.3,0.2-0.7,0.2-1.1v0
			c0-0.9-0.3-1.6-0.9-2.1c-0.6-0.5-1.5-0.7-2.5-0.7h-3.3v5.6H92.8z"/>
		<rect x="99.4" y="74.1" width="1.4" height="13.3"/>
		<path d="M106,87.5c-0.4,0-0.9-0.1-1.3-0.2c-0.4-0.1-0.8-0.3-1.1-0.6c-0.3-0.2-0.6-0.6-0.8-0.9c-0.2-0.4-0.3-0.8-0.3-1.3v0
			c0-0.5,0.1-1,0.3-1.3c0.2-0.4,0.5-0.7,0.8-1c0.4-0.3,0.8-0.4,1.3-0.6c0.5-0.1,1-0.2,1.6-0.2c0.6,0,1.1,0,1.6,0.1
			c0.4,0.1,0.9,0.2,1.3,0.3v-0.3c0-0.8-0.2-1.5-0.7-1.9c-0.5-0.4-1.2-0.6-2.1-0.6c-0.6,0-1.1,0.1-1.5,0.2c-0.5,0.1-0.9,0.3-1.3,0.5
			l-0.4-1.2c0.5-0.2,1.1-0.4,1.6-0.6c0.5-0.1,1.2-0.2,1.9-0.2c1.3,0,2.4,0.3,3.1,1c0.7,0.7,1,1.6,1,2.8v5.7h-1.4v-1.4
			c-0.3,0.4-0.8,0.8-1.3,1.1C107.5,87.4,106.8,87.5,106,87.5 M106.2,86.4c0.4,0,0.8-0.1,1.2-0.2c0.4-0.1,0.7-0.3,1-0.5
			c0.3-0.2,0.5-0.5,0.7-0.8c0.2-0.3,0.2-0.6,0.2-1V83c-0.4-0.1-0.8-0.2-1.2-0.3c-0.5-0.1-1-0.1-1.6-0.1c-0.9,0-1.6,0.2-2,0.5
			c-0.5,0.3-0.7,0.8-0.7,1.4v0c0,0.3,0.1,0.6,0.2,0.8c0.1,0.2,0.3,0.4,0.5,0.6c0.2,0.2,0.5,0.3,0.8,0.4
			C105.6,86.3,105.9,86.4,106.2,86.4"/>
		<polygon points="112.3,86.4 118.6,79.1 112.5,79.1 112.5,77.9 120.5,77.9 120.5,78.8 114.2,86.2 120.5,86.2 120.5,87.3 
			112.3,87.3 		"/>
		<path d="M125,87.5c-0.4,0-0.9-0.1-1.3-0.2c-0.4-0.1-0.8-0.3-1.1-0.6c-0.3-0.2-0.6-0.6-0.8-0.9c-0.2-0.4-0.3-0.8-0.3-1.3v0
			c0-0.5,0.1-1,0.3-1.3c0.2-0.4,0.5-0.7,0.8-1c0.4-0.3,0.8-0.4,1.3-0.6c0.5-0.1,1-0.2,1.6-0.2c0.6,0,1.1,0,1.6,0.1
			c0.4,0.1,0.9,0.2,1.3,0.3v-0.3c0-0.8-0.2-1.5-0.7-1.9c-0.5-0.4-1.2-0.6-2.1-0.6c-0.6,0-1.1,0.1-1.5,0.2c-0.5,0.1-0.9,0.3-1.3,0.5
			l-0.4-1.2c0.5-0.2,1.1-0.4,1.6-0.6c0.5-0.1,1.2-0.2,1.9-0.2c1.3,0,2.4,0.3,3.1,1c0.7,0.7,1,1.6,1,2.8v5.7h-1.4v-1.4
			c-0.3,0.4-0.8,0.8-1.3,1.1C126.5,87.4,125.8,87.5,125,87.5 M125.2,86.4c0.4,0,0.8-0.1,1.2-0.2c0.4-0.1,0.7-0.3,1-0.5
			c0.3-0.2,0.5-0.5,0.7-0.8c0.2-0.3,0.2-0.6,0.2-1V83c-0.4-0.1-0.8-0.2-1.2-0.3c-0.5-0.1-1-0.1-1.6-0.1c-0.9,0-1.6,0.2-2,0.5
			c-0.5,0.3-0.7,0.8-0.7,1.4v0c0,0.3,0.1,0.6,0.2,0.8c0.1,0.2,0.3,0.4,0.5,0.6c0.2,0.2,0.5,0.3,0.8,0.4
			C124.6,86.3,124.9,86.4,125.2,86.4"/>
	</g>
	<path class="st1" d="M84.6,4.2c-17.3,0-31.4,14-31.4,31.3c0,17.3,14,31.4,31.3,31.4c17.3,0,31.4-14,31.4-31.3
		C115.9,18.3,101.9,4.2,84.6,4.2z M78.2,63.7c-11.9-2.7-21-12.6-22.3-24.9c0.5,0,1.1-0.1,1.7-0.1c11.6,0,21.1,9.5,21,21.1
		C78.5,61.1,78.4,62.4,78.2,63.7z M84.4,64.4c-1.1,0-2.2-0.1-3.2-0.2c0.3-1.4,0.4-2.9,0.4-4.4c0-9.9-5.9-18.4-14.4-22.1
		c0.2-9.3,7.9-16.9,17.2-16.8c9.4,0,17.1,7.6,17.2,17c-8.4,3.8-14.2,12.2-14.2,22c0,1.5,0.1,2.9,0.4,4.3
		C86.8,64.3,85.6,64.4,84.4,64.4z M91,63.6c-0.2-1.2-0.3-2.5-0.3-3.8c0-11.6,9.5-21.1,21.1-21c0.5,0,0.9,0,1.4,0.1
		C111.7,51.1,102.7,60.9,91,63.6z M111.8,35.7c-2.4,0-4.8,0.3-7,1c-0.7-10.6-9.5-19-20.2-19C73.8,17.7,65,26,64.2,36.6
		c-2.1-0.6-4.4-1-6.7-1c-0.6,0-1.2,0-1.8,0.1c0-0.1,0-0.1,0-0.2c0-15.9,13-28.8,28.9-28.8c15.9,0,28.8,13,28.8,28.9v0.2
		C112.8,35.7,112.3,35.7,111.8,35.7z"/>
</g>
</svg>
