<?xml version="1.0" encoding="utf-8"?>
<!-- Generator: Adobe Illustrator 25.4.1, SVG Export Plug-In . SVG Version: 6.00 Build 0)  -->
<svg version="1.1" id="Capa_1" xmlns="http://www.w3.org/2000/svg" xmlns:xlink="http://www.w3.org/1999/xlink" x="0px" y="0px"
	 viewBox="0 0 185 50" style="enable-background:new 0 0 185 50;" xml:space="preserve">
<style type="text/css">
	.st0{fill:#E06B19;}
	.st1{font-family:'WorkSans-Medium';}
	.st2{font-size:10.9724px;}
	.st3{fill-rule:evenodd;clip-rule:evenodd;fill:#EAB631;}
	.st4{fill:#A61933;}
</style>
<g>
	<text transform="matrix(1 0 0 1 133.2812 40.8604)" class="st0 st1 st2">Cañete</text>
	<g>
		<g>
			<path class="st3" d="M48.88,6.27C47.94,6,48.54,7.42,48.24,8.16c-0.71-0.25-1.86-1.52-2.26-0.86c-0.22,0.44,0.89,1.2,1.3,1.67
				c-1.03,0.09-2.94-0.28-2.98,0.39c-0.13,0.85,2.36,0.73,3.28,1.12c0.09,0.12-1.22,1.39-1.06,2.2c0.06,0.26,0.27,0.46,0.62,0.45
				c0.74-0.02,1.47-1.53,1.89-1.63c0.46,0.67,0.5,2.37,1.38,2.3c0.66-0.07,0.2-1.74,0.25-2.34c0.88,0.15,2.31,0.89,2.53,0.57
				c0.51-0.79-1.81-1.64-2.32-2.12c0.18-0.36,0.63-0.82,0.76-1.25c0.1-0.33-0.18-0.73-0.55-0.58c-0.39,0.09-0.91,0.44-1.31,0.53
				C49.46,7.96,49.51,6.45,48.88,6.27"/>
			<path class="st3" d="M39.73,13.73c1.6-1.8,0.13-4.4-2.32-4.05c-1.1,0.17-1.78,0.94-1.95,1.46C34.49,14.23,38.2,15.45,39.73,13.73
				"/>
			<path class="st3" d="M41.31,19.97c-0.18-0.81-0.32-1.81,0.48-3.23c0.32-0.58,1.31-1.68,1.9-2.39c0.75-0.88,1.45-1.7,1.63-2.2
				c0.14-0.4-0.23-1.03-0.93-0.69c-0.64,0.3-1.46,1.1-2.21,1.75c-0.69,0.59-1.48,1.15-2.17,1.48c-1.91,0.9-4.04,0.15-5.95-0.42
				c-1.57-0.46-3.44-1.67-3.87-0.81c-0.4,0.8,0.81,1.42,1.34,1.75c1.07,0.65,2.55,1.35,3.33,2.37c0.58,0.76,0.99,2.22,0.86,3.56
				c-0.08,0.86-0.24,1.57-0.73,3.11c-0.36,1.15-1.31,3.4,0.55,3.34c0.86-0.03,1.53-1.85,1.85-2.4c0.55-0.96,0.76-1.8,1.23-2.71
				c0.05-0.11,0.17-0.28,0.37,0.03c0.57,0.91,1.28,2.22,1.82,3.03c0.35,0.53,1.12,1.73,1.83,1.58c1.45-0.3,0.19-2.77-0.14-3.58
				C42.2,22.78,41.54,21.04,41.31,19.97"/>
			<path class="st4" d="M34.88,32.21c0.26-0.19-0.13-0.56-0.13-0.87c0.51,0,1.3,0.38,1.45,0.11c0.22-0.52-0.84-0.54-1.15-0.91
				c0.12-0.39,0.93-0.7,0.53-1.05c-0.25-0.2-0.67,0.36-0.93,0.28c-0.03-0.49,0.22-1.41-0.09-1.47c-0.67-0.13-0.39,0.95-0.77,1.27
				c-0.38-0.22-0.56-0.97-0.99-0.8c-0.32,0.23,0.38,0.88,0.43,1.42c-0.36,0.01-0.96,0-0.99,0.21c-0.16,0.49,0.85,0.43,1.08,0.7
				c-0.07,0.45-0.8,1.05-0.25,1.32c0.33,0.09,0.53-0.63,0.91-0.84C34.31,31.75,34.58,32.4,34.88,32.21"/>
			<path class="st4" d="M50.41,16.86c0.76-0.14,1.24,0.67,0.74,1.28c-0.23,0.27-0.55,0.33-0.72,0.29
				C49.42,18.21,49.68,17,50.41,16.86"/>
			<path class="st4" d="M48.48,15.44c0.19,0.17,0.45,0.38,0.97,0.39c0.21,0,0.67-0.09,0.97-0.14c0.36-0.05,0.7-0.12,0.87-0.09
				c0.13,0.03,0.25,0.23,0.04,0.37c-0.19,0.13-0.54,0.22-0.84,0.32c-0.27,0.09-0.55,0.22-0.76,0.35c-0.56,0.37-0.7,1.07-0.85,1.68
				c-0.13,0.5-0.09,1.2-0.4,1.18c-0.28-0.02-0.26-0.45-0.26-0.64c-0.01-0.4,0.04-0.91-0.12-1.28c-0.12-0.28-0.46-0.62-0.85-0.8
				c-0.25-0.12-0.47-0.18-0.98-0.3c-0.38-0.09-1.15-0.19-0.84-0.69c0.15-0.23,0.76-0.12,0.96-0.12c0.35,0.01,0.62,0.08,0.95,0.1
				c0.04,0,0.11,0,0.06-0.1c-0.16-0.31-0.41-0.7-0.55-0.98c-0.09-0.18-0.3-0.58-0.14-0.75c0.32-0.35,0.79,0.4,0.97,0.61
				C47.84,14.74,48.23,15.2,48.48,15.44"/>
			<path class="st4" d="M44.65,21.43c0.29-0.34,0.01-0.82-0.45-0.74c-0.2,0.04-0.32,0.18-0.35,0.28
				C43.68,21.54,44.37,21.75,44.65,21.43"/>
			<path class="st4" d="M44.97,22.58c-0.03-0.15-0.06-0.34,0.08-0.6c0.06-0.11,0.24-0.32,0.34-0.45c0.13-0.17,0.26-0.33,0.29-0.42
				c0.03-0.07-0.04-0.19-0.17-0.13c-0.12,0.06-0.27,0.21-0.41,0.33c-0.12,0.11-0.27,0.22-0.4,0.29c-0.35,0.18-0.76,0.05-1.11-0.05
				c-0.29-0.08-0.65-0.3-0.73-0.13c-0.07,0.15,0.15,0.26,0.26,0.32c0.2,0.12,0.48,0.24,0.63,0.43c0.11,0.14,0.19,0.41,0.18,0.66
				c-0.01,0.16-0.03,0.29-0.12,0.58c-0.06,0.22-0.23,0.64,0.12,0.63c0.16-0.01,0.28-0.36,0.33-0.46c0.1-0.19,0.13-0.34,0.22-0.51
				c0.01-0.02,0.03-0.06,0.07,0c0.11,0.17,0.25,0.41,0.35,0.56c0.07,0.1,0.21,0.31,0.35,0.29c0.27-0.06,0.03-0.52-0.04-0.67
				C45.15,23.1,45.02,22.78,44.97,22.58"/>
			<path class="st4" d="M31.13,18.17c0.29,0.4,0.03,0.79-0.43,0.65c-0.2-0.06-0.27-0.18-0.3-0.28
				C30.21,17.91,30.84,17.8,31.13,18.17"/>
			<path class="st4" d="M31.35,15.9c0.3,0.4,0.04,0.79-0.42,0.65c-0.2-0.07-0.27-0.18-0.3-0.28C30.45,15.64,31.07,15.53,31.35,15.9"
				/>
			<path class="st4" d="M30.36,16.69c0.08,0.15,0.21,0.32,0.5,0.49c0.12,0.07,0.13,0.05,0.28,0.11c0.23,0.09,0.26,0.08,0.36,0.14
				c0.08,0.04,0.11,0.19-0.06,0.23c-0.14,0.03-0.15,0.04-0.39,0.06c-0.19,0.02-0.4,0.03-0.56,0.15c-0.36,0.27-0.27,0.25-0.47,0.62
				c-0.15,0.3-0.29,0.73-0.48,0.65c-0.18-0.08-0.06-0.33-0.02-0.45c0.09-0.24,0.24-0.54,0.22-0.81c-0.01-0.19-0.14-0.48-0.34-0.67
				c-0.13-0.13-0.25-0.22-0.54-0.41c-0.22-0.13-0.67-0.38-0.36-0.6c0.15-0.11,0.51,0.09,0.63,0.14c0.2,0.1,0.37,0.19,0.57,0.28
				c0.02,0.01,0.06,0.02,0.05-0.05c-0.03-0.22-0.18-0.41-0.25-0.62c-0.04-0.12-0.11-0.38,0.01-0.47c0.16-0.13,0.4,0.32,0.5,0.51
				C30.08,16.13,30.26,16.49,30.36,16.69"/>
			<path class="st4" d="M20.8,9.95c0.17,0.26,0.77-0.38,1.2-0.47l0.33,1.01c0.27,0.5,0.15-0.98,0.67-1.42
				c0.57,0.05,0.98,0.45,1.14,0.06c-0.01-0.37-0.46-0.45-0.56-0.73c0.49-0.46,2.01-1,1.7-1.38c-0.49-0.18-1.15,0.49-1.57,0.38
				c0.04-0.38,0.61-0.93,0.33-1.02c-0.42-0.13-0.6,0.68-1,0.92c-0.11-0.25-0.39-0.79-0.55-0.73c-0.26-0.02-0.07,0.65-0.17,1.21
				c-0.48,0.09-1.09-0.28-1.13,0.3c0.03,0.27,0.55,0.43,0.65,0.69C21.59,9.21,20.57,9.64,20.8,9.95"/>
			<path class="st4" d="M25.41,21.78c0.16,0.17,0.26,0.59,0.46,0.5c0.18-0.08-0.16-0.48-0.02-0.64c0.11-0.12,0.44,0.26,0.54,0
				c0.01-0.19-0.33-0.19-0.32-0.36c0.17-0.16,0.53-0.22,0.43-0.4c-0.11-0.2-0.45,0.11-0.73,0.05c-0.06-0.17,0.05-0.34-0.14-0.51
				c-0.07-0.06-0.1-0.04-0.15-0.01c-0.13,0.17-0.02,0.3-0.19,0.43c-0.24-0.18-0.52-0.58-0.65-0.4c-0.13,0.17,0.29,0.38,0.28,0.61
				c-0.21-0.03-0.63-0.1-0.64,0.01c-0.04,0.23,0.49,0.18,0.71,0.37l-0.28,0.29c-0.04,0.07-0.02,0.12,0.07,0.13
				C24.99,21.89,25.2,21.64,25.41,21.78"/>
			<path class="st4" d="M42.37,35.31c0.15,0.16,0.24,0.55,0.43,0.47c0.17-0.08-0.15-0.45-0.01-0.6c0.11-0.11,0.41,0.24,0.5,0.01
				c0-0.19-0.31-0.18-0.3-0.35c0.17-0.14,0.5-0.21,0.4-0.37c-0.11-0.19-0.42,0.1-0.68,0.05c-0.06-0.16,0.04-0.32-0.13-0.48
				c-0.06-0.05-0.09-0.03-0.14,0c-0.13,0.16-0.01,0.28-0.18,0.4c-0.22-0.17-0.49-0.54-0.61-0.37c-0.12,0.15,0.28,0.35,0.26,0.57
				c-0.2-0.03-0.58-0.09-0.6,0.01c-0.04,0.22,0.45,0.16,0.67,0.34l-0.26,0.28c-0.04,0.06-0.02,0.11,0.06,0.11
				C41.97,35.41,42.17,35.18,42.37,35.31"/>
			<path class="st4" d="M28.11,8.16c0.15,0.16,0.24,0.55,0.43,0.47c0.16-0.08-0.15-0.45-0.01-0.6c0.11-0.12,0.41,0.24,0.5,0.01
				c0-0.18-0.31-0.18-0.3-0.34c0.17-0.15,0.5-0.21,0.4-0.37c-0.11-0.19-0.42,0.1-0.68,0.04c-0.06-0.16,0.05-0.32-0.13-0.47
				c-0.06-0.06-0.09-0.03-0.14-0.01C28.05,7.05,28.16,7.17,28,7.3c-0.22-0.17-0.49-0.54-0.61-0.38c-0.12,0.15,0.27,0.36,0.26,0.56
				c-0.2-0.03-0.59-0.09-0.6,0.01c-0.04,0.21,0.45,0.17,0.66,0.34l-0.26,0.28c-0.04,0.07-0.02,0.11,0.07,0.12
				C27.71,8.26,27.91,8.03,28.11,8.16"/>
			<path class="st4" d="M28.26,29.8c-0.16,0.17-0.27,0.6-0.47,0.51c-0.18-0.09,0.17-0.49,0.02-0.65c-0.11-0.13-0.45,0.26-0.55,0
				c0-0.2,0.34-0.19,0.33-0.37c-0.18-0.16-0.55-0.22-0.44-0.4c0.12-0.21,0.47,0.11,0.75,0.05c0.07-0.17-0.05-0.35,0.14-0.52
				c0.07-0.06,0.1-0.04,0.15-0.01c0.14,0.17,0.02,0.31,0.2,0.44c0.24-0.19,0.53-0.59,0.67-0.41c0.13,0.17-0.3,0.39-0.28,0.62
				c0.22-0.03,0.65-0.1,0.65,0.01c0.05,0.23-0.5,0.18-0.73,0.38l0.29,0.3c0.05,0.07,0.02,0.12-0.07,0.13
				C28.7,29.91,28.48,29.66,28.26,29.8"/>
			<path class="st4" d="M48.87,30.39c0.07-0.26,0.13-0.54,0.15-0.85c-0.03-0.14-0.1-0.12-0.18-0.06c-0.21,0.22-0.24,0.63-0.46,0.84
				c-0.25,0-0.43-0.34-0.57-0.2c-0.22,0.15,0.15,0.32,0.13,0.61c-0.33,0.07-0.91-0.02-0.81,0.4c0.11,0.13,0.55,0.04,0.73,0.15
				c-0.01,0.25-0.33,0.41-0.21,0.6c0.22,0.14,0.34-0.39,0.56-0.22c0.01,0.26-0.09,0.63,0.16,0.67c0.31-0.03,0.12-0.67,0.34-0.83
				c0.18,0.07,0.42,0.33,0.54,0.2c0.18-0.32-0.25-0.39-0.28-0.69c0.14-0.19,0.62-0.25,0.51-0.47
				C49.39,30.38,48.95,30.55,48.87,30.39"/>
			<path class="st4" d="M48.48,4.91c-0.01,0.11,0.33,0.16,0.47,0.3c-0.11,0.18-0.34,0.37-0.36,0.53c0.07,0.25,0.47-0.24,0.71-0.28
				c0.12,0.11,0.19,0.56,0.33,0.38c0.08-0.11,0.04-0.27,0.06-0.39c0.22,0.03,0.52,0.36,0.58,0.24c0.07-0.13-0.29-0.33-0.42-0.5
				c0.11-0.02,0.23-0.04,0.2-0.1c-0.1-0.14-0.36-0.06-0.43-0.05c-0.01-0.15,0.01-0.17-0.01-0.24c-0.09-0.19-0.21-0.07-0.34,0.03
				c-0.17-0.11-0.36-0.32-0.46-0.22c-0.08,0.06,0.15,0.21,0.21,0.29C48.85,4.91,48.5,4.76,48.48,4.91"/>
			<path class="st4" d="M54.88,23.01c-0.26,0.45-0.74,0.35-0.79-0.14c-0.02-0.22,0.06-0.33,0.15-0.4
				C54.76,22.03,55.13,22.58,54.88,23.01"/>
			<path class="st4" d="M56,21.68c-0.11,0.14-0.23,0.33-0.27,0.68c-0.02,0.14,0,0.14,0.01,0.31c0,0.25,0.03,0.28,0.01,0.4
				c-0.01,0.09-0.14,0.18-0.24,0.04c-0.09-0.13-0.1-0.14-0.22-0.35c-0.1-0.17-0.19-0.38-0.37-0.48c-0.4-0.23-0.35-0.16-0.79-0.19
				c-0.35-0.03-0.82,0.02-0.82-0.19c0-0.2,0.29-0.19,0.42-0.2c0.27-0.02,0.62,0.01,0.86-0.12c0.18-0.09,0.4-0.33,0.51-0.6
				c0.07-0.18,0.11-0.33,0.17-0.68c0.04-0.27,0.08-0.81,0.43-0.6c0.16,0.1,0.12,0.52,0.11,0.66c-0.01,0.24-0.03,0.44-0.03,0.66
				c0,0.02,0.01,0.07,0.08,0.03c0.19-0.11,0.32-0.34,0.49-0.5c0.1-0.09,0.33-0.26,0.46-0.19c0.19,0.11-0.15,0.52-0.29,0.68
				C56.41,21.18,56.15,21.5,56,21.68"/>
			<path class="st4" d="M56.41,11.56c0.35,0.46,0.04,0.92-0.49,0.75c-0.24-0.08-0.32-0.2-0.35-0.33
				C55.35,11.27,56.08,11.13,56.41,11.56"/>
			<path class="st4" d="M55.07,9.84c0.1,0.18,0.24,0.37,0.58,0.57c0.14,0.08,0.15,0.06,0.32,0.13c0.27,0.1,0.31,0.09,0.42,0.16
				c0.09,0.05,0.12,0.23-0.07,0.27c-0.16,0.03-0.19,0.04-0.45,0.07c-0.23,0.02-0.47,0.03-0.66,0.17c-0.42,0.31-0.32,0.29-0.55,0.72
				c-0.19,0.35-0.34,0.85-0.55,0.75c-0.2-0.08-0.08-0.38-0.02-0.52c0.09-0.28,0.27-0.63,0.25-0.94c-0.01-0.22-0.16-0.56-0.39-0.79
				c-0.15-0.15-0.29-0.26-0.63-0.47c-0.25-0.16-0.79-0.44-0.42-0.71c0.17-0.12,0.59,0.11,0.73,0.18c0.24,0.12,0.43,0.22,0.67,0.32
				c0.02,0.01,0.07,0.02,0.06-0.06c-0.03-0.25-0.21-0.47-0.3-0.72c-0.05-0.14-0.12-0.45,0.01-0.56c0.19-0.15,0.47,0.38,0.58,0.6
				C54.74,9.19,54.95,9.6,55.07,9.84"/>
			<path class="st4" d="M35.57,37.3c0.46,0.31,0.88-0.01,0.7-0.5c-0.09-0.22-0.21-0.29-0.33-0.32C35.24,36.3,35.14,37,35.57,37.3"/>
			<path class="st4" d="M33.88,36.53c0.17,0.08,0.37,0.21,0.58,0.53c0.08,0.12,0.06,0.14,0.13,0.3c0.11,0.25,0.1,0.29,0.17,0.39
				c0.05,0.08,0.22,0.11,0.25-0.07c0.04-0.16,0.04-0.18,0.05-0.44c0.02-0.21,0.01-0.45,0.14-0.63c0.28-0.42,0.27-0.32,0.67-0.55
				c0.32-0.19,0.8-0.36,0.7-0.57c-0.09-0.19-0.37-0.05-0.5,0c-0.26,0.11-0.59,0.29-0.88,0.29c-0.21,0-0.54-0.13-0.77-0.35
				c-0.15-0.14-0.26-0.27-0.48-0.57c-0.16-0.24-0.46-0.74-0.69-0.38c-0.11,0.17,0.13,0.56,0.2,0.69c0.12,0.23,0.23,0.4,0.34,0.62
				c0.01,0.02,0.03,0.07-0.06,0.07c-0.25-0.02-0.46-0.18-0.7-0.26c-0.14-0.04-0.44-0.1-0.54,0.04c-0.13,0.19,0.39,0.43,0.6,0.53
				C33.25,36.25,33.65,36.43,33.88,36.53"/>
			<path class="st4" d="M20.49,18.2c-0.05-0.12-0.34,0.01-0.35-0.13c-0.02-0.19,0.33-0.63-0.03-0.7c-0.09,0.16-0.12,0.38-0.26,0.5
				c-0.16-0.05-0.1-0.32-0.29-0.34c-0.21,0.13,0.11,0.49-0.05,0.56c-0.13-0.05-0.26-0.11-0.43-0.12c-0.08,0.4,0.29,0.32,0.3,0.62
				c-0.05,0.21-0.32,0.19-0.26,0.5c0.26,0.03,0.26-0.16,0.48-0.16c0.08,0.27-0.14,0.41,0.02,0.56c0.26,0,0.15-0.36,0.33-0.43
				c0.22,0.06,0.23,0.33,0.5,0.33c0.01-0.38-0.21-0.5-0.31-0.76C20.29,18.51,20.48,18.43,20.49,18.2"/>
			<g>
				<path class="st0" d="M38.6,32.36c0.51-1.02-0.48-2.04-1.56-1.58c-0.49,0.21-0.7,0.65-0.72,0.91
					C36.25,33.23,38.1,33.33,38.6,32.36"/>
				<path class="st0" d="M40.05,35.2c-0.18-0.35-0.37-0.79-0.17-1.54c0.08-0.31,0.39-0.94,0.58-1.34c0.23-0.49,0.45-0.95,0.47-1.21
					c0.02-0.2-0.23-0.44-0.51-0.21c-0.26,0.22-0.53,0.69-0.8,1.08c-0.24,0.36-0.53,0.71-0.82,0.94c-0.77,0.65-1.84,0.57-2.79,0.54
					c-0.78-0.02-1.79-0.34-1.88,0.1c-0.09,0.42,0.55,0.56,0.83,0.64c0.57,0.17,1.34,0.31,1.82,0.68c0.36,0.28,0.73,0.9,0.83,1.54
					c0.07,0.4,0.09,0.74,0.1,1.51c0.01,0.58-0.02,1.81,0.76,1.63c0.4-0.09,0.39-1.18,0.41-1.48c0.06-0.71,0.1-1.07,0.17-1.38
					c0.01-0.06,0.1-0.15,0.25-0.06c0.38,0.27,0.56,0.42,0.85,0.64c0.25,0.19,0.67,0.51,0.98,0.35c0.63-0.32-0.11-1.03-0.36-1.36
					C40.53,35.97,40.29,35.66,40.05,35.2"/>
				<path class="st0" d="M51.1,7.37c0.18-0.58-0.59-1.04-0.94-0.67C49.89,7.4,50.66,7.84,51.1,7.37"/>
				<path class="st0" d="M31.61,10.07c-0.38-0.04-0.95-0.44-1.11-0.12c-0.12,0.3,0.72,0.41,0.71,0.77c0,0.27-0.82,0.16-0.67,0.57
					c0.2,0.24,0.61-0.13,0.79,0.1c-0.05,0.38-0.42,0.86-0.11,0.95c0.35,0.13,0.43-0.62,0.85-0.84c0.26,0.13,0.3,0.47,0.72,0.47
					c0.15,0,0.16-0.07,0.19-0.15c-0.01-0.36-0.3-0.39-0.23-0.74c0.49-0.03,1.26,0.15,1.23-0.21c-0.01-0.34-0.77-0.15-0.99-0.44
					c0.3-0.2,0.88-0.56,0.77-0.71c-0.18-0.33-0.79,0.3-1.27,0.32l0.03-0.66c-0.02-0.14-0.1-0.17-0.22-0.08
					C32.02,9.48,32.03,10.01,31.61,10.07"/>
				<path class="st0" d="M41.62,11.81c0.16,0.06,0.37,0.31,0.48,0.19c0.09-0.12-0.27-0.27-0.23-0.43c0.04-0.12,0.38,0.03,0.37-0.17
					c-0.06-0.13-0.29-0.02-0.34-0.14c0.07-0.17,0.29-0.33,0.16-0.41c-0.14-0.1-0.27,0.23-0.47,0.27c-0.1-0.09-0.08-0.25-0.26-0.29
					c-0.06-0.02-0.08,0.01-0.11,0.04c-0.04,0.16,0.09,0.21,0.01,0.36c-0.22-0.05-0.55-0.22-0.58-0.06
					c-0.04,0.16,0.33,0.16,0.38,0.31c-0.15,0.05-0.45,0.14-0.43,0.23c0.05,0.17,0.39-0.04,0.6,0.01l-0.09,0.29
					c-0.01,0.06,0.02,0.09,0.08,0.06C41.37,12.03,41.43,11.79,41.62,11.81"/>
				<path class="st0" d="M47.43,20.84c0.11,0.12,0.18,0.41,0.32,0.35c0.12-0.06-0.11-0.33-0.01-0.44c0.08-0.08,0.3,0.18,0.36,0
					c0.01-0.13-0.23-0.13-0.22-0.25c0.13-0.11,0.37-0.15,0.3-0.27c-0.08-0.14-0.32,0.08-0.51,0.03c-0.05-0.11,0.04-0.24-0.1-0.35
					c-0.05-0.04-0.07-0.02-0.1-0.01c-0.1,0.12-0.01,0.21-0.13,0.3c-0.16-0.13-0.36-0.4-0.45-0.28c-0.09,0.11,0.2,0.26,0.19,0.41
					c-0.15-0.02-0.43-0.07-0.44,0.01c-0.03,0.16,0.34,0.12,0.49,0.26l-0.2,0.2c-0.03,0.05-0.01,0.09,0.05,0.09
					C47.14,20.92,47.29,20.75,47.43,20.84"/>
				<path class="st0" d="M52.72,17.28c0.12,0.13,0.19,0.44,0.34,0.37c0.13-0.06-0.12-0.35-0.02-0.47c0.09-0.09,0.33,0.18,0.4,0
					c0-0.14-0.24-0.14-0.24-0.27c0.13-0.11,0.4-0.17,0.32-0.29c-0.08-0.15-0.33,0.08-0.54,0.04c-0.05-0.13,0.04-0.25-0.11-0.38
					c-0.04-0.05-0.07-0.03-0.11-0.01c-0.1,0.12-0.01,0.22-0.14,0.32c-0.18-0.13-0.38-0.43-0.49-0.29c-0.1,0.12,0.22,0.28,0.21,0.44
					c-0.16-0.02-0.46-0.07-0.47,0.01c-0.04,0.17,0.36,0.13,0.52,0.27l-0.2,0.21c-0.04,0.05-0.02,0.08,0.05,0.09
					C52.4,17.36,52.56,17.18,52.72,17.28"/>
				<path class="st0" d="M27.7,17.94c-0.06-0.14-0.55,0.06-0.57-0.13c0-0.17,0.18-0.28,0.06-0.42c-0.13-0.11-0.22,0.21-0.38,0.25
					c-0.04-0.16-0.08-0.45-0.14-0.49c-0.23-0.06-0.12,0.6-0.34,0.62c-0.16-0.08-0.37-0.16-0.44,0c-0.04,0.07,0.24,0.2,0.27,0.32
					c-0.15,0.18-0.65,0.23-0.55,0.45c0.1,0.12,0.38-0.11,0.64-0.08c-0.05,0.16-0.23,0.37-0.13,0.53c0.22,0.08,0.29-0.36,0.49-0.46
					c0.16,0.06,0.16,0.4,0.36,0.28c0.11-0.11-0.01-0.25,0.02-0.53C27.2,18.14,27.77,18.23,27.7,17.94"/>
				<path class="st0" d="M44.71,16.91c-0.41-0.61-0.65-1.83-1.09-1.63c-0.36,0.18,0.34,1.19,0.3,1.79
					c-0.05,0.74-0.75,1.18-1.47,1.93c-0.2,0.24,0.01,0.41,0.2,0.38c0.46-0.03,0.86-0.36,1.41-0.53c0.16-0.03,0.57-0.04,0.78,0.19
					c0.32,0.35,0.63,1.38,0.99,1.22c0.42-0.24-0.3-1.12-0.39-1.65c0.31-0.12,0.83,0.11,0.95-0.11c0.24-0.47-0.69-0.55-1.07-0.86
					C45.11,17.46,44.87,17.16,44.71,16.91"/>
				<path class="st0" d="M43.53,17.59c0.58-0.65-0.4-1.61-0.96-1.08C41.9,17.14,42.9,18.29,43.53,17.59"/>
				<path class="st0" d="M29.34,33.54c0.34,0.33,0.51,1.2,0.94,0.92c0.19-0.15-0.09-0.6-0.01-0.92c0.52,0.03,1.43,0.62,1.61,0.18
					c0.11-0.35-0.9-0.53-1.28-0.79c-0.25-0.17-0.28-0.57-0.27-0.72c0.11-0.54,0.37-0.96,0.35-1.41c0-0.17-0.18-0.36-0.39-0.14
					c-0.62,0.77-0.96,1.49-1.66,1.61c-0.55,0.11-1.6-0.45-1.73-0.08c-0.14,0.45,1.04,0.53,1.67,0.85
					C28.83,33.17,29.15,33.35,29.34,33.54"/>
				<path class="st0" d="M27.96,31.05c-0.44,0.6,0.59,1.42,1.13,0.79C29.69,31.16,28.48,30.36,27.96,31.05"/>
				<path class="st0" d="M30.69,5.19c-0.43-0.3-0.77-1.22-1.19-0.84c-0.19,0.19,0.2,0.64,0.17,1C29.1,5.41,28,4.93,27.88,5.44
					c-0.06,0.4,1.08,0.41,1.53,0.64c0.3,0.15,0.4,0.57,0.42,0.74c-0.02,0.61-0.23,1.11-0.13,1.59c0.03,0.19,0.26,0.36,0.45,0.09
					c0.54-0.96,0.79-1.79,1.53-2.06c0.58-0.22,1.83,0.21,1.9-0.22c0.08-0.51-1.24-0.39-1.97-0.62C31.31,5.51,30.93,5.36,30.69,5.19"
					/>
				<path class="st0" d="M32.64,7.67c0.37-0.73-0.89-1.45-1.38-0.66C30.73,7.85,32.19,8.52,32.64,7.67"/>
				<path class="st0" d="M40.84,6.98c0.34-0.36,0.49-1.28,0.95-1c0.21,0.15-0.07,0.64,0.03,0.96c0.54-0.05,1.47-0.7,1.68-0.26
					c0.13,0.37-0.93,0.59-1.3,0.88c-0.26,0.19-0.27,0.6-0.26,0.77c0.12,0.56,0.42,0.99,0.42,1.46c0.01,0.18-0.18,0.38-0.4,0.16
					c-0.68-0.78-1.06-1.52-1.79-1.63c-0.58-0.09-1.66,0.53-1.8,0.15c-0.16-0.46,1.07-0.59,1.72-0.95
					C40.33,7.39,40.65,7.18,40.84,6.98"/>
				<path class="st0" d="M39.49,9.64c-0.48-0.61,0.55-1.5,1.15-0.87C41.3,9.45,40.06,10.34,39.49,9.64"/>
				<path class="st0" d="M25.63,5.02c-0.26,0.1-0.75,0-0.73,0.27c0.02,0.13,0.33,0.09,0.47,0.19c-0.17,0.25-0.72,0.58-0.55,0.77
					c0.14,0.13,0.52-0.34,0.76-0.47c0.16-0.09,0.37-0.02,0.44,0.02c0.25,0.16,0.39,0.39,0.61,0.47c0.09,0.04,0.23-0.02,0.19-0.17
					c-0.22-0.47-0.48-0.8-0.35-1.17c0.11-0.3,0.59-0.35,0.44-0.49c-0.18-0.17-0.46,0.05-0.81,0.3C25.97,4.85,25.78,4.96,25.63,5.02"
					/>
				<path class="st0" d="M27.34,4.97c-0.17-0.35-0.88-0.02-0.73,0.39C26.79,5.81,27.54,5.38,27.34,4.97"/>
				<path class="st0" d="M53.61,14.68c0.35-0.04,0.91,0.28,0.95-0.09c0.01-0.17-0.38-0.24-0.51-0.43c0.26-0.27,1.02-0.5,0.87-0.81
					c-0.15-0.23-0.73,0.25-1.06,0.33c-0.21,0.05-0.45-0.11-0.53-0.19c-0.25-0.32-0.36-0.67-0.62-0.86c-0.1-0.09-0.29-0.07-0.27,0.14
					c0.14,0.72,0.37,1.25,0.12,1.7c-0.21,0.36-1.02,0.68-0.87,0.92c0.17,0.29,0.79-0.33,1.26-0.53
					C53.16,14.79,53.41,14.7,53.61,14.68"/>
				<path class="st0" d="M51.57,14.26c0.12,0.53,1.06,0.35,0.98-0.25C52.45,13.35,51.42,13.64,51.57,14.26"/>
				<path class="st0" d="M28.85,25.3c0.69-0.08,0.51-1.5-0.32-1.12C27.91,24.46,28.28,25.37,28.85,25.3"/>
				<path class="st0" d="M52.18,7.09c-0.02,0.08,0.19,0.18,0.26,0.3c-0.11,0.1-0.31,0.18-0.36,0.29c0,0.19,0.37-0.07,0.54-0.04
					c0.06,0.1,0.01,0.42,0.15,0.33c0.08-0.05,0.08-0.17,0.12-0.25c0.15,0.07,0.28,0.35,0.35,0.29c0.07-0.07-0.13-0.29-0.18-0.43
					c0.08,0.01,0.17,0.02,0.16-0.03c-0.05-0.11-0.23-0.12-0.29-0.13c0.03-0.1,0.04-0.12,0.04-0.17c-0.03-0.14-0.12-0.09-0.24-0.05
					c-0.09-0.11-0.17-0.29-0.26-0.25c-0.07,0.03,0.06,0.18,0.08,0.25C52.43,7.16,52.23,6.98,52.18,7.09"/>
				<path class="st0" d="M56.26,12.94c-0.08,0.06,0.08,0.32,0.07,0.51c-0.18,0.03-0.47-0.03-0.59,0.06
					c-0.13,0.2,0.44,0.19,0.62,0.33c-0.01,0.16-0.28,0.46-0.07,0.46c0.12,0,0.21-0.13,0.3-0.19c0.11,0.17,0.06,0.58,0.18,0.55
					c0.13-0.03,0.06-0.4,0.11-0.59c0.08,0.06,0.16,0.14,0.19,0.08c0.03-0.16-0.17-0.29-0.22-0.33c0.1-0.09,0.13-0.1,0.16-0.15
					c0.07-0.18-0.08-0.19-0.23-0.22c-0.02-0.18,0.02-0.44-0.11-0.46c-0.09-0.01-0.05,0.23-0.08,0.33
					C56.47,13.2,56.38,12.86,56.26,12.94"/>
				<path class="st0" d="M44.76,27.13c0.08-0.74,0.97-0.95,1.4-0.32c0.19,0.28,0.16,0.59,0.07,0.74
					C45.75,28.41,44.7,27.83,44.76,27.13"/>
				<path class="st0" d="M44.4,30.78c-0.23-0.48,0.24-0.95,0.75-0.73c0.22,0.11,0.32,0.31,0.32,0.43
					C45.49,31.2,44.62,31.24,44.4,30.78"/>
				<path class="st0" d="M43.03,28.07c0.22-0.13,0.47-0.3,0.63-0.78c0.06-0.19,0.11-0.64,0.14-0.93c0.04-0.35,0.08-0.68,0.16-0.83
					c0.06-0.12,0.28-0.16,0.35,0.07c0.06,0.21,0.06,0.56,0.06,0.86c0.01,0.28,0.05,0.58,0.12,0.8c0.2,0.62,0.81,0.94,1.33,1.26
					c0.43,0.26,1.1,0.43,0.99,0.71c-0.1,0.26-0.49,0.11-0.67,0.06c-0.37-0.1-0.84-0.29-1.23-0.25c-0.3,0.03-0.71,0.24-0.99,0.55
					c-0.18,0.2-0.3,0.38-0.55,0.81c-0.19,0.32-0.5,1.01-0.87,0.57c-0.17-0.2,0.1-0.73,0.16-0.92c0.1-0.32,0.25-0.55,0.35-0.85
					c0.01-0.03,0.03-0.1-0.09-0.08c-0.32,0.06-0.76,0.18-1.06,0.22c-0.19,0.03-0.62,0.11-0.74-0.08c-0.24-0.39,0.58-0.62,0.84-0.71
					C42.2,28.45,42.74,28.24,43.03,28.07"/>
				<path class="st0" d="M31.15,25.53c-0.14-0.55,0.45-0.95,0.93-0.61c0.21,0.16,0.28,0.39,0.25,0.52
					C32.21,26.2,31.29,26.07,31.15,25.53"/>
				<path class="st0" d="M30.14,26.69c0.12-0.15,0.26-0.35,0.24-0.74c-0.01-0.16-0.09-0.5-0.15-0.71c-0.06-0.26-0.12-0.52-0.11-0.64
					c0.01-0.1,0.16-0.19,0.27-0.05c0.1,0.13,0.19,0.39,0.28,0.61c0.08,0.2,0.19,0.41,0.3,0.55c0.31,0.4,0.84,0.47,1.31,0.56
					c0.38,0.07,0.91,0.02,0.91,0.24c0,0.21-0.33,0.22-0.48,0.23c-0.3,0.02-0.68,0.01-0.96,0.14c-0.2,0.1-0.45,0.37-0.57,0.66
					c-0.08,0.19-0.12,0.36-0.18,0.74c-0.04,0.28-0.09,0.86-0.47,0.65c-0.18-0.1-0.12-0.56-0.13-0.71c-0.02-0.26,0.03-0.47,0.03-0.71
					c0-0.03-0.01-0.08-0.08-0.04c-0.22,0.13-0.51,0.33-0.71,0.45c-0.13,0.08-0.42,0.25-0.56,0.14c-0.28-0.22,0.26-0.61,0.41-0.75
					C29.65,27.19,29.98,26.89,30.14,26.69"/>
				<path class="st0" d="M38.3,28.94c0.28,0.51-0.19,1.05-0.76,0.84c-0.25-0.1-0.38-0.32-0.39-0.44
					C37.08,28.55,38.02,28.45,38.3,28.94"/>
				<path class="st0" d="M38.99,27.54c-0.09,0.18-0.17,0.41-0.05,0.79c0.05,0.15,0.22,0.47,0.33,0.67c0.13,0.25,0.26,0.48,0.28,0.61
					c0.01,0.1-0.11,0.24-0.26,0.12c-0.14-0.11-0.29-0.33-0.44-0.53c-0.13-0.18-0.29-0.35-0.44-0.46c-0.41-0.31-0.95-0.24-1.44-0.21
					c-0.4,0.03-0.9,0.22-0.97-0.01c-0.05-0.21,0.27-0.3,0.41-0.34c0.29-0.11,0.68-0.19,0.91-0.39c0.18-0.16,0.35-0.48,0.39-0.81
					c0.03-0.21,0.03-0.38-0.01-0.78c-0.03-0.29-0.14-0.88,0.3-0.77c0.2,0.05,0.27,0.52,0.32,0.67c0.09,0.25,0.09,0.46,0.16,0.71
					c0.01,0.03,0.02,0.07,0.09,0.01c0.19-0.19,0.42-0.46,0.59-0.63c0.11-0.1,0.36-0.36,0.51-0.28c0.33,0.15-0.1,0.66-0.22,0.84
					C39.34,26.92,39.1,27.3,38.99,27.54"/>
				<path class="st0" d="M32.1,20.18c0.53-0.81,1.69-0.52,1.81,0.47c0.06,0.45-0.17,0.79-0.36,0.91
					C32.47,22.27,31.6,20.96,32.1,20.18"/>
				<path class="st0" d="M29.51,20.23c0.33-0.02,0.73-0.07,1.2-0.54c0.19-0.18,0.52-0.68,0.73-0.99c0.26-0.38,0.51-0.74,0.68-0.87
					c0.14-0.09,0.42-0.02,0.37,0.29c-0.05,0.28-0.27,0.68-0.45,1.05c-0.15,0.33-0.28,0.7-0.34,1c-0.15,0.84,0.37,1.59,0.79,2.27
					c0.35,0.56,1.02,1.16,0.73,1.42c-0.27,0.24-0.64-0.16-0.82-0.34c-0.37-0.35-0.8-0.84-1.28-1.04c-0.36-0.14-0.97-0.15-1.48,0.05
					c-0.33,0.12-0.58,0.25-1.13,0.61c-0.41,0.26-1.19,0.87-1.36,0.14c-0.08-0.33,0.56-0.79,0.74-0.97c0.31-0.31,0.62-0.49,0.93-0.77
					c0.03-0.03,0.09-0.09-0.06-0.14c-0.41-0.13-0.99-0.26-1.36-0.39c-0.24-0.08-0.8-0.25-0.81-0.54c-0.04-0.6,1.06-0.36,1.41-0.33
					C28.32,20.18,29.07,20.25,29.51,20.23"/>
				<path class="st0" d="M45.38,34.19c0.54,0.01,0.69,0.62,0.22,1.03c-0.21,0.18-0.44,0.18-0.55,0.11
					C44.42,34.99,44.86,34.18,45.38,34.19"/>
				<path class="st0" d="M44.92,33.14c0.12,0.18,0.26,0.16,0.38,0.17c0.17,0.02,0.37,0.04,0.62,0.06c0.3,0.03,0.4,0.05,0.52,0.11
					c0.1,0.04,0.15,0.23-0.04,0.29c-0.17,0.06-0.29,0.07-0.55,0.08c-0.24,0.02-0.35,0.07-0.54,0.13c-0.51,0.18-0.8,0.61-1.02,1.17
					c-0.15,0.39-0.32,0.94-0.56,0.86c-0.22-0.07-0.11-0.41-0.07-0.57c0.07-0.31,0.29-0.69,0.25-1.04c-0.02-0.24-0.03-0.25-0.23-0.46
					c-0.16-0.16-0.33-0.24-0.7-0.44c-0.28-0.14-0.87-0.38-0.51-0.71c0.16-0.16,0.62,0.06,0.78,0.1c0.28,0.07,0.47,0.19,0.72,0.27
					c0.03,0.01,0.08,0.02,0.06-0.07c-0.06-0.27-0.17-0.64-0.22-0.89c-0.03-0.16-0.11-0.52,0.05-0.63c0.32-0.21,0.54,0.47,0.63,0.68
					C44.57,32.46,44.77,32.9,44.92,33.14"/>
				<path class="st0" d="M53.03,19.09c0.36-0.15,0.33-0.63-0.05-0.75c-0.17-0.05-0.32,0.01-0.38,0.08
					C52.23,18.79,52.69,19.23,53.03,19.09"/>
				<path class="st0" d="M52.81,20.1c0.03-0.14,0.08-0.29,0.3-0.43c0.09-0.06,0.31-0.15,0.45-0.21c0.17-0.07,0.33-0.14,0.39-0.2
					c0.05-0.05,0.04-0.16-0.09-0.16c-0.11-0.01-0.29,0.05-0.44,0.09c-0.14,0.04-0.29,0.07-0.41,0.06c-0.34,0-0.6-0.26-0.83-0.48
					c-0.19-0.18-0.38-0.49-0.5-0.39c-0.11,0.09,0.02,0.26,0.07,0.35c0.11,0.17,0.27,0.37,0.31,0.58c0.03,0.15-0.01,0.39-0.12,0.57
					c-0.08,0.12-0.15,0.21-0.33,0.4c-0.14,0.14-0.43,0.4-0.16,0.52c0.13,0.06,0.35-0.16,0.43-0.22c0.15-0.1,0.24-0.21,0.37-0.31
					c0.02-0.01,0.05-0.02,0.05,0.03c0.02,0.17,0.03,0.41,0.05,0.57c0.01,0.1,0.04,0.32,0.15,0.35c0.23,0.06,0.22-0.39,0.24-0.53
					C52.75,20.57,52.77,20.26,52.81,20.1"/>
				<path class="st0" d="M27.99,10.21c0.51-0.49,0.14-1.28-0.58-1.23c-0.32,0.02-0.54,0.23-0.6,0.38
					C26.45,10.24,27.51,10.68,27.99,10.21"/>
				<path class="st0" d="M28.3,12.06c-0.04-0.24-0.05-0.53,0.22-0.93c0.11-0.16,0.42-0.46,0.61-0.65c0.23-0.24,0.46-0.46,0.52-0.6
					c0.06-0.12-0.04-0.31-0.25-0.22c-0.19,0.07-0.45,0.28-0.68,0.46c-0.21,0.15-0.45,0.3-0.67,0.38c-0.58,0.22-1.18-0.04-1.72-0.26
					c-0.44-0.17-0.96-0.56-1.1-0.32c-0.13,0.22,0.2,0.43,0.36,0.53c0.29,0.22,0.71,0.45,0.91,0.77c0.15,0.23,0.24,0.67,0.17,1.05
					c-0.04,0.25-0.1,0.45-0.28,0.88c-0.13,0.33-0.46,0.96,0.08,0.99c0.25,0.01,0.49-0.5,0.59-0.66c0.18-0.27,0.26-0.51,0.42-0.76
					c0.02-0.03,0.06-0.07,0.11,0.02c0.14,0.27,0.32,0.67,0.46,0.92c0.09,0.15,0.29,0.52,0.5,0.5c0.43-0.05,0.12-0.8,0.04-1.04
					C28.5,12.9,28.35,12.38,28.3,12.06"/>
				<path class="st0" d="M56.21,16.06c0.41-0.35,0.18-0.95-0.36-0.93c-0.24,0.01-0.41,0.16-0.47,0.27
					C55.06,16.03,55.82,16.38,56.21,16.06"/>
				<path class="st0" d="M56.33,17.44c0-0.18,0-0.4,0.22-0.69c0.09-0.11,0.13-0.19,0.29-0.32c0.19-0.17,0.27-0.27,0.33-0.37
					c0.05-0.08-0.01-0.23-0.17-0.17c-0.15,0.05-0.26,0.14-0.44,0.26c-0.17,0.11-0.3,0.14-0.47,0.18c-0.46,0.11-0.71-0.13-1.1-0.3
					c-0.32-0.14-0.68-0.45-0.81-0.27c-0.11,0.16,0.13,0.32,0.23,0.41c0.2,0.17,0.5,0.35,0.63,0.6c0.1,0.18,0.14,0.51,0.06,0.79
					c-0.04,0.18-0.1,0.33-0.27,0.65c-0.11,0.24-0.39,0.7,0,0.73c0.19,0.02,0.4-0.36,0.48-0.47c0.15-0.19,0.23-0.36,0.36-0.55
					c0.02-0.02,0.04-0.06,0.08,0.02c0.09,0.21,0.2,0.51,0.29,0.7c0.06,0.12,0.18,0.4,0.34,0.39c0.33-0.03,0.14-0.59,0.1-0.77
					C56.42,18.06,56.34,17.67,56.33,17.44"/>
				<path class="st0" d="M20.99,21.32c-0.57-0.22-0.56-0.95,0.03-1.14c0.26-0.08,0.51,0.01,0.61,0.11
					C22.22,20.86,21.54,21.54,20.99,21.32"/>
				<path class="st0" d="M21.39,22.87c-0.06-0.2-0.14-0.43-0.5-0.66c-0.14-0.09-0.22-0.15-0.44-0.24c-0.27-0.11-0.4-0.19-0.5-0.28
					c-0.08-0.07-0.07-0.24,0.13-0.25c0.17-0.01,0.33,0.05,0.57,0.11c0.23,0.06,0.37,0.04,0.58,0.02c0.53-0.05,0.72-0.42,1.08-0.75
					c0.29-0.28,0.56-0.75,0.76-0.6c0.19,0.12-0.01,0.4-0.09,0.53c-0.16,0.26-0.4,0.57-0.45,0.88c-0.04,0.23,0.04,0.6,0.23,0.88
					c0.12,0.18,0.24,0.32,0.54,0.6c0.22,0.21,0.7,0.6,0.28,0.79c-0.19,0.09-0.56-0.24-0.7-0.33c-0.24-0.15-0.39-0.31-0.6-0.46
					c-0.02-0.02-0.07-0.05-0.08,0.05c-0.02,0.26-0.02,0.62-0.04,0.86c-0.01,0.15-0.04,0.5-0.21,0.55c-0.36,0.1-0.38-0.59-0.4-0.8
					C21.53,23.58,21.47,23.13,21.39,22.87"/>
				<path class="st0" d="M34.21,7.33c-0.3-0.22-0.59-0.02-0.48,0.31c0.05,0.15,0.13,0.2,0.21,0.22C34.4,8,34.49,7.54,34.21,7.33"/>
				<path class="st0" d="M35.31,7.89c-0.12-0.06-0.24-0.15-0.37-0.37c-0.05-0.09-0.04-0.1-0.08-0.21c-0.07-0.17-0.06-0.19-0.1-0.27
					c-0.03-0.06-0.14-0.08-0.17,0.04c-0.03,0.11-0.03,0.12-0.05,0.29c-0.01,0.15-0.02,0.3-0.11,0.42c-0.2,0.27-0.18,0.2-0.46,0.35
					c-0.22,0.11-0.55,0.21-0.48,0.35c0.06,0.13,0.24,0.04,0.33,0.01c0.18-0.06,0.4-0.18,0.6-0.16c0.14,0.01,0.36,0.11,0.5,0.26
					c0.1,0.1,0.16,0.18,0.31,0.4c0.1,0.16,0.27,0.51,0.45,0.27c0.08-0.1-0.07-0.38-0.11-0.47c-0.07-0.16-0.14-0.28-0.2-0.42
					c0-0.02-0.02-0.05,0.04-0.05c0.16,0.02,0.3,0.13,0.46,0.19c0.09,0.03,0.29,0.08,0.35-0.01c0.1-0.12-0.24-0.3-0.38-0.37
					C35.73,8.1,35.46,7.97,35.31,7.89"/>
				<path class="st0" d="M46.93,4.47c0.49-0.16,0.79,0.23,0.49,0.63c-0.13,0.18-0.26,0.21-0.37,0.2
					C46.36,5.27,46.46,4.62,46.93,4.47"/>
				<path class="st0" d="M45.12,4.74c0.18-0.03,0.33,0.01,0.63-0.18c0.12-0.08,0.13-0.1,0.23-0.22c0.17-0.19,0.17-0.23,0.26-0.31
					c0.07-0.06,0.22-0.03,0.2,0.14c-0.01,0.15-0.02,0.17-0.07,0.4c-0.04,0.2-0.03,0.28-0.01,0.42c0.05,0.32,0.14,0.36,0.46,0.63
					c0.27,0.22,0.67,0.45,0.53,0.61c-0.13,0.15-0.34-0.05-0.45-0.13c-0.21-0.16-0.44-0.3-0.71-0.38c-0.19-0.06-0.52-0.02-0.78,0.11
					c-0.17,0.08-0.3,0.17-0.58,0.4c-0.21,0.16-0.6,0.54-0.72,0.15c-0.05-0.18,0.26-0.47,0.36-0.57c0.17-0.17,0.31-0.3,0.46-0.47
					c0.02-0.02,0.04-0.06-0.04-0.08c-0.22-0.04-0.46,0.04-0.69,0.04c-0.13,0.01-0.42-0.02-0.47-0.17c-0.07-0.21,0.45-0.28,0.68-0.32
					C44.59,4.78,44.88,4.78,45.12,4.74"/>
				<path class="st0" d="M50.57,27.05c0.31,1.04,1.66,1.1,2.1,0.07c0.2-0.46,0.06-0.91-0.1-1.09
					C51.62,24.92,50.27,26.06,50.57,27.05"/>
				<path class="st0" d="M48.71,22.1c0.32,1.05,1.66,1.1,2.1,0.07c0.2-0.46,0.06-0.91-0.1-1.09C49.76,19.98,48.41,21.11,48.71,22.1"
					/>
				<path class="st0" d="M47.81,26.18c0.36,0.12,0.77,0.31,1.12,0.95c0.14,0.26,0.33,0.9,0.46,1.3c0.16,0.49,0.31,0.96,0.46,1.14
					c0.11,0.15,0.44,0.15,0.49-0.19c0.04-0.31-0.07-0.82-0.14-1.26c-0.07-0.4-0.09-0.84-0.05-1.18c0.11-0.95,0.9-1.59,1.57-2.18
					c0.55-0.49,1.46-0.92,1.23-1.29c-0.21-0.34-0.74-0.02-0.99,0.1c-0.51,0.25-1.12,0.66-1.71,0.71c-0.42,0.04-1.08-0.15-1.56-0.52
					c-0.31-0.23-0.54-0.46-1.02-1.01c-0.35-0.41-0.99-1.31-1.41-0.58c-0.19,0.33,0.35,1.03,0.48,1.28c0.23,0.44,0.51,0.72,0.75,1.12
					c0.03,0.05,0.06,0.13-0.1,0.14c-0.48,0-1.15-0.03-1.59-0.02c-0.29,0-0.93,0.01-1.04,0.32c-0.23,0.63,1.01,0.73,1.4,0.8
					C46.52,25.86,47.34,26.02,47.81,26.18"/>
				<path class="st0" d="M24.31,28.41c-0.22,0.75-1.2,0.79-1.51,0.05c-0.15-0.33-0.05-0.65,0.07-0.79
					C23.55,26.87,24.52,27.69,24.31,28.41"/>
				<path class="st0" d="M25.65,24.84c-0.23,0.75-1.2,0.79-1.52,0.05c-0.15-0.33-0.04-0.65,0.07-0.79
					C24.89,23.3,25.87,24.12,25.65,24.84"/>
				<path class="st0" d="M26.31,27.78c-0.26,0.09-0.56,0.22-0.81,0.69c-0.1,0.18-0.24,0.65-0.33,0.93
					c-0.12,0.35-0.22,0.69-0.33,0.83c-0.09,0.11-0.32,0.11-0.35-0.14c-0.02-0.23,0.06-0.59,0.1-0.91c0.05-0.29,0.07-0.6,0.04-0.85
					c-0.07-0.69-0.65-1.14-1.13-1.58c-0.4-0.35-1.06-0.66-0.89-0.93c0.15-0.25,0.53-0.02,0.71,0.07c0.36,0.18,0.81,0.48,1.23,0.52
					c0.31,0.02,0.79-0.11,1.13-0.38c0.22-0.17,0.39-0.33,0.73-0.73c0.26-0.3,0.72-0.95,1.02-0.42c0.14,0.24-0.26,0.74-0.35,0.92
					c-0.16,0.31-0.36,0.52-0.54,0.8c-0.02,0.04-0.05,0.1,0.07,0.1c0.35,0,0.83-0.03,1.15-0.02c0.21,0.01,0.67,0.01,0.75,0.24
					c0.16,0.45-0.73,0.53-1.01,0.57C27.23,27.55,26.64,27.67,26.31,27.78"/>
				<path class="st0" d="M21.52,16.2c-0.15,1.22-1.18,3.03-0.4,3.26c0.66,0.18,0.87-1.89,1.56-2.6c0.87-0.89,2.25-0.69,3.98-0.84
					c0.52-0.09,0.43-0.54,0.17-0.71c-0.61-0.46-1.49-0.48-2.39-0.87c-0.23-0.14-0.77-0.57-0.78-1.1c-0.03-0.8,0.71-2.45,0.08-2.63
					c-0.81-0.16-0.85,1.74-1.31,2.53c-0.53-0.18-0.93-1.04-1.32-0.89c-0.83,0.34,0.27,1.44,0.42,2.26
					C21.61,15.06,21.57,15.7,21.52,16.2"/>
				<path class="st0" d="M18.7,13.38c0.13,0.06,0.22-0.22,0.28-0.01c-0.06,0.16-0.11,0.34-0.12,0.56c0.29-0.05,0.19-0.45,0.4-0.57
					c0.07,0.11,0.17,0.26,0.29,0.13c0.02-0.17-0.02-0.27-0.08-0.35c0.16-0.12,0.53-0.04,0.55-0.3c-0.11-0.08-0.29-0.08-0.36-0.2
					c0.02-0.23,0.26-0.26,0.26-0.5c-0.22-0.02-0.37,0.37-0.48,0.23c0.06-0.04,0.17-0.42-0.08-0.34c-0.07,0.37-0.17,0.57-0.61,0.45
					c-0.03,0.27,0.19,0.28,0.23,0.48C18.88,13.1,18.71,13.16,18.7,13.38"/>
				<path class="st0" d="M20.61,14.3c-1.74-0.71-2.11,2.44-0.88,2.59C20.9,17.03,21.54,14.91,20.61,14.3"/>
				<path class="st0" d="M23.76,16.62c-1.45,0.19-1.25,2.49,0.05,2.43C25.33,18.97,25.33,16.41,23.76,16.62"/>
				<line class="st0" x1="18.47" y1="18.59" x2="18.47" y2="18.39"/>
				<line class="st0" x1="57.3" y1="18.59" x2="57.3" y2="18.39"/>
			</g>
		</g>
		<g>
			<path class="st0" d="M67.75,15.49c0.31-1.74,1.35-2.08,2.19-2.08c1.66,0,2.03,0.96,2.87,3.58L74.43,22h0.04l1.62-5.01
				c0.84-2.62,1.21-3.58,2.86-3.58c0.84,0,1.88,0.34,2.19,2.08l1.31,7.49C82.72,24.5,83,26.15,83,26.65c0,0.73-0.57,1.58-1.55,1.58
				c-1.5,0-1.76-1.07-1.92-2.19l-0.98-6.47H78.5l-2.23,7.17c-0.33,1.06-0.82,1.49-1.82,1.49c-1,0-1.49-0.43-1.82-1.49l-2.23-7.17
				h-0.04l-0.99,6.47c-0.16,1.12-0.43,2.19-1.92,2.19c-0.98,0-1.55-0.84-1.55-1.58c0-0.49,0.29-2.15,0.55-3.67L67.75,15.49z"/>
			<path class="st0" d="M87.06,23.7c0,0.68,0.51,1.78,2.56,1.78c1.58,0,2.54-1.01,3.27-1.01c0.72,0,1.33,0.56,1.33,1.37
				c0,1.56-2.6,2.58-5.02,2.58c-3.44,0-5.59-2.56-5.59-5.77c0-3.07,2.31-5.77,5.59-5.77c3.15,0,5.18,2.64,5.18,5.42
				c0,1.13-0.53,1.4-1.55,1.4H87.06z M91.19,21.51c0-0.71-0.82-1.92-2.07-1.92c-1.25,0-2.07,1.21-2.07,1.92H91.19z"/>
			<path class="st0" d="M105.99,27.03c0,4.07-2.66,5.61-5.79,5.61c-1.65,0-4.77-0.63-4.77-2.37c0-0.72,0.69-1.39,1.33-1.39
				c0.92,0,1.51,0.94,3.38,0.94c1.98,0,2.66-1.05,2.66-2.83h-0.04c-0.69,0.98-1.84,1.23-2.9,1.23c-3.09,0-4.63-2.68-4.63-5.57
				c0-3.22,2.15-5.77,4.93-5.77c1.21,0,2.03,0.35,2.74,1.23c0.23-0.49,0.72-1.03,1.5-1.03c0.94,0,1.6,0.73,1.6,1.66V27.03z
				 M100.61,19.95c-1.41,0-2.19,1.23-2.19,2.7c0,1.55,0.78,2.74,2.19,2.74c1.41,0,2.19-1.18,2.19-2.74
				C102.8,21.18,102.02,19.95,100.61,19.95"/>
			<path class="st0" d="M118.07,26.56c0,0.92-0.65,1.66-1.59,1.66c-0.78,0-1.27-0.53-1.5-1.03c-0.71,0.88-1.53,1.23-2.74,1.23
				c-2.78,0-4.93-2.56-4.93-5.77c0-3.22,2.15-5.77,4.93-5.77c1.21,0,2.03,0.35,2.74,1.23c0.23-0.49,0.72-1.03,1.5-1.03
				c0.94,0,1.59,0.73,1.59,1.66V26.56z M110.5,22.65c0,1.47,0.78,2.7,2.19,2.7c1.41,0,2.19-1.22,2.19-2.7c0-1.47-0.77-2.7-2.19-2.7
				C111.28,19.95,110.5,21.18,110.5,22.65"/>
			<path class="st0" d="M119.54,15.18c0-1.07,0.8-1.66,1.67-1.66h4.07c2.56,0,4.99,1.66,4.99,4.95c0,2.84-1.74,4.93-4.89,4.93h-2.51
				v3.05c0,1.17-0.7,1.76-1.65,1.76c-0.97,0-1.67-0.6-1.67-1.76V15.18z M122.86,20.46h1.78c1.41,0,2.19-0.96,2.19-1.99
				c0-1.31-0.88-2.01-2.19-2.01h-1.78V20.46z"/>
			<path class="st0" d="M131.35,13.99c0-0.92,0.66-1.66,1.6-1.66c0.94,0,1.59,0.74,1.59,1.66v12.57c0,0.92-0.65,1.66-1.59,1.66
				c-0.95,0-1.6-0.74-1.6-1.66V13.99z"/>
			<path class="st0" d="M146.37,26.56c0,0.92-0.65,1.66-1.59,1.66c-0.78,0-1.28-0.53-1.5-1.03c-0.72,0.88-1.53,1.23-2.74,1.23
				c-2.78,0-4.93-2.56-4.93-5.77c0-3.22,2.15-5.77,4.93-5.77c1.21,0,2.03,0.35,2.74,1.23c0.22-0.49,0.72-1.03,1.5-1.03
				c0.94,0,1.59,0.73,1.59,1.66V26.56z M138.8,22.65c0,1.47,0.78,2.7,2.2,2.7c1.41,0,2.18-1.22,2.18-2.7c0-1.47-0.78-2.7-2.18-2.7
				C139.58,19.95,138.8,21.18,138.8,22.65"/>
			<path class="st0" d="M151.88,20.16h-2.8c-1.02,0-1.68-0.45-1.68-1.48c0-1.02,0.65-1.47,1.68-1.47h6.14c0.59,0,0.9,0.08,1.21,0.39
				c0.2,0.2,0.28,0.47,0.28,0.76c0,0.29-0.14,0.55-0.41,0.92l-4.38,5.87h3.38c1.02,0,1.68,0.45,1.68,1.48
				c0,1.02-0.66,1.47-1.68,1.47h-6.47c-0.59,0-0.78-0.06-1.06-0.23c-0.41-0.27-0.47-0.7-0.47-0.9c0-0.24,0.02-0.53,0.5-1.18
				L151.88,20.16z"/>
			<path class="st0" d="M167.76,26.56c0,0.92-0.66,1.66-1.6,1.66c-0.78,0-1.27-0.53-1.5-1.03c-0.71,0.88-1.54,1.23-2.74,1.23
				c-2.79,0-4.93-2.56-4.93-5.77c0-3.22,2.14-5.77,4.93-5.77c1.2,0,2.02,0.35,2.74,1.23c0.23-0.49,0.72-1.03,1.5-1.03
				c0.94,0,1.6,0.73,1.6,1.66V26.56z M160.19,22.65c0,1.47,0.78,2.7,2.19,2.7c1.41,0,2.19-1.22,2.19-2.7c0-1.47-0.78-2.7-2.19-2.7
				C160.97,19.95,160.19,21.18,160.19,22.65"/>
			<line class="st0" x1="167.84" y1="26.73" x2="167.84" y2="26.93"/>
			<line class="st0" x1="65.74" y1="26.73" x2="65.74" y2="26.93"/>
		</g>
	</g>
</g>
</svg>
