<?xml version="1.0" encoding="utf-8"?>
<!-- Generator: Adobe Illustrator 25.4.1, SVG Export Plug-In . SVG Version: 6.00 Build 0)  -->
<svg version="1.1" id="Capa_1" xmlns="http://www.w3.org/2000/svg" xmlns:xlink="http://www.w3.org/1999/xlink" x="0px" y="0px"
	 viewBox="0 0 185 50" style="enable-background:new 0 0 185 50;" xml:space="preserve">
<style type="text/css">
	.st0{fill:#FFFFFF;}
	.st1{fill-rule:evenodd;clip-rule:evenodd;fill:#FFFFFF;}
	.st2{font-family:'WorkSans-Medium';}
	.st3{font-size:10.6761px;}
</style>
<g>
	<g>
		<g>
			<path class="st0" d="M67.74,16.06c0.3-1.68,1.3-2.01,2.11-2.01c1.6,0,1.95,0.92,2.77,3.44l1.55,4.83h0.04l1.56-4.83
				c0.81-2.52,1.16-3.44,2.76-3.44c0.81,0,1.81,0.33,2.11,2.01l1.26,7.22c0.26,1.46,0.53,3.06,0.53,3.53c0,0.71-0.55,1.52-1.49,1.52
				c-1.44,0-1.7-1.03-1.85-2.11l-0.95-6.24h-0.04l-2.15,6.9c-0.32,1.02-0.79,1.44-1.76,1.44c-0.97,0-1.44-0.42-1.75-1.44l-2.15-6.9
				h-0.04l-0.95,6.24c-0.15,1.08-0.41,2.11-1.85,2.11c-0.94,0-1.5-0.81-1.5-1.52c0-0.47,0.28-2.07,0.53-3.53L67.74,16.06z"/>
			<path class="st0" d="M86.33,23.97c0,0.65,0.49,1.72,2.47,1.72c1.52,0,2.44-0.97,3.15-0.97c0.69,0,1.28,0.54,1.28,1.32
				c0,1.5-2.51,2.49-4.83,2.49c-3.31,0-5.38-2.47-5.38-5.56c0-2.96,2.23-5.56,5.38-5.56c3.04,0,4.99,2.54,4.99,5.22
				c0,1.09-0.51,1.34-1.5,1.34H86.33z M90.32,21.86c0-0.69-0.79-1.85-1.99-1.85c-1.2,0-1.99,1.16-1.99,1.85H90.32z"/>
			<path class="st0" d="M104.57,27.18c0,3.92-2.57,5.4-5.58,5.4c-1.59,0-4.59-0.61-4.59-2.29c0-0.69,0.67-1.34,1.28-1.34
				c0.89,0,1.46,0.91,3.26,0.91c1.91,0,2.56-1.01,2.56-2.72h-0.04c-0.67,0.95-1.77,1.18-2.8,1.18c-2.98,0-4.46-2.58-4.46-5.36
				c0-3.1,2.08-5.56,4.75-5.56c1.17,0,1.95,0.34,2.64,1.19c0.22-0.48,0.69-0.99,1.44-0.99c0.91,0,1.54,0.71,1.54,1.6V27.18z
				 M99.39,20.36c-1.36,0-2.11,1.18-2.11,2.6c0,1.5,0.75,2.64,2.11,2.64c1.36,0,2.11-1.14,2.11-2.64
				C101.5,21.54,100.75,20.36,99.39,20.36"/>
			<path class="st0" d="M116.22,26.73c0,0.89-0.63,1.6-1.54,1.6c-0.75,0-1.22-0.51-1.44-0.99c-0.69,0.85-1.48,1.19-2.64,1.19
				c-2.68,0-4.75-2.47-4.75-5.56c0-3.1,2.07-5.56,4.75-5.56c1.16,0,1.95,0.34,2.64,1.19c0.22-0.48,0.69-0.99,1.44-0.99
				c0.9,0,1.54,0.71,1.54,1.6V26.73z M108.92,22.96c0,1.42,0.75,2.6,2.11,2.6c1.36,0,2.11-1.18,2.11-2.6c0-1.42-0.75-2.6-2.11-2.6
				C109.67,20.36,108.92,21.54,108.92,22.96"/>
			<path class="st0" d="M117.63,15.77c0-1.03,0.77-1.6,1.61-1.6h3.92c2.47,0,4.81,1.6,4.81,4.77c0,2.74-1.67,4.75-4.71,4.75h-2.42
				v2.94c0,1.12-0.67,1.7-1.59,1.7c-0.93,0-1.61-0.57-1.61-1.7V15.77z M120.83,20.85h1.72c1.36,0,2.11-0.93,2.11-1.92
				c0-1.26-0.85-1.93-2.11-1.93h-1.72V20.85z"/>
			<path class="st0" d="M129.01,14.62c0-0.89,0.63-1.6,1.54-1.6c0.9,0,1.53,0.71,1.53,1.6v12.11c0,0.89-0.63,1.6-1.53,1.6
				c-0.91,0-1.54-0.71-1.54-1.6V14.62z"/>
			<path class="st0" d="M143.48,26.73c0,0.89-0.63,1.6-1.53,1.6c-0.75,0-1.23-0.51-1.44-0.99c-0.69,0.85-1.48,1.19-2.64,1.19
				c-2.68,0-4.75-2.47-4.75-5.56c0-3.1,2.07-5.56,4.75-5.56c1.17,0,1.95,0.34,2.64,1.19c0.21-0.48,0.69-0.99,1.44-0.99
				c0.9,0,1.53,0.71,1.53,1.6V26.73z M136.18,22.96c0,1.42,0.75,2.6,2.12,2.6c1.36,0,2.1-1.18,2.1-2.6c0-1.42-0.75-2.6-2.1-2.6
				C136.93,20.36,136.18,21.54,136.18,22.96"/>
			<path class="st0" d="M148.78,20.56h-2.7c-0.99,0-1.62-0.43-1.62-1.42c0-0.98,0.63-1.42,1.62-1.42H152c0.57,0,0.87,0.08,1.16,0.38
				c0.19,0.19,0.27,0.45,0.27,0.73c0,0.28-0.14,0.53-0.4,0.89l-4.22,5.66h3.25c0.99,0,1.62,0.44,1.62,1.42
				c0,0.98-0.63,1.42-1.62,1.42h-6.23c-0.57,0-0.75-0.06-1.02-0.22c-0.39-0.26-0.46-0.67-0.46-0.87c0-0.23,0.02-0.51,0.48-1.14
				L148.78,20.56z"/>
			<path class="st0" d="M164.09,26.73c0,0.89-0.63,1.6-1.54,1.6c-0.75,0-1.22-0.51-1.44-0.99c-0.69,0.85-1.48,1.19-2.64,1.19
				c-2.69,0-4.75-2.47-4.75-5.56c0-3.1,2.07-5.56,4.75-5.56c1.16,0,1.95,0.34,2.64,1.19c0.22-0.48,0.69-0.99,1.44-0.99
				c0.91,0,1.54,0.71,1.54,1.6V26.73z M156.79,22.96c0,1.42,0.75,2.6,2.11,2.6c1.36,0,2.11-1.18,2.11-2.6c0-1.42-0.75-2.6-2.11-2.6
				C157.54,20.36,156.79,21.54,156.79,22.96"/>
			<line class="st0" x1="164.16" y1="26.89" x2="164.16" y2="27.09"/>
			<line class="st0" x1="65.8" y1="26.89" x2="65.8" y2="27.09"/>
		</g>
		<g>
			<path class="st1" d="M49.28,7.45c-0.91-0.27-0.33,1.12-0.63,1.84c-0.7-0.25-1.81-1.48-2.2-0.84c-0.22,0.43,0.87,1.17,1.26,1.62
				c-1,0.09-2.86-0.27-2.9,0.38c-0.13,0.83,2.3,0.71,3.2,1.09c0.09,0.12-1.19,1.35-1.03,2.15c0.06,0.25,0.27,0.45,0.61,0.44
				c0.72-0.02,1.43-1.49,1.84-1.59c0.45,0.65,0.49,2.31,1.34,2.24c0.65-0.07,0.19-1.7,0.25-2.28c0.86,0.15,2.26,0.87,2.46,0.55
				c0.5-0.77-1.76-1.6-2.27-2.07c0.18-0.35,0.62-0.8,0.74-1.22c0.09-0.32-0.18-0.71-0.54-0.57c-0.38,0.09-0.89,0.43-1.27,0.52
				C49.85,9.1,49.9,7.62,49.28,7.45"/>
			<path class="st1" d="M40.36,14.72c1.56-1.76,0.13-4.3-2.26-3.95c-1.07,0.16-1.74,0.92-1.9,1.42
				C35.25,15.21,38.87,16.4,40.36,14.72"/>
			<path class="st1" d="M41.9,20.81c-0.17-0.79-0.32-1.76,0.47-3.15c0.31-0.56,1.28-1.64,1.86-2.33c0.73-0.86,1.41-1.66,1.59-2.15
				c0.14-0.39-0.22-1-0.91-0.68c-0.63,0.29-1.42,1.07-2.16,1.7c-0.67,0.57-1.45,1.12-2.12,1.44c-1.87,0.88-3.94,0.15-5.81-0.41
				c-1.53-0.45-3.35-1.63-3.77-0.79c-0.39,0.78,0.79,1.39,1.31,1.7c1.04,0.64,2.49,1.31,3.25,2.32c0.56,0.74,0.97,2.17,0.84,3.47
				c-0.08,0.84-0.23,1.53-0.71,3.03c-0.35,1.12-1.27,3.32,0.53,3.26c0.84-0.03,1.49-1.81,1.81-2.34c0.53-0.93,0.74-1.76,1.2-2.65
				c0.05-0.1,0.17-0.27,0.36,0.03c0.56,0.89,1.25,2.16,1.77,2.95c0.34,0.51,1.09,1.69,1.78,1.54c1.42-0.3,0.19-2.7-0.13-3.49
				C42.77,23.55,42.13,21.85,41.9,20.81"/>
			<path class="st0" d="M39.84,32.89c0.5-1-0.47-1.99-1.52-1.54c-0.47,0.21-0.69,0.63-0.7,0.89C37.54,33.74,39.36,33.84,39.84,32.89
				"/>
			<path class="st0" d="M41.25,35.66c-0.18-0.34-0.37-0.77-0.17-1.51c0.07-0.3,0.38-0.91,0.57-1.31c0.22-0.48,0.44-0.93,0.46-1.18
				c0.02-0.19-0.22-0.43-0.5-0.2c-0.25,0.22-0.52,0.67-0.78,1.05c-0.24,0.35-0.52,0.69-0.8,0.92c-0.75,0.63-1.8,0.56-2.72,0.53
				c-0.76-0.02-1.74-0.33-1.83,0.1c-0.08,0.41,0.54,0.54,0.81,0.62c0.56,0.17,1.31,0.3,1.78,0.67c0.35,0.27,0.71,0.88,0.81,1.5
				c0.07,0.39,0.08,0.72,0.1,1.47c0.01,0.56-0.02,1.77,0.74,1.58c0.39-0.09,0.38-1.15,0.4-1.45c0.06-0.7,0.1-1.04,0.16-1.34
				c0.01-0.06,0.1-0.15,0.24-0.06c0.37,0.26,0.54,0.41,0.83,0.63c0.24,0.18,0.65,0.49,0.95,0.34c0.62-0.31-0.11-1.01-0.35-1.33
				C41.73,36.41,41.48,36.1,41.25,35.66"/>
			<path class="st0" d="M52.03,8.52c0.17-0.57-0.57-1.02-0.91-0.65C50.85,8.54,51.61,8.98,52.03,8.52"/>
			<path class="st0" d="M33.03,11.15c-0.37-0.04-0.93-0.43-1.08-0.12c-0.12,0.29,0.7,0.4,0.69,0.75c0,0.27-0.8,0.15-0.65,0.56
				c0.2,0.23,0.6-0.12,0.77,0.1c-0.05,0.37-0.41,0.83-0.11,0.92c0.34,0.13,0.42-0.61,0.82-0.82c0.26,0.13,0.3,0.46,0.7,0.46
				c0.14,0,0.16-0.07,0.19-0.14c-0.01-0.35-0.3-0.38-0.22-0.72c0.47-0.03,1.23,0.14,1.2-0.21c-0.01-0.34-0.75-0.15-0.97-0.43
				c0.29-0.19,0.86-0.54,0.75-0.69c-0.18-0.32-0.77,0.3-1.23,0.31l0.03-0.65c-0.02-0.13-0.1-0.16-0.22-0.08
				C33.42,10.57,33.43,11.09,33.03,11.15"/>
			<path class="st0" d="M42.79,12.85c0.16,0.06,0.36,0.3,0.47,0.18c0.09-0.12-0.26-0.26-0.22-0.42c0.03-0.12,0.37,0.03,0.36-0.17
				c-0.06-0.13-0.28-0.02-0.33-0.14c0.07-0.16,0.29-0.32,0.16-0.4c-0.14-0.09-0.26,0.22-0.46,0.27c-0.1-0.09-0.07-0.24-0.26-0.28
				c-0.06-0.02-0.08,0.01-0.1,0.04c-0.04,0.16,0.08,0.2,0.01,0.35c-0.22-0.05-0.53-0.21-0.56-0.05c-0.03,0.15,0.32,0.15,0.38,0.3
				c-0.15,0.05-0.44,0.14-0.41,0.22c0.05,0.16,0.38-0.04,0.59,0.01l-0.09,0.29c-0.01,0.06,0.02,0.09,0.08,0.06
				C42.55,13.06,42.6,12.83,42.79,12.85"/>
			<path class="st0" d="M48.46,21.66c0.11,0.12,0.18,0.4,0.31,0.34c0.12-0.06-0.11-0.32-0.01-0.43c0.08-0.08,0.3,0.17,0.36,0
				c0.01-0.13-0.22-0.12-0.21-0.24c0.12-0.11,0.37-0.15,0.3-0.27c-0.08-0.13-0.31,0.08-0.5,0.03c-0.04-0.11,0.04-0.23-0.09-0.34
				c-0.04-0.04-0.07-0.02-0.1-0.01c-0.1,0.12-0.01,0.2-0.13,0.29c-0.16-0.12-0.35-0.39-0.44-0.27c-0.09,0.11,0.2,0.25,0.19,0.4
				c-0.14-0.02-0.42-0.06-0.43,0.01c-0.03,0.16,0.33,0.12,0.48,0.25l-0.19,0.19c-0.02,0.05-0.01,0.08,0.05,0.09
				C48.17,21.73,48.31,21.57,48.46,21.66"/>
			<path class="st0" d="M53.61,18.18c0.11,0.12,0.19,0.43,0.33,0.36c0.13-0.06-0.12-0.35-0.02-0.46c0.08-0.09,0.32,0.18,0.39,0
				c0-0.14-0.24-0.14-0.24-0.26c0.13-0.11,0.39-0.16,0.31-0.28c-0.08-0.14-0.32,0.08-0.53,0.04c-0.04-0.13,0.04-0.25-0.1-0.37
				c-0.04-0.04-0.07-0.03-0.1-0.01c-0.1,0.12-0.01,0.22-0.14,0.31c-0.17-0.13-0.38-0.42-0.47-0.29c-0.1,0.12,0.21,0.27,0.2,0.43
				c-0.15-0.02-0.45-0.07-0.46,0.01c-0.04,0.17,0.35,0.13,0.51,0.27l-0.2,0.21c-0.03,0.05-0.02,0.08,0.04,0.09
				C53.3,18.26,53.46,18.08,53.61,18.18"/>
			<path class="st0" d="M29.21,18.83c-0.06-0.14-0.54,0.06-0.56-0.13c0-0.16,0.18-0.27,0.06-0.41c-0.12-0.11-0.21,0.2-0.37,0.25
				c-0.04-0.16-0.07-0.44-0.13-0.47c-0.22-0.05-0.11,0.58-0.33,0.61c-0.16-0.08-0.37-0.16-0.43,0c-0.04,0.07,0.23,0.19,0.26,0.31
				c-0.15,0.17-0.64,0.23-0.53,0.44c0.1,0.12,0.37-0.11,0.63-0.08c-0.05,0.16-0.22,0.36-0.12,0.51c0.21,0.08,0.28-0.35,0.48-0.45
				c0.16,0.06,0.15,0.39,0.35,0.27c0.11-0.1-0.01-0.25,0.02-0.51C28.73,19.02,29.28,19.11,29.21,18.83"/>
			<path class="st0" d="M45.8,17.82c-0.4-0.59-0.63-1.79-1.07-1.59c-0.35,0.17,0.34,1.16,0.3,1.74c-0.05,0.72-0.73,1.15-1.44,1.88
				c-0.2,0.24,0.01,0.4,0.2,0.37c0.45-0.03,0.84-0.35,1.38-0.52c0.16-0.03,0.56-0.04,0.76,0.19c0.31,0.34,0.62,1.35,0.97,1.19
				c0.41-0.24-0.29-1.09-0.38-1.61c0.3-0.12,0.8,0.11,0.93-0.11c0.24-0.46-0.67-0.53-1.05-0.84C46.19,18.36,45.96,18.06,45.8,17.82"
				/>
			<path class="st0" d="M44.64,18.48c0.56-0.64-0.39-1.57-0.94-1.05C43.06,18.04,44.03,19.17,44.64,18.48"/>
			<path class="st0" d="M30.81,34.04c0.33,0.33,0.5,1.17,0.92,0.9c0.19-0.14-0.09-0.59-0.01-0.9c0.51,0.03,1.4,0.6,1.57,0.18
				c0.11-0.35-0.88-0.51-1.24-0.78c-0.24-0.17-0.27-0.55-0.26-0.71c0.1-0.53,0.36-0.94,0.34-1.37c0-0.17-0.17-0.35-0.38-0.14
				c-0.6,0.75-0.93,1.45-1.61,1.57c-0.54,0.11-1.56-0.44-1.68-0.08c-0.14,0.43,1.02,0.52,1.63,0.83
				C30.32,33.68,30.63,33.86,30.81,34.04"/>
			<path class="st0" d="M29.46,31.61c-0.43,0.58,0.57,1.38,1.11,0.77C31.15,31.72,29.97,30.94,29.46,31.61"/>
			<path class="st0" d="M32.13,6.39c-0.42-0.3-0.75-1.19-1.16-0.82c-0.19,0.19,0.19,0.63,0.16,0.98c-0.55,0.05-1.63-0.41-1.75,0.08
				c-0.06,0.39,1.05,0.4,1.49,0.63c0.29,0.14,0.39,0.55,0.41,0.72c-0.02,0.59-0.23,1.09-0.13,1.55c0.03,0.19,0.25,0.35,0.44,0.09
				c0.53-0.93,0.77-1.75,1.49-2.01c0.57-0.21,1.78,0.2,1.85-0.21c0.08-0.5-1.21-0.38-1.92-0.61C32.73,6.7,32.36,6.56,32.13,6.39"/>
			<path class="st0" d="M34.03,8.81c0.36-0.71-0.87-1.41-1.34-0.65C32.16,8.98,33.59,9.64,34.03,8.81"/>
			<path class="st0" d="M42.02,8.13c0.33-0.35,0.48-1.25,0.92-0.98c0.21,0.15-0.07,0.62,0.03,0.94c0.52-0.05,1.43-0.68,1.64-0.25
				c0.13,0.36-0.9,0.57-1.27,0.86c-0.25,0.19-0.27,0.59-0.25,0.75c0.12,0.55,0.41,0.97,0.41,1.42c0.01,0.18-0.17,0.37-0.39,0.16
				c-0.66-0.76-1.03-1.48-1.75-1.58c-0.57-0.09-1.62,0.52-1.76,0.14c-0.16-0.45,1.04-0.57,1.67-0.92
				C41.52,8.53,41.84,8.33,42.02,8.13"/>
			<path class="st0" d="M40.7,10.73c-0.47-0.59,0.54-1.46,1.13-0.85C42.47,10.55,41.26,11.42,40.7,10.73"/>
			<path class="st0" d="M27.19,6.22c-0.26,0.1-0.74,0-0.71,0.26c0.02,0.13,0.32,0.09,0.46,0.19c-0.17,0.24-0.71,0.57-0.54,0.75
				c0.14,0.13,0.51-0.33,0.75-0.46c0.16-0.08,0.36-0.02,0.43,0.02c0.24,0.16,0.38,0.38,0.6,0.46c0.09,0.04,0.23-0.02,0.18-0.16
				c-0.21-0.46-0.47-0.78-0.34-1.14c0.11-0.3,0.57-0.34,0.43-0.48c-0.18-0.16-0.45,0.05-0.79,0.29C27.52,6.06,27.34,6.17,27.19,6.22
				"/>
			<path class="st0" d="M28.86,6.18C28.69,5.84,28,6.17,28.15,6.56C28.32,7,29.06,6.58,28.86,6.18"/>
			<path class="st0" d="M54.48,15.65c0.34-0.03,0.89,0.28,0.93-0.09c0.01-0.17-0.37-0.23-0.49-0.42c0.25-0.27,0.99-0.49,0.85-0.79
				c-0.15-0.23-0.71,0.24-1.03,0.32c-0.21,0.05-0.44-0.11-0.52-0.19c-0.25-0.31-0.35-0.65-0.6-0.84c-0.1-0.09-0.28-0.07-0.26,0.14
				c0.13,0.7,0.36,1.22,0.11,1.66c-0.2,0.35-0.99,0.66-0.85,0.9c0.17,0.28,0.77-0.32,1.23-0.51C54.04,15.75,54.29,15.67,54.48,15.65
				"/>
			<path class="st0" d="M52.48,15.24c0.11,0.52,1.04,0.34,0.95-0.25C53.34,14.35,52.35,14.63,52.48,15.24"/>
			<path class="st0" d="M30.33,26.01c0.67-0.08,0.5-1.46-0.32-1.09C29.41,25.19,29.77,26.07,30.33,26.01"/>
			<path class="st0" d="M53.08,8.24c-0.02,0.07,0.18,0.17,0.25,0.29c-0.11,0.09-0.3,0.17-0.35,0.28c0,0.18,0.36-0.06,0.53-0.04
				c0.06,0.1,0.01,0.41,0.14,0.32c0.07-0.05,0.08-0.17,0.11-0.24c0.15,0.07,0.27,0.34,0.34,0.28c0.07-0.07-0.12-0.28-0.17-0.42
				c0.08,0.01,0.17,0.02,0.16-0.03c-0.05-0.11-0.23-0.12-0.28-0.12c0.03-0.1,0.04-0.12,0.04-0.16c-0.02-0.14-0.12-0.09-0.23-0.05
				c-0.08-0.1-0.17-0.28-0.26-0.24c-0.07,0.03,0.06,0.17,0.08,0.24C53.33,8.32,53.13,8.14,53.08,8.24"/>
			<path class="st0" d="M57.06,13.95c-0.08,0.06,0.07,0.31,0.07,0.5c-0.18,0.02-0.45-0.03-0.57,0.06c-0.13,0.19,0.43,0.18,0.6,0.32
				c-0.01,0.15-0.27,0.45-0.07,0.44c0.12,0,0.2-0.13,0.3-0.19c0.11,0.17,0.06,0.56,0.18,0.54c0.13-0.03,0.05-0.39,0.1-0.57
				c0.08,0.06,0.16,0.14,0.19,0.08c0.03-0.15-0.17-0.29-0.21-0.33c0.1-0.09,0.12-0.1,0.15-0.15c0.07-0.17-0.08-0.18-0.22-0.22
				c-0.02-0.18,0.02-0.43-0.11-0.45c-0.09-0.01-0.05,0.23-0.08,0.32C57.27,14.2,57.18,13.87,57.06,13.95"/>
			<path class="st0" d="M45.85,27.78c0.08-0.72,0.94-0.92,1.37-0.31c0.19,0.27,0.15,0.58,0.07,0.73
				C46.81,29.04,45.79,28.47,45.85,27.78"/>
			<path class="st0" d="M45.49,31.35c-0.22-0.47,0.23-0.93,0.73-0.71c0.22,0.1,0.31,0.3,0.31,0.42
				C46.56,31.76,45.71,31.8,45.49,31.35"/>
			<path class="st0" d="M44.16,28.7c0.21-0.13,0.46-0.29,0.61-0.76c0.06-0.18,0.1-0.63,0.14-0.91c0.04-0.34,0.08-0.67,0.15-0.8
				c0.06-0.11,0.27-0.16,0.34,0.06c0.06,0.2,0.06,0.54,0.06,0.84c0.01,0.27,0.05,0.56,0.12,0.78c0.19,0.61,0.79,0.92,1.3,1.23
				c0.42,0.25,1.07,0.42,0.97,0.69c-0.09,0.25-0.48,0.11-0.66,0.06c-0.36-0.1-0.82-0.28-1.2-0.25c-0.29,0.02-0.69,0.23-0.96,0.53
				c-0.17,0.19-0.29,0.37-0.53,0.79c-0.18,0.31-0.48,0.98-0.85,0.56c-0.17-0.2,0.1-0.71,0.15-0.89c0.1-0.31,0.24-0.54,0.34-0.82
				c0.01-0.03,0.03-0.1-0.08-0.08c-0.32,0.06-0.74,0.17-1.03,0.22c-0.19,0.03-0.61,0.11-0.72-0.08c-0.23-0.38,0.57-0.61,0.81-0.7
				C43.35,29.08,43.88,28.87,44.16,28.7"/>
			<path class="st0" d="M32.57,26.23c-0.14-0.54,0.44-0.92,0.91-0.59c0.21,0.15,0.27,0.38,0.25,0.51
				C33.61,26.88,32.71,26.75,32.57,26.23"/>
			<path class="st0" d="M31.59,27.36c0.12-0.15,0.25-0.34,0.24-0.72c-0.01-0.16-0.09-0.49-0.14-0.7c-0.06-0.26-0.12-0.51-0.1-0.63
				c0.01-0.1,0.15-0.19,0.27-0.05c0.1,0.13,0.18,0.38,0.27,0.59c0.08,0.19,0.19,0.4,0.3,0.54c0.3,0.39,0.82,0.46,1.28,0.54
				c0.37,0.07,0.89,0.02,0.89,0.24c0,0.21-0.32,0.21-0.47,0.22c-0.29,0.02-0.67,0.01-0.94,0.14c-0.2,0.1-0.44,0.36-0.55,0.65
				c-0.07,0.18-0.12,0.35-0.18,0.72c-0.04,0.27-0.08,0.84-0.46,0.63c-0.18-0.1-0.12-0.55-0.13-0.69c-0.02-0.26,0.03-0.45,0.03-0.69
				c0-0.03-0.01-0.08-0.08-0.04c-0.21,0.13-0.5,0.33-0.7,0.44c-0.13,0.07-0.41,0.24-0.54,0.14c-0.27-0.22,0.26-0.59,0.4-0.73
				C31.11,27.85,31.43,27.56,31.59,27.36"/>
			<path class="st0" d="M39.54,29.56c0.28,0.5-0.19,1.02-0.74,0.82c-0.25-0.09-0.37-0.31-0.38-0.43
				C38.35,29.18,39.27,29.08,39.54,29.56"/>
			<path class="st0" d="M40.22,28.19c-0.08,0.18-0.17,0.4-0.05,0.77c0.05,0.15,0.22,0.46,0.32,0.65c0.13,0.25,0.25,0.47,0.27,0.59
				c0.01,0.1-0.11,0.23-0.25,0.12c-0.14-0.1-0.28-0.33-0.43-0.52c-0.13-0.17-0.29-0.34-0.43-0.45c-0.4-0.31-0.93-0.24-1.4-0.2
				c-0.39,0.03-0.88,0.22-0.94-0.01c-0.05-0.2,0.26-0.29,0.4-0.33c0.28-0.1,0.66-0.19,0.89-0.38c0.17-0.16,0.34-0.47,0.38-0.79
				c0.03-0.2,0.03-0.37-0.01-0.76c-0.03-0.28-0.13-0.85,0.29-0.75c0.2,0.05,0.27,0.51,0.31,0.66c0.08,0.25,0.09,0.45,0.15,0.69
				c0.01,0.03,0.02,0.07,0.08,0.01c0.18-0.19,0.41-0.45,0.58-0.61c0.1-0.1,0.35-0.35,0.5-0.27c0.33,0.14-0.1,0.65-0.21,0.82
				C40.57,27.58,40.33,27.95,40.22,28.19"/>
			<path class="st0" d="M33.51,21.01c0.52-0.79,1.65-0.5,1.77,0.46c0.05,0.43-0.17,0.77-0.35,0.89
				C33.86,23.05,33.01,21.77,33.51,21.01"/>
			<path class="st0" d="M30.98,21.06c0.33-0.02,0.72-0.07,1.17-0.52c0.18-0.18,0.5-0.67,0.71-0.97c0.26-0.37,0.5-0.72,0.67-0.85
				c0.14-0.09,0.41-0.02,0.36,0.29c-0.05,0.27-0.27,0.67-0.44,1.02c-0.15,0.32-0.28,0.68-0.33,0.98c-0.14,0.82,0.36,1.55,0.77,2.22
				c0.34,0.55,0.99,1.13,0.71,1.39c-0.26,0.23-0.62-0.16-0.8-0.33c-0.36-0.34-0.78-0.82-1.25-1.02c-0.35-0.14-0.95-0.14-1.44,0.05
				c-0.32,0.12-0.57,0.24-1.1,0.59c-0.4,0.25-1.16,0.85-1.33,0.14c-0.08-0.32,0.54-0.77,0.72-0.95c0.3-0.31,0.61-0.48,0.9-0.75
				c0.03-0.03,0.09-0.09-0.05-0.14c-0.4-0.12-0.97-0.25-1.33-0.38c-0.24-0.08-0.78-0.24-0.79-0.53c-0.04-0.58,1.03-0.35,1.37-0.32
				C29.81,21.01,30.55,21.08,30.98,21.06"/>
			<path class="st0" d="M46.45,34.67c0.53,0.01,0.67,0.6,0.21,1c-0.2,0.18-0.43,0.17-0.53,0.11C45.51,35.45,45.94,34.67,46.45,34.67
				"/>
			<path class="st0" d="M46,33.65c0.11,0.18,0.26,0.15,0.37,0.17c0.16,0.02,0.37,0.03,0.6,0.06c0.29,0.03,0.39,0.05,0.51,0.11
				c0.1,0.04,0.14,0.22-0.04,0.29c-0.17,0.06-0.28,0.07-0.53,0.08c-0.23,0.02-0.34,0.06-0.53,0.13c-0.5,0.18-0.78,0.6-0.99,1.14
				c-0.15,0.38-0.31,0.91-0.55,0.84c-0.22-0.07-0.11-0.4-0.07-0.55c0.07-0.31,0.28-0.67,0.25-1.02c-0.02-0.23-0.03-0.25-0.23-0.45
				c-0.15-0.16-0.32-0.24-0.69-0.43c-0.27-0.14-0.85-0.37-0.5-0.7c0.16-0.15,0.6,0.06,0.76,0.1c0.27,0.07,0.46,0.19,0.71,0.27
				c0.03,0.01,0.08,0.02,0.06-0.07c-0.06-0.27-0.17-0.62-0.22-0.87c-0.03-0.15-0.11-0.51,0.05-0.61c0.31-0.21,0.53,0.46,0.61,0.67
				C45.67,32.98,45.86,33.42,46,33.65"/>
			<path class="st0" d="M53.91,19.94c0.35-0.15,0.32-0.62-0.05-0.73c-0.16-0.05-0.31,0.01-0.37,0.07
				C53.13,19.65,53.58,20.08,53.91,19.94"/>
			<path class="st0" d="M53.7,20.93c0.03-0.13,0.08-0.28,0.29-0.42c0.09-0.06,0.3-0.15,0.44-0.21c0.16-0.07,0.32-0.14,0.38-0.2
				c0.05-0.05,0.04-0.16-0.08-0.16c-0.11-0.01-0.28,0.05-0.43,0.09c-0.14,0.04-0.29,0.06-0.4,0.06c-0.33,0-0.58-0.25-0.81-0.46
				c-0.19-0.17-0.37-0.47-0.49-0.38c-0.11,0.08,0.02,0.25,0.07,0.34c0.11,0.16,0.27,0.36,0.3,0.56c0.03,0.14-0.01,0.38-0.11,0.56
				c-0.07,0.12-0.15,0.21-0.32,0.39c-0.13,0.14-0.42,0.39-0.16,0.51c0.13,0.06,0.34-0.16,0.42-0.21c0.15-0.09,0.23-0.2,0.36-0.3
				c0.02-0.01,0.05-0.02,0.05,0.03c0.02,0.16,0.03,0.4,0.05,0.55c0.01,0.09,0.04,0.31,0.14,0.34c0.23,0.06,0.22-0.38,0.23-0.51
				C53.64,21.39,53.66,21.09,53.7,20.93"/>
			<path class="st0" d="M29.49,11.29c0.49-0.48,0.14-1.25-0.57-1.2c-0.32,0.02-0.52,0.22-0.58,0.37
				C27.99,11.32,29.02,11.74,29.49,11.29"/>
			<path class="st0" d="M29.8,13.09c-0.04-0.24-0.05-0.52,0.21-0.91c0.1-0.15,0.41-0.45,0.59-0.63c0.23-0.23,0.45-0.45,0.51-0.59
				c0.05-0.11-0.04-0.3-0.25-0.22c-0.19,0.07-0.44,0.28-0.66,0.45c-0.2,0.15-0.44,0.29-0.65,0.37c-0.56,0.22-1.15-0.04-1.68-0.25
				c-0.43-0.17-0.94-0.55-1.08-0.31c-0.13,0.21,0.2,0.42,0.35,0.52c0.28,0.21,0.69,0.44,0.89,0.75c0.15,0.22,0.23,0.65,0.17,1.03
				c-0.04,0.24-0.1,0.44-0.27,0.86c-0.13,0.32-0.45,0.94,0.08,0.96c0.25,0.01,0.48-0.49,0.58-0.64c0.18-0.26,0.26-0.5,0.41-0.75
				c0.02-0.03,0.05-0.07,0.1,0.02c0.14,0.27,0.31,0.65,0.45,0.9c0.09,0.15,0.28,0.51,0.48,0.49c0.42-0.05,0.12-0.78,0.04-1.02
				C29.99,13.91,29.85,13.4,29.8,13.09"/>
			<path class="st0" d="M57.01,16.99c0.4-0.34,0.18-0.93-0.35-0.91c-0.23,0.01-0.4,0.15-0.46,0.26
				C55.9,16.96,56.63,17.31,57.01,16.99"/>
			<path class="st0" d="M57.13,18.34c0-0.17,0-0.39,0.21-0.67c0.09-0.11,0.13-0.18,0.28-0.32c0.18-0.16,0.27-0.26,0.32-0.36
				c0.05-0.08-0.01-0.22-0.17-0.17c-0.15,0.05-0.25,0.14-0.43,0.26c-0.16,0.1-0.29,0.14-0.46,0.18c-0.44,0.11-0.7-0.13-1.07-0.29
				c-0.32-0.14-0.66-0.44-0.79-0.27c-0.11,0.15,0.12,0.32,0.23,0.4c0.2,0.16,0.49,0.34,0.61,0.58c0.09,0.17,0.13,0.49,0.06,0.77
				c-0.04,0.17-0.1,0.32-0.26,0.63c-0.11,0.23-0.38,0.68,0,0.71c0.18,0.02,0.39-0.35,0.47-0.46c0.15-0.18,0.22-0.35,0.35-0.54
				c0.02-0.02,0.04-0.05,0.07,0.02c0.09,0.2,0.19,0.5,0.28,0.68c0.05,0.12,0.17,0.39,0.33,0.38c0.32-0.03,0.14-0.57,0.09-0.75
				C57.22,18.95,57.14,18.57,57.13,18.34"/>
			<path class="st0" d="M22.67,22.12c-0.56-0.21-0.55-0.93,0.03-1.11c0.26-0.08,0.5,0.01,0.6,0.11
				C23.86,21.67,23.2,22.33,22.67,22.12"/>
			<path class="st0" d="M23.06,23.63c-0.06-0.19-0.14-0.42-0.48-0.64c-0.14-0.09-0.21-0.15-0.42-0.24
				c-0.26-0.11-0.39-0.18-0.49-0.28c-0.08-0.06-0.07-0.24,0.12-0.24c0.17-0.01,0.32,0.05,0.56,0.11c0.22,0.05,0.37,0.04,0.57,0.02
				c0.52-0.05,0.7-0.41,1.05-0.73c0.28-0.27,0.55-0.73,0.74-0.59c0.18,0.12-0.01,0.39-0.09,0.52c-0.16,0.25-0.39,0.56-0.44,0.86
				c-0.04,0.22,0.04,0.58,0.23,0.85c0.11,0.18,0.23,0.31,0.52,0.59c0.21,0.21,0.68,0.59,0.27,0.77c-0.19,0.08-0.55-0.24-0.68-0.32
				c-0.24-0.14-0.38-0.3-0.59-0.44c-0.02-0.02-0.07-0.04-0.08,0.05c-0.02,0.25-0.02,0.6-0.04,0.84c-0.01,0.15-0.04,0.49-0.21,0.53
				c-0.35,0.1-0.37-0.57-0.39-0.78C23.19,24.33,23.13,23.89,23.06,23.63"/>
			<path class="st0" d="M35.56,8.48c-0.29-0.22-0.57-0.02-0.47,0.3c0.05,0.14,0.12,0.19,0.2,0.22C35.75,9.13,35.83,8.68,35.56,8.48"
				/>
			<path class="st0" d="M36.64,9.02c-0.11-0.06-0.23-0.15-0.36-0.36c-0.05-0.09-0.04-0.1-0.08-0.2c-0.06-0.17-0.06-0.19-0.1-0.26
				c-0.03-0.06-0.14-0.08-0.16,0.04c-0.03,0.11-0.03,0.12-0.05,0.29c-0.01,0.14-0.02,0.29-0.11,0.41c-0.2,0.26-0.18,0.2-0.45,0.34
				c-0.22,0.11-0.53,0.21-0.47,0.34c0.06,0.13,0.24,0.04,0.32,0.01c0.18-0.06,0.39-0.17,0.58-0.16c0.14,0.01,0.35,0.1,0.49,0.25
				c0.09,0.09,0.16,0.18,0.3,0.39c0.1,0.16,0.26,0.49,0.43,0.27c0.07-0.1-0.07-0.37-0.11-0.46c-0.07-0.16-0.14-0.27-0.2-0.41
				c0-0.02-0.02-0.05,0.04-0.04c0.16,0.02,0.3,0.13,0.45,0.19c0.09,0.03,0.28,0.08,0.35-0.01c0.1-0.12-0.23-0.29-0.37-0.36
				C37.04,9.23,36.78,9.1,36.64,9.02"/>
			<path class="st0" d="M47.96,5.69c0.47-0.16,0.77,0.23,0.48,0.61c-0.13,0.17-0.25,0.2-0.36,0.2C47.41,6.47,47.51,5.83,47.96,5.69"
				/>
			<path class="st0" d="M46.2,5.95c0.17-0.03,0.32,0.01,0.62-0.18c0.12-0.08,0.12-0.1,0.22-0.22c0.17-0.19,0.17-0.22,0.26-0.3
				c0.07-0.06,0.22-0.03,0.2,0.14c-0.01,0.15-0.02,0.17-0.07,0.39c-0.04,0.19-0.03,0.28-0.01,0.41c0.05,0.31,0.14,0.36,0.45,0.61
				c0.26,0.22,0.66,0.44,0.51,0.59c-0.13,0.14-0.33-0.05-0.44-0.13c-0.21-0.16-0.43-0.3-0.69-0.37c-0.19-0.06-0.51-0.02-0.76,0.1
				c-0.16,0.08-0.29,0.16-0.57,0.39c-0.2,0.16-0.59,0.52-0.7,0.15c-0.05-0.18,0.26-0.46,0.35-0.56c0.16-0.16,0.3-0.29,0.45-0.45
				c0.02-0.02,0.04-0.06-0.04-0.07c-0.22-0.04-0.45,0.04-0.67,0.04c-0.13,0.01-0.41-0.02-0.46-0.17c-0.07-0.2,0.44-0.28,0.66-0.31
				C45.68,5.99,45.96,5.99,46.2,5.95"/>
			<path class="st0" d="M51.51,27.71c0.31,1.02,1.62,1.07,2.05,0.07c0.19-0.45,0.06-0.89-0.1-1.06
				C52.54,25.64,51.22,26.75,51.51,27.71"/>
			<path class="st0" d="M49.7,22.89c0.31,1.02,1.62,1.07,2.05,0.07c0.19-0.45,0.06-0.88-0.1-1.07
				C50.72,20.81,49.41,21.92,49.7,22.89"/>
			<path class="st0" d="M48.82,26.86c0.35,0.12,0.75,0.3,1.1,0.93c0.14,0.25,0.33,0.88,0.45,1.26c0.16,0.48,0.3,0.94,0.45,1.12
				c0.11,0.15,0.43,0.15,0.47-0.19c0.03-0.31-0.07-0.8-0.14-1.23c-0.07-0.39-0.09-0.82-0.05-1.15c0.11-0.92,0.88-1.55,1.53-2.12
				c0.53-0.48,1.42-0.9,1.2-1.26c-0.2-0.33-0.72-0.02-0.96,0.1c-0.49,0.25-1.09,0.64-1.66,0.69c-0.41,0.04-1.05-0.15-1.52-0.5
				c-0.3-0.22-0.53-0.45-0.99-0.99c-0.35-0.4-0.97-1.28-1.38-0.57c-0.19,0.32,0.34,1,0.47,1.25c0.23,0.43,0.5,0.7,0.73,1.09
				c0.03,0.05,0.06,0.13-0.1,0.13c-0.47,0-1.12-0.03-1.55-0.02c-0.28,0-0.9,0.01-1.01,0.31c-0.22,0.62,0.99,0.71,1.37,0.78
				C47.56,26.55,48.37,26.7,48.82,26.86"/>
			<path class="st0" d="M25.9,29.04c-0.22,0.73-1.17,0.77-1.48,0.05c-0.14-0.32-0.05-0.63,0.07-0.77
				C25.16,27.54,26.11,28.34,25.9,29.04"/>
			<path class="st0" d="M27.21,25.55c-0.22,0.73-1.17,0.77-1.48,0.05c-0.14-0.33-0.04-0.64,0.07-0.77
				C26.47,24.05,27.42,24.86,27.21,25.55"/>
			<path class="st0" d="M27.85,28.42c-0.25,0.09-0.54,0.21-0.79,0.67c-0.1,0.18-0.23,0.63-0.32,0.91c-0.11,0.34-0.22,0.67-0.32,0.81
				c-0.09,0.11-0.31,0.11-0.34-0.13c-0.02-0.22,0.06-0.58,0.1-0.89c0.05-0.28,0.07-0.59,0.04-0.83c-0.07-0.67-0.63-1.12-1.1-1.54
				c-0.39-0.34-1.03-0.65-0.87-0.91c0.14-0.24,0.52-0.02,0.69,0.07c0.35,0.18,0.79,0.46,1.2,0.51c0.3,0.02,0.77-0.11,1.1-0.37
				c0.22-0.16,0.38-0.32,0.71-0.71c0.25-0.29,0.7-0.92,1-0.41c0.13,0.24-0.25,0.72-0.34,0.9c-0.16,0.3-0.36,0.51-0.52,0.78
				c-0.02,0.04-0.05,0.1,0.07,0.1c0.34,0,0.81-0.02,1.12-0.02c0.2,0.01,0.65,0.01,0.73,0.23c0.16,0.44-0.71,0.51-0.99,0.56
				C28.75,28.19,28.17,28.31,27.85,28.42"/>
			<path class="st0" d="M23.18,17.13c-0.14,1.19-1.15,2.96-0.39,3.18c0.64,0.17,0.85-1.84,1.53-2.54c0.85-0.87,2.19-0.67,3.88-0.82
				c0.5-0.09,0.42-0.53,0.16-0.69c-0.6-0.45-1.46-0.47-2.33-0.84c-0.22-0.13-0.75-0.56-0.76-1.07c-0.03-0.78,0.69-2.39,0.08-2.57
				c-0.79-0.15-0.83,1.7-1.28,2.46c-0.52-0.17-0.91-1.02-1.29-0.87c-0.81,0.33,0.26,1.4,0.41,2.21
				C23.27,16.02,23.23,16.64,23.18,17.13"/>
			<path class="st0" d="M20.43,14.38c0.13,0.06,0.22-0.21,0.28-0.01c-0.06,0.16-0.11,0.34-0.12,0.55c0.28-0.05,0.19-0.44,0.39-0.56
				c0.06,0.11,0.16,0.25,0.28,0.13c0.02-0.16-0.02-0.26-0.08-0.34c0.16-0.12,0.52-0.04,0.54-0.29c-0.11-0.08-0.28-0.08-0.35-0.19
				c0.02-0.22,0.25-0.25,0.25-0.49c-0.21-0.02-0.36,0.36-0.47,0.22c0.05-0.04,0.17-0.41-0.08-0.34c-0.07,0.36-0.17,0.56-0.6,0.43
				c-0.03,0.26,0.18,0.27,0.22,0.47C20.61,14.1,20.44,14.17,20.43,14.38"/>
			<path class="st0" d="M22.29,15.28c-1.7-0.69-2.06,2.38-0.85,2.52C22.58,17.94,23.2,15.87,22.29,15.28"/>
			<path class="st0" d="M25.37,17.54c-1.41,0.19-1.22,2.43,0.05,2.37C26.9,19.83,26.9,17.33,25.37,17.54"/>
			<path class="st0" d="M35.63,32.74c0.25-0.18-0.13-0.55-0.12-0.85c0.5,0,1.26,0.37,1.42,0.11c0.21-0.51-0.82-0.52-1.12-0.89
				c0.11-0.38,0.91-0.68,0.52-1.03c-0.24-0.2-0.65,0.35-0.91,0.28c-0.03-0.48,0.21-1.37-0.09-1.43c-0.65-0.13-0.38,0.93-0.75,1.24
				c-0.37-0.22-0.54-0.95-0.97-0.78c-0.31,0.23,0.37,0.86,0.42,1.38c-0.35,0.01-0.94,0-0.97,0.2c-0.16,0.48,0.83,0.42,1.05,0.69
				c-0.07,0.43-0.78,1.02-0.24,1.28c0.32,0.09,0.51-0.61,0.89-0.82C35.08,32.29,35.34,32.93,35.63,32.74"/>
			<path class="st0" d="M50.77,17.77c0.74-0.14,1.21,0.65,0.73,1.25c-0.22,0.26-0.54,0.32-0.7,0.28
				C49.81,19.09,50.06,17.91,50.77,17.77"/>
			<path class="st0" d="M49.34,16.38c0.19,0.17,0.44,0.37,0.95,0.38c0.2,0,0.66-0.08,0.95-0.13c0.35-0.05,0.68-0.11,0.85-0.09
				c0.13,0.02,0.24,0.22,0.04,0.36c-0.18,0.12-0.52,0.21-0.82,0.31c-0.26,0.09-0.54,0.21-0.74,0.34c-0.55,0.36-0.68,1.04-0.83,1.64
				c-0.12,0.49-0.09,1.17-0.39,1.15c-0.28-0.02-0.25-0.44-0.26-0.63c-0.01-0.39,0.04-0.89-0.12-1.25c-0.11-0.27-0.44-0.61-0.83-0.78
				c-0.24-0.12-0.46-0.18-0.95-0.29c-0.37-0.08-1.13-0.19-0.82-0.67c0.14-0.22,0.74-0.11,0.94-0.11c0.34,0.01,0.61,0.08,0.93,0.1
				c0.04,0,0.1,0,0.06-0.1c-0.16-0.3-0.4-0.68-0.53-0.95c-0.09-0.18-0.29-0.57-0.14-0.73c0.31-0.34,0.77,0.39,0.95,0.59
				C48.71,15.71,49.09,16.16,49.34,16.38"/>
			<path class="st0" d="M45.16,22.22c0.29-0.34,0.01-0.8-0.44-0.73c-0.2,0.04-0.32,0.18-0.34,0.27
				C44.21,22.34,44.89,22.54,45.16,22.22"/>
			<path class="st0" d="M45.47,23.35c-0.03-0.15-0.06-0.33,0.08-0.59c0.06-0.11,0.23-0.31,0.33-0.44c0.13-0.16,0.26-0.32,0.28-0.41
				c0.02-0.07-0.04-0.19-0.17-0.12c-0.12,0.06-0.26,0.21-0.4,0.33c-0.12,0.11-0.26,0.22-0.39,0.28c-0.34,0.17-0.74,0.04-1.08-0.05
				c-0.29-0.08-0.63-0.29-0.71-0.13c-0.07,0.14,0.15,0.25,0.25,0.31c0.2,0.11,0.47,0.24,0.62,0.42c0.11,0.14,0.19,0.4,0.17,0.64
				c-0.01,0.15-0.03,0.29-0.12,0.57c-0.06,0.21-0.22,0.63,0.11,0.61c0.16-0.01,0.27-0.35,0.33-0.45c0.09-0.18,0.13-0.33,0.21-0.5
				c0.01-0.02,0.03-0.05,0.07,0c0.11,0.16,0.25,0.4,0.34,0.55c0.07,0.09,0.21,0.31,0.34,0.28c0.26-0.06,0.03-0.51-0.04-0.65
				C45.65,23.86,45.52,23.54,45.47,23.35"/>
			<path class="st0" d="M31.97,19.05c0.28,0.39,0.03,0.77-0.41,0.63c-0.2-0.06-0.26-0.17-0.3-0.27
				C31.08,18.8,31.69,18.68,31.97,19.05"/>
			<path class="st0" d="M32.19,16.84c0.29,0.39,0.03,0.77-0.41,0.63c-0.2-0.07-0.26-0.17-0.29-0.27
				C31.31,16.59,31.92,16.47,32.19,16.84"/>
			<path class="st0" d="M31.23,17.61c0.08,0.15,0.2,0.32,0.49,0.48c0.12,0.07,0.13,0.05,0.27,0.11c0.22,0.09,0.26,0.08,0.35,0.14
				c0.07,0.04,0.1,0.19-0.06,0.22c-0.14,0.03-0.15,0.04-0.38,0.06c-0.19,0.02-0.39,0.03-0.55,0.14C31,19.02,31.08,19,30.89,19.37
				c-0.15,0.29-0.28,0.71-0.47,0.63c-0.17-0.07-0.06-0.32-0.02-0.44c0.08-0.24,0.23-0.53,0.22-0.79c-0.01-0.19-0.14-0.47-0.34-0.66
				c-0.12-0.13-0.24-0.22-0.53-0.4c-0.21-0.13-0.66-0.37-0.35-0.59c0.14-0.11,0.5,0.09,0.62,0.14c0.2,0.1,0.36,0.19,0.56,0.27
				c0.02,0.01,0.06,0.02,0.05-0.05c-0.03-0.21-0.17-0.4-0.25-0.61c-0.04-0.12-0.11-0.37,0.01-0.46c0.15-0.13,0.39,0.31,0.49,0.5
				C30.95,17.06,31.12,17.41,31.23,17.61"/>
			<path class="st0" d="M22.48,11.03c0.17,0.25,0.75-0.37,1.17-0.46l0.32,0.99c0.26,0.48,0.15-0.95,0.65-1.39
				c0.56,0.05,0.96,0.44,1.12,0.06c-0.01-0.36-0.45-0.44-0.55-0.71c0.48-0.45,1.96-0.97,1.66-1.35C26.38,8,25.73,8.65,25.32,8.55
				c0.04-0.37,0.6-0.91,0.32-1c-0.41-0.13-0.58,0.66-0.97,0.9c-0.11-0.25-0.38-0.77-0.53-0.71c-0.25-0.02-0.07,0.63-0.17,1.18
				c-0.47,0.09-1.07-0.27-1.1,0.29c0.03,0.26,0.54,0.41,0.63,0.68C23.25,10.31,22.26,10.73,22.48,11.03"/>
			<path class="st0" d="M26.4,22.57c0.16,0.17,0.25,0.57,0.45,0.48c0.17-0.08-0.16-0.46-0.02-0.62c0.1-0.12,0.43,0.25,0.52,0
				c0.01-0.19-0.32-0.18-0.31-0.35c0.17-0.15,0.52-0.22,0.42-0.39c-0.11-0.19-0.44,0.11-0.71,0.05c-0.06-0.17,0.05-0.33-0.14-0.5
				c-0.06-0.06-0.1-0.03-0.15-0.01c-0.13,0.16-0.02,0.29-0.18,0.42c-0.23-0.18-0.51-0.56-0.64-0.39c-0.13,0.17,0.29,0.37,0.27,0.59
				c-0.21-0.03-0.61-0.1-0.62,0.01c-0.04,0.22,0.48,0.17,0.7,0.36l-0.28,0.29c-0.04,0.07-0.02,0.12,0.07,0.12
				C25.99,22.68,26.19,22.43,26.4,22.57"/>
			<path class="st0" d="M42.94,35.76c0.14,0.15,0.24,0.53,0.42,0.46c0.16-0.08-0.15-0.44-0.01-0.59c0.1-0.11,0.4,0.24,0.49,0.01
				c0-0.18-0.3-0.18-0.29-0.34c0.16-0.14,0.49-0.2,0.39-0.36c-0.1-0.19-0.41,0.1-0.66,0.04c-0.06-0.16,0.04-0.31-0.13-0.47
				c-0.06-0.05-0.09-0.03-0.14,0c-0.12,0.15-0.01,0.27-0.17,0.39c-0.21-0.17-0.48-0.53-0.6-0.37c-0.12,0.15,0.27,0.34,0.25,0.55
				c-0.19-0.03-0.57-0.09-0.58,0.01c-0.04,0.21,0.44,0.16,0.65,0.33l-0.25,0.27c-0.04,0.06-0.02,0.11,0.06,0.11
				C42.55,35.86,42.74,35.64,42.94,35.76"/>
			<path class="st0" d="M29.47,9.29c0.14,0.15,0.23,0.54,0.42,0.45c0.16-0.08-0.15-0.44-0.01-0.58c0.1-0.11,0.4,0.23,0.49,0.01
				c0-0.17-0.3-0.17-0.29-0.33c0.16-0.14,0.49-0.2,0.39-0.36c-0.1-0.18-0.41,0.1-0.67,0.04c-0.06-0.15,0.05-0.31-0.13-0.46
				C29.61,8,29.58,8.03,29.54,8.05c-0.13,0.16-0.02,0.28-0.18,0.4c-0.21-0.17-0.47-0.53-0.6-0.37c-0.12,0.15,0.27,0.35,0.26,0.55
				c-0.2-0.03-0.57-0.09-0.58,0.01c-0.04,0.21,0.44,0.16,0.65,0.33l-0.26,0.27c-0.04,0.06-0.02,0.11,0.06,0.12
				C29.08,9.39,29.27,9.16,29.47,9.29"/>
			<path class="st0" d="M29.18,30.39c-0.16,0.17-0.26,0.59-0.46,0.5c-0.17-0.09,0.17-0.48,0.02-0.63c-0.11-0.12-0.44,0.25-0.53,0
				c0-0.19,0.34-0.19,0.32-0.36c-0.17-0.16-0.53-0.22-0.43-0.39c0.11-0.2,0.46,0.11,0.73,0.05c0.07-0.17-0.05-0.34,0.14-0.51
				c0.07-0.06,0.1-0.04,0.15-0.01c0.14,0.17,0.02,0.3,0.19,0.43c0.24-0.18,0.52-0.58,0.65-0.4c0.13,0.17-0.29,0.38-0.28,0.61
				c0.21-0.03,0.63-0.1,0.64,0.01c0.04,0.23-0.49,0.17-0.71,0.37l0.28,0.29c0.05,0.07,0.02,0.11-0.07,0.13
				C29.6,30.5,29.39,30.25,29.18,30.39"/>
			<path class="st0" d="M49.28,30.97c0.07-0.26,0.12-0.53,0.15-0.83c-0.03-0.13-0.1-0.12-0.17-0.06c-0.21,0.22-0.24,0.61-0.45,0.82
				c-0.25,0-0.42-0.33-0.56-0.2c-0.21,0.14,0.15,0.31,0.13,0.6c-0.32,0.07-0.88-0.02-0.79,0.39c0.11,0.13,0.54,0.04,0.71,0.15
				c-0.01,0.25-0.32,0.4-0.21,0.58c0.22,0.14,0.33-0.38,0.55-0.21c0.01,0.26-0.09,0.61,0.15,0.65c0.3-0.03,0.12-0.65,0.33-0.81
				c0.18,0.06,0.41,0.32,0.53,0.2c0.18-0.31-0.25-0.38-0.27-0.67c0.13-0.19,0.61-0.24,0.49-0.46
				C49.78,30.95,49.35,31.13,49.28,30.97"/>
			<path class="st0" d="M49.34,6.12c-0.01,0.11,0.32,0.16,0.46,0.29c-0.11,0.17-0.34,0.36-0.35,0.52c0.07,0.24,0.46-0.23,0.69-0.27
				c0.12,0.11,0.18,0.54,0.32,0.37c0.08-0.11,0.04-0.26,0.06-0.38c0.22,0.03,0.51,0.35,0.57,0.23c0.07-0.13-0.28-0.32-0.41-0.49
				c0.11-0.02,0.23-0.04,0.19-0.1c-0.1-0.13-0.35-0.06-0.42-0.05c-0.01-0.15,0.01-0.17-0.01-0.23c-0.09-0.19-0.2-0.07-0.33,0.03
				c-0.16-0.1-0.35-0.31-0.45-0.21c-0.08,0.06,0.15,0.2,0.21,0.28C49.69,6.12,49.35,5.97,49.34,6.12"/>
			<path class="st0" d="M55.14,23.77c-0.25,0.44-0.73,0.34-0.77-0.14c-0.02-0.21,0.06-0.32,0.14-0.39
				C55.02,22.82,55.38,23.36,55.14,23.77"/>
			<path class="st0" d="M56.22,22.47c-0.11,0.14-0.22,0.32-0.26,0.66c-0.02,0.14,0,0.14,0.01,0.3c0,0.25,0.03,0.28,0.01,0.39
				c-0.01,0.09-0.14,0.17-0.23,0.04c-0.09-0.12-0.1-0.14-0.22-0.34c-0.1-0.17-0.18-0.37-0.36-0.47c-0.39-0.23-0.34-0.16-0.77-0.19
				c-0.34-0.03-0.8,0.02-0.8-0.19c0-0.19,0.28-0.19,0.41-0.19c0.26-0.02,0.6,0.01,0.84-0.11c0.17-0.08,0.39-0.32,0.49-0.59
				c0.07-0.17,0.11-0.32,0.17-0.66c0.04-0.26,0.08-0.79,0.42-0.58c0.15,0.1,0.12,0.51,0.11,0.65c-0.01,0.24-0.03,0.42-0.03,0.65
				c0,0.02,0.01,0.06,0.07,0.03c0.19-0.11,0.31-0.33,0.48-0.48c0.1-0.09,0.32-0.26,0.45-0.18c0.19,0.11-0.14,0.51-0.28,0.67
				C56.63,21.99,56.37,22.29,56.22,22.47"/>
			<path class="st0" d="M56.63,12.61c0.34,0.45,0.03,0.9-0.48,0.73c-0.23-0.08-0.31-0.2-0.34-0.32
				C55.59,12.32,56.31,12.18,56.63,12.61"/>
			<path class="st0" d="M55.77,10.92c0.1,0.17,0.24,0.37,0.57,0.56c0.14,0.08,0.15,0.06,0.32,0.13c0.26,0.1,0.3,0.09,0.41,0.16
				c0.09,0.05,0.12,0.22-0.07,0.26c-0.16,0.03-0.18,0.04-0.44,0.07c-0.23,0.02-0.46,0.03-0.65,0.17c-0.41,0.3-0.31,0.29-0.53,0.71
				c-0.18,0.34-0.33,0.83-0.54,0.74c-0.2-0.08-0.07-0.37-0.02-0.51c0.09-0.28,0.26-0.62,0.24-0.92c-0.01-0.22-0.15-0.55-0.38-0.77
				c-0.14-0.14-0.28-0.25-0.62-0.46c-0.25-0.16-0.77-0.43-0.41-0.69c0.16-0.12,0.57,0.11,0.71,0.17c0.24,0.11,0.42,0.21,0.65,0.31
				c0.02,0.01,0.07,0.02,0.06-0.06c-0.03-0.24-0.21-0.46-0.29-0.71c-0.05-0.13-0.12-0.44,0.01-0.54c0.19-0.15,0.46,0.37,0.57,0.58
				C55.44,10.29,55.65,10.69,55.77,10.92"/>
			<path class="st0" d="M36.31,37.7c0.45,0.3,0.86-0.01,0.68-0.49c-0.08-0.21-0.21-0.28-0.32-0.31
				C35.98,36.73,35.88,37.42,36.31,37.7"/>
			<path class="st0" d="M34.66,36.96c0.17,0.08,0.36,0.21,0.56,0.52c0.08,0.12,0.06,0.13,0.13,0.29c0.11,0.25,0.1,0.28,0.17,0.38
				c0.05,0.08,0.22,0.1,0.24-0.07c0.04-0.15,0.04-0.18,0.05-0.43c0.02-0.2,0.01-0.44,0.13-0.61c0.28-0.41,0.26-0.31,0.65-0.54
				c0.31-0.19,0.78-0.35,0.68-0.55c-0.09-0.19-0.36-0.05-0.49,0c-0.26,0.1-0.57,0.28-0.86,0.28c-0.2,0-0.53-0.13-0.75-0.34
				c-0.15-0.13-0.25-0.26-0.46-0.56c-0.16-0.23-0.45-0.72-0.68-0.37c-0.1,0.16,0.13,0.55,0.19,0.68c0.12,0.22,0.23,0.39,0.33,0.61
				c0.01,0.02,0.02,0.07-0.06,0.06c-0.24-0.02-0.45-0.18-0.69-0.25c-0.13-0.04-0.43-0.1-0.52,0.03c-0.13,0.18,0.38,0.42,0.58,0.52
				C34.04,36.68,34.43,36.85,34.66,36.96"/>
			<path class="st0" d="M21.6,19.08c-0.04-0.11-0.33,0.01-0.35-0.12c-0.02-0.19,0.32-0.62-0.03-0.68c-0.09,0.15-0.12,0.37-0.25,0.49
				c-0.15-0.05-0.1-0.32-0.29-0.33c-0.2,0.13,0.11,0.48-0.05,0.54c-0.13-0.05-0.26-0.1-0.42-0.12c-0.07,0.39,0.29,0.31,0.3,0.6
				c-0.05,0.2-0.31,0.19-0.25,0.49c0.25,0.03,0.25-0.16,0.47-0.15c0.08,0.26-0.14,0.4,0.02,0.54c0.26,0,0.15-0.35,0.33-0.42
				c0.21,0.06,0.23,0.33,0.49,0.32c0.01-0.37-0.21-0.49-0.3-0.74C21.4,19.38,21.59,19.3,21.6,19.08"/>
			<path class="st0" d="M22.48,11.03c0.17,0.25,0.75-0.37,1.17-0.46l0.32,0.99c0.26,0.48,0.15-0.95,0.65-1.39
				c0.56,0.05,0.96,0.44,1.12,0.06c-0.01-0.36-0.45-0.44-0.55-0.71c0.48-0.45,1.96-0.97,1.66-1.35C26.38,8,25.73,8.65,25.32,8.55
				c0.04-0.37,0.6-0.91,0.32-1c-0.41-0.13-0.58,0.66-0.97,0.9c-0.11-0.25-0.38-0.77-0.53-0.71c-0.25-0.02-0.07,0.63-0.17,1.18
				c-0.47,0.09-1.07-0.27-1.1,0.29c0.03,0.26,0.54,0.41,0.63,0.68C23.25,10.31,22.26,10.73,22.48,11.03"/>
			<line class="st0" x1="20.21" y1="19.46" x2="20.21" y2="19.26"/>
			<line class="st0" x1="58.08" y1="19.46" x2="58.08" y2="19.26"/>
		</g>
	</g>
	<text transform="matrix(1 0 0 1 130.6202 41.1714)" class="st0 st2 st3">Cañete</text>
</g>
</svg>
