<?xml version="1.0" encoding="utf-8"?>
<!-- Generator: Adobe Illustrator 26.1.0, SVG Export Plug-In . SVG Version: 6.00 Build 0)  -->
<svg version="1.1" id="Capa_1" xmlns="http://www.w3.org/2000/svg" xmlns:xlink="http://www.w3.org/1999/xlink" x="0px" y="0px"
	 viewBox="0 0 1345.8 1346.9" style="enable-background:new 0 0 1345.8 1346.9;" xml:space="preserve">
<g>
	<g>
		<path d="M207.2,300.4l8.9-10.3l26.3,10.4l0.1-0.1l-13.9-24.6l8.9-10.2l30.8,26.8l-5.9,6.8l-23.7-20.5l-0.1,0.1l16.6,28.6l-4.5,5.2
			l-30.4-12.7l-0.1,0.1l23.7,20.5l-5.9,6.8L207.2,300.4z"/>
		<path d="M289.1,250.2c1.7,1.7,3,3.6,3.9,5.6c0.9,2,1.3,4,1.3,6.1c0,2.1-0.5,4.2-1.4,6.3c-1,2.1-2.5,4.1-4.5,6.1
			c-2.1,2-4.1,3.4-6.3,4.3c-2.1,0.9-4.2,1.3-6.3,1.2c-2.1-0.1-4.1-0.6-6-1.6c-1.9-1-3.8-2.3-5.4-4.1L246.9,256l6.5-6.2l17.2,17.8
			c0.9,0.9,1.8,1.6,2.9,2.1c1,0.5,2.1,0.8,3.2,0.8c1.1,0.1,2.1-0.1,3.2-0.5c1-0.4,2-1,2.9-1.8c0.9-0.8,1.5-1.7,1.9-2.8
			c0.4-1,0.6-2.1,0.6-3.1c0-1.1-0.3-2.1-0.7-3.2c-0.5-1.1-1.1-2-2-3l-17.2-17.8l6.5-6.2L289.1,250.2z"/>
		<path d="M308.8,214.7c-1.4-0.3-2.7-0.2-4.1,0.2c-1.4,0.4-2.7,1.1-4,2.2c-1.3,1.1-2.3,2.3-3,3.7c-0.7,1.4-1.1,2.9-1.1,4.5
			c-0.1,1.6,0.2,3.2,0.7,4.8c0.6,1.6,1.5,3.2,2.7,4.6c1.2,1.5,2.6,2.7,4.1,3.5c1.5,0.9,3,1.4,4.5,1.6c1.5,0.2,3.1,0.2,4.6-0.2
			c1.5-0.4,2.9-1.1,4.1-2.1c1.4-1.2,2.4-2.5,3-4c0.6-1.5,0.8-3.1,0.7-4.7l9.3-0.5c0.2,3-0.3,5.7-1.7,8.3c-1.3,2.6-3.1,4.8-5.2,6.6
			c-2.5,2-5.1,3.5-7.8,4.5c-2.7,0.9-5.4,1.3-8.1,1.1c-2.7-0.2-5.3-1-7.9-2.3c-2.5-1.3-4.8-3.3-6.9-5.8c-2.1-2.5-3.5-5.2-4.4-7.9
			s-1.1-5.5-0.8-8.1c0.3-2.7,1.2-5.3,2.6-7.8c1.4-2.5,3.4-4.7,5.9-6.8c0.9-0.7,1.9-1.4,3-2.1c1.1-0.6,2.3-1.2,3.5-1.6
			c1.2-0.4,2.5-0.7,3.9-0.8c1.4-0.1,2.7,0,4.1,0.3L308.8,214.7z"/>
		<path d="M315.8,195.7l7.4-5.2l8.8,12.5l14.3-10.1l-8.8-12.5l7.4-5.2l23.5,33.4l-7.4,5.2l-10.2-14.4l-14.3,10.1l10.2,14.4l-7.4,5.2
			L315.8,195.7z"/>
		<path d="M364.3,186.9c-1.6-2.8-2.7-5.7-3.1-8.5s-0.2-5.6,0.6-8.2c0.8-2.6,2-5,3.9-7.2c1.8-2.2,4.1-4.1,6.9-5.7
			c2.8-1.6,5.6-2.7,8.4-3.1c2.8-0.5,5.6-0.4,8.2,0.2c2.6,0.6,5.1,1.8,7.4,3.5s4.2,4,5.9,6.9c1.6,2.8,2.7,5.7,3.1,8.5
			c0.4,2.8,0.2,5.6-0.6,8.2c-0.8,2.6-2,5-3.9,7.2c-1.8,2.2-4.1,4.1-6.9,5.7c-2.8,1.6-5.6,2.7-8.4,3.1c-2.8,0.5-5.6,0.4-8.2-0.2
			c-2.6-0.6-5.1-1.8-7.4-3.5C367.9,192,365.9,189.7,364.3,186.9z M372.3,182.2c1,1.7,2.1,3,3.4,4.1c1.3,1.1,2.8,1.8,4.3,2.3
			c1.6,0.5,3.2,0.6,4.8,0.4c1.7-0.2,3.3-0.8,5-1.8c1.7-1,3-2.1,4-3.5c1-1.3,1.7-2.8,2.1-4.4c0.4-1.6,0.4-3.2,0.1-4.9
			c-0.3-1.7-0.9-3.4-1.9-5c-0.9-1.6-2.1-3-3.4-4.1c-1.3-1.1-2.8-1.9-4.3-2.3c-1.6-0.5-3.2-0.6-4.8-0.3c-1.7,0.2-3.3,0.8-5,1.8
			c-1.7,1-3,2.1-4,3.5c-1,1.3-1.7,2.8-2.1,4.4c-0.4,1.6-0.4,3.2-0.1,4.9C370.8,178.9,371.4,180.6,372.3,182.2z"/>
		<path d="M420.5,132.8l12.6-5.3l19,20.9l0.1,0l-1.6-28.2l12.5-5.3l15.8,37.7l-8.3,3.5l-12.1-28.9l-0.1,0l2.3,33l-6.3,2.7
			l-21.7-24.9l-0.1,0l12.1,28.9l-8.3,3.5L420.5,132.8z"/>
		<path d="M475.8,110.6l26.4-8.6l2.6,7.9l-17.8,5.8l2.3,7.2l16.9-5.5l2.6,7.9l-16.9,5.5l2.6,7.9l18.8-6.1l2.6,7.9l-27.4,8.9
			L475.8,110.6z"/>
		<path d="M541.5,119.7c0.5,1.8,0.8,3.6,0.9,5.4c0.1,1.8-0.1,3.5-0.6,5c-0.6,1.6-1.6,2.9-3,4.2c-1.5,1.2-3.5,2.2-6.2,2.9
			c-3.1,0.8-6,0.7-8.5-0.2c-2.5-0.9-4.5-2.9-6-5.9l7.5-4c0.4,0.9,1,1.6,1.9,2.1c0.9,0.5,1.9,0.6,2.9,0.3c1-0.3,1.7-0.7,2.2-1.4
			c0.4-0.6,0.7-1.4,0.7-2.2c0.1-0.8,0-1.7-0.1-2.6c-0.2-0.9-0.3-1.7-0.5-2.5L526,95.7l8.7-2.2L541.5,119.7z"/>
		<path d="M548.1,111c-0.6-3.2-0.6-6.2,0-9s1.7-5.3,3.3-7.5c1.6-2.2,3.6-4,6.1-5.5c2.5-1.5,5.3-2.5,8.4-3c3.1-0.6,6.1-0.6,9-0.1
			c2.8,0.5,5.4,1.5,7.6,3c2.3,1.5,4.2,3.4,5.7,5.9s2.6,5.2,3.2,8.5c0.6,3.2,0.6,6.2,0,9s-1.7,5.3-3.3,7.5c-1.6,2.2-3.6,4-6.1,5.5
			c-2.5,1.5-5.3,2.5-8.4,3c-3.1,0.6-6.1,0.6-9,0.1c-2.8-0.5-5.4-1.5-7.6-3c-2.3-1.5-4.2-3.4-5.7-5.9
			C549.7,117,548.6,114.2,548.1,111z M557.3,109.3c0.3,1.9,0.9,3.6,1.8,5c0.9,1.5,2,2.7,3.3,3.6c1.3,1,2.8,1.6,4.4,2
			c1.6,0.4,3.4,0.4,5.3,0c1.9-0.3,3.5-1,5-1.9c1.4-0.9,2.6-2.1,3.5-3.4c0.9-1.4,1.5-2.9,1.8-4.5c0.3-1.7,0.3-3.5-0.1-5.4
			c-0.3-1.9-0.9-3.5-1.8-5c-0.9-1.5-2-2.7-3.3-3.7c-1.3-1-2.8-1.6-4.4-2c-1.6-0.4-3.4-0.4-5.3,0c-1.9,0.3-3.5,1-5,1.9
			c-1.4,0.9-2.6,2.1-3.5,3.4c-0.9,1.4-1.5,2.9-1.8,4.6C556.9,105.7,556.9,107.5,557.3,109.3z"/>
		<path d="M598.6,81.8l15.7-1.6c2.1-0.2,4-0.2,5.9,0c1.9,0.2,3.6,0.7,5.1,1.5c1.5,0.8,2.7,2,3.7,3.5c1,1.5,1.6,3.4,1.8,5.8
			c0.3,2.9-0.2,5.4-1.5,7.5s-3.3,3.6-6.2,4.5l12,16.1l-10.7,1.1l-10.1-15.4l-4.4,0.4l1.6,16.2l-9,0.9L598.6,81.8z M609.2,97.8
			l5.3-0.5c0.8-0.1,1.7-0.2,2.5-0.3c0.9-0.1,1.7-0.4,2.4-0.8c0.7-0.4,1.3-0.9,1.7-1.5c0.4-0.7,0.6-1.5,0.5-2.7
			c-0.1-1-0.4-1.8-0.9-2.4c-0.5-0.6-1.1-1-1.7-1.2c-0.7-0.3-1.5-0.4-2.3-0.4c-0.9,0-1.7,0-2.5,0.1l-5.9,0.6L609.2,97.8z"/>
		<path d="M680,87.3c-0.7-0.9-1.7-1.6-3-2c-1.3-0.4-2.4-0.6-3.6-0.6c-0.7,0-1.3,0.1-2,0.3c-0.7,0.2-1.3,0.4-2,0.8
			c-0.6,0.3-1.1,0.8-1.5,1.3c-0.4,0.5-0.6,1.2-0.5,2c0,1.2,0.5,2.2,1.4,2.8c0.9,0.6,2.1,1.2,3.5,1.6c1.4,0.4,2.9,0.9,4.6,1.3
			c1.6,0.4,3.1,1.1,4.6,1.9c1.4,0.8,2.6,1.9,3.5,3.3c0.9,1.4,1.4,3.3,1.5,5.7c0,2.3-0.4,4.3-1.2,6c-0.8,1.7-1.9,3.1-3.4,4.3
			c-1.4,1.1-3.1,2-5,2.6c-1.9,0.6-3.9,0.9-6,0.9c-2.7,0-5.1-0.3-7.4-1.1c-2.3-0.8-4.4-2-6.4-3.8l6.3-7.1c0.9,1.2,2.1,2.1,3.5,2.8
			c1.4,0.7,2.9,1,4.4,0.9c0.7,0,1.5-0.1,2.2-0.3s1.4-0.5,2-0.8c0.6-0.4,1.1-0.8,1.4-1.4c0.4-0.5,0.5-1.2,0.5-1.9
			c0-1.2-0.5-2.2-1.5-2.9c-1-0.7-2.1-1.3-3.6-1.8c-1.4-0.5-3-1-4.6-1.4c-1.7-0.5-3.2-1.1-4.6-1.9c-1.4-0.8-2.6-1.9-3.6-3.3
			c-1-1.4-1.5-3.2-1.5-5.5c0-2.2,0.4-4.1,1.2-5.8c0.8-1.7,2-3.1,3.4-4.2c1.4-1.1,3.1-2,4.9-2.6c1.9-0.6,3.8-0.9,5.8-0.9
			c2.3,0,4.5,0.3,6.7,0.9c2.2,0.6,4.1,1.7,5.9,3.2L680,87.3z"/>
		<path d="M694.5,97.8c0.2-3.3,1-6.2,2.3-8.7c1.3-2.6,3-4.7,5.1-6.4c2.1-1.7,4.5-3,7.3-3.8c2.8-0.8,5.7-1.1,8.9-0.8
			c3.2,0.2,6.1,1,8.7,2.2c2.6,1.2,4.8,2.8,6.6,4.8c1.8,2,3.2,4.4,4.1,7.1c0.9,2.7,1.2,5.7,1,9c-0.2,3.3-1,6.2-2.3,8.7
			c-1.3,2.6-3,4.7-5.1,6.4c-2.1,1.7-4.5,3-7.3,3.8c-2.8,0.8-5.7,1.1-8.9,0.8c-3.2-0.2-6.1-1-8.7-2.2c-2.6-1.2-4.8-2.8-6.6-4.8
			c-1.8-2-3.2-4.4-4.1-7.1C694.5,104.1,694.2,101.1,694.5,97.8z M703.8,98.5c-0.1,1.9,0,3.7,0.5,5.3c0.5,1.6,1.2,3.1,2.3,4.3
			c1,1.3,2.3,2.3,3.8,3c1.5,0.8,3.2,1.2,5.1,1.4c1.9,0.1,3.7-0.1,5.3-0.6c1.6-0.5,3-1.3,4.2-2.4c1.2-1.1,2.2-2.4,2.9-4
			c0.7-1.5,1.1-3.3,1.3-5.2c0.1-1.9,0-3.6-0.5-5.3c-0.5-1.7-1.2-3.1-2.2-4.4c-1-1.3-2.3-2.3-3.8-3c-1.5-0.8-3.2-1.2-5.1-1.4
			c-1.9-0.1-3.7,0.1-5.3,0.6c-1.6,0.5-3,1.3-4.2,2.4c-1.2,1.1-2.2,2.4-2.9,4C704.3,94.9,703.9,96.7,703.8,98.5z"/>
		<path d="M751,82.2l12.1,2l12.5,30.8l0.1,0l4.6-28l8.9,1.5l-6.6,40.3l-11.6-1.9l-12.9-31.6l-0.1,0l-4.7,28.7l-8.9-1.5L751,82.2z"/>
		<path d="M821.1,96l8.7,2.3l-10.4,39.5l-8.7-2.3L821.1,96z"/>
		<path d="M841.6,101.4l12.8,4.2c3.1,1,5.9,2.3,8.5,3.9c2.6,1.6,4.6,3.5,6.2,5.8c1.6,2.2,2.6,4.8,3,7.7c0.4,2.9,0,6.1-1.1,9.6
			c-1,3.1-2.5,5.7-4.5,7.7c-2,2-4.2,3.5-6.8,4.5c-2.5,1-5.3,1.4-8.2,1.4c-2.9,0-5.8-0.5-8.7-1.4l-14-4.6L841.6,101.4z M840,135.1
			l4.4,1.5c2,0.6,3.9,1,5.7,1.2c1.8,0.2,3.5,0,5.1-0.6c1.5-0.5,2.9-1.4,4.1-2.7c1.2-1.3,2.2-3,2.9-5.2c0.6-1.9,0.8-3.7,0.6-5.3
			c-0.3-1.6-0.8-3.1-1.7-4.4c-0.9-1.3-2.1-2.5-3.6-3.4c-1.5-1-3.1-1.8-4.9-2.4l-5-1.7L840,135.1z"/>
		<path d="M887.7,117.2l25.7,10.6l-3.2,7.7l-17.3-7.2l-2.9,7l16.4,6.8l-3.2,7.7l-16.4-6.8l-3.2,7.7l18.3,7.6l-3.2,7.7l-26.6-11
			L887.7,117.2z"/>
		<path d="M937.1,139l6.6,3.3l-2.5,44.5l-9.1-4.6l0.7-9.3l-14.2-7.1l-6.9,6.2l-8.9-4.5L937.1,139z M934.9,151.2l-10.1,9.1l8.9,4.5
			L934.9,151.2z"/>
		<path d="M979.2,173.7c-0.2-1.2-0.7-2.3-1.5-3.3c-0.8-1-1.8-1.8-2.7-2.4c-0.6-0.3-1.2-0.6-1.9-0.8c-0.7-0.2-1.4-0.4-2.1-0.4
			c-0.7,0-1.3,0.1-2,0.3c-0.6,0.3-1.1,0.7-1.5,1.4c-0.6,1.1-0.7,2.1-0.3,3.1c0.5,1,1.2,2.1,2.1,3.2c1,1.1,2,2.3,3.2,3.5
			c1.2,1.2,2.1,2.6,2.9,4c0.8,1.4,1.2,3,1.3,4.7c0.1,1.7-0.5,3.6-1.7,5.6c-1.2,2-2.5,3.4-4.1,4.5c-1.6,1-3.3,1.6-5.1,1.9
			c-1.8,0.2-3.7,0.1-5.6-0.4c-1.9-0.5-3.8-1.3-5.6-2.4c-2.3-1.4-4.2-3-5.7-4.8c-1.5-1.9-2.7-4.1-3.4-6.6l9.1-2.8
			c0.2,1.5,0.7,2.9,1.5,4.2c0.9,1.3,1.9,2.3,3.2,3.1c0.6,0.4,1.3,0.7,2,0.9c0.7,0.2,1.4,0.4,2.1,0.4c0.7,0,1.3-0.1,1.9-0.4
			c0.6-0.3,1.1-0.7,1.4-1.4c0.6-1.1,0.7-2.1,0.3-3.2c-0.4-1.1-1.2-2.2-2.1-3.4s-2-2.4-3.2-3.7c-1.2-1.3-2.1-2.6-2.9-4.1
			c-0.8-1.5-1.2-3-1.3-4.7c-0.1-1.7,0.4-3.5,1.6-5.4c1.1-1.9,2.5-3.3,4.1-4.3c1.6-1,3.3-1.6,5.1-1.8c1.8-0.2,3.7-0.1,5.6,0.4
			c1.9,0.5,3.7,1.2,5.4,2.3c2,1.2,3.7,2.6,5.2,4.3c1.5,1.7,2.6,3.6,3.3,5.8L979.2,173.7z"/>
		<path d="M1027.2,245.3l-19.7-14.9c-2.5-1.9-4.6-4.1-6.2-6.5c-1.6-2.4-2.6-4.9-3.1-7.5c-0.5-2.6-0.4-5.3,0.3-8c0.7-2.7,2-5.4,4-8
			c1.9-2.5,4-4.4,6.5-5.7c2.5-1.4,5-2.2,7.7-2.5c2.7-0.3,5.4,0,8.1,0.8c2.7,0.8,5.3,2.1,7.7,3.9c2.4,1.8,4.4,4,5.9,6.4
			s2.5,5,2.9,7.6c0.5,2.7,0.4,5.3-0.3,8.1c-0.6,2.7-1.9,5.3-3.7,7.8c-0.9,1.2-1.9,2.2-3,3.1c-1.1,0.9-2.3,1.7-3.5,2.2s-2.6,1-4,1.1
			s-2.9,0.1-4.3-0.3l-0.1,0.1l9.1,6.9L1027.2,245.3z M1009.9,205.9c-1.1,1.4-1.8,2.9-2.2,4.5c-0.4,1.6-0.5,3.2-0.3,4.8
			c0.2,1.6,0.7,3.1,1.5,4.5c0.8,1.4,1.9,2.7,3.3,3.7c1.4,1,2.9,1.8,4.5,2.1c1.6,0.4,3.2,0.5,4.8,0.2c1.6-0.2,3.1-0.7,4.6-1.6
			c1.4-0.8,2.7-2,3.8-3.4c1.1-1.4,1.8-2.9,2.2-4.5s0.5-3.2,0.3-4.8c-0.2-1.6-0.7-3.1-1.5-4.5c-0.8-1.4-1.9-2.7-3.3-3.7
			s-2.9-1.8-4.5-2.1c-1.6-0.4-3.2-0.5-4.8-0.2c-1.6,0.2-3.1,0.7-4.6,1.6C1012.2,203.4,1011,204.5,1009.9,205.9z"/>
		<path d="M1067.7,260.6c-1.6,1.8-3.4,3.2-5.3,4.2c-1.9,1-3.9,1.6-6,1.8c-2.1,0.1-4.2-0.2-6.4-1c-2.2-0.8-4.3-2.2-6.4-4
			c-2.1-1.9-3.7-3.9-4.7-6c-1-2.1-1.6-4.1-1.7-6.2s0.3-4.1,1.1-6.1c0.8-2,2-3.9,3.7-5.7l16.8-18.7l6.7,6l-16.6,18.4
			c-0.8,0.9-1.5,2-1.9,3c-0.4,1.1-0.6,2.1-0.6,3.2c0,1.1,0.3,2.1,0.7,3.1c0.5,1,1.1,1.9,2,2.7c0.9,0.8,1.8,1.4,2.9,1.7
			c1,0.3,2.1,0.5,3.2,0.4c1.1-0.1,2.1-0.4,3.1-0.9c1-0.5,2-1.3,2.8-2.2l16.6-18.4l6.7,6L1067.7,260.6z"/>
		<path d="M1093.9,251.2l19.2,20l-6,5.8l-13-13.5l-5.5,5.3l12.3,12.8l-6,5.8l-12.3-12.8l-6,5.8l13.7,14.3l-6,5.8l-19.9-20.8
			L1093.9,251.2z"/>
		<path d="M1142.8,323.9c0.3-1.4,0.3-2.7,0-4.1c-0.3-1.4-1-2.7-2.1-4.1c-1-1.3-2.3-2.4-3.7-3.1c-1.4-0.7-2.9-1.2-4.5-1.3
			c-1.6-0.1-3.2,0.1-4.8,0.6c-1.6,0.5-3.2,1.4-4.7,2.5c-1.5,1.2-2.7,2.5-3.6,3.9c-0.9,1.4-1.5,2.9-1.8,4.5c-0.3,1.5-0.3,3.1,0.1,4.6
			c0.3,1.5,1,2.9,2,4.2c1.1,1.5,2.4,2.5,3.9,3.2c1.5,0.7,3.1,0.9,4.7,0.8l0.2,9.4c-3,0.1-5.7-0.5-8.3-1.9c-2.5-1.4-4.7-3.2-6.4-5.4
			c-2-2.5-3.4-5.2-4.2-7.9c-0.9-2.7-1.2-5.5-0.9-8.2c0.3-2.7,1.1-5.3,2.5-7.8c1.4-2.5,3.4-4.7,6-6.7c2.6-2,5.3-3.4,8-4.1
			c2.8-0.8,5.5-0.9,8.2-0.5c2.7,0.4,5.2,1.4,7.7,2.9s4.6,3.5,6.6,6.1c0.7,0.9,1.4,1.9,2,3c0.6,1.1,1.1,2.3,1.5,3.5
			c0.4,1.2,0.6,2.5,0.7,3.9c0.1,1.4-0.1,2.7-0.4,4.1L1142.8,323.9z"/>
		<path d="M1143.3,340.8c2.7-1.8,5.5-2.9,8.3-3.5c2.8-0.5,5.5-0.5,8.2,0.1c2.6,0.6,5.1,1.8,7.4,3.5c2.3,1.7,4.3,3.9,6.1,6.6
			c1.7,2.7,2.9,5.4,3.6,8.2c0.6,2.8,0.7,5.5,0.2,8.2c-0.5,2.7-1.5,5.2-3.2,7.5c-1.6,2.4-3.8,4.4-6.5,6.2c-2.7,1.8-5.5,2.9-8.3,3.5
			c-2.8,0.5-5.6,0.5-8.2-0.1c-2.6-0.6-5.1-1.8-7.4-3.5c-2.3-1.7-4.3-3.9-6.1-6.6c-1.7-2.7-2.9-5.4-3.6-8.2c-0.6-2.8-0.7-5.5-0.2-8.2
			s1.5-5.2,3.2-7.5C1138.4,344.7,1140.6,342.6,1143.3,340.8z M1148.5,348.6c-1.6,1.1-2.9,2.3-3.9,3.6c-1,1.4-1.7,2.8-2.1,4.4
			c-0.4,1.6-0.4,3.2-0.1,4.9c0.3,1.7,1,3.3,2,4.9c1.1,1.6,2.3,2.9,3.7,3.8c1.4,0.9,2.9,1.6,4.5,1.9c1.6,0.3,3.2,0.3,4.9-0.1
			c1.7-0.4,3.3-1.1,4.9-2.1c1.6-1,2.9-2.2,3.9-3.6c1-1.4,1.7-2.9,2.1-4.4c0.4-1.6,0.4-3.2,0.1-4.9c-0.3-1.7-1-3.3-2-4.9
			c-1.1-1.6-2.3-2.9-3.7-3.8c-1.4-0.9-2.9-1.6-4.5-1.9s-3.2-0.2-4.9,0.1C1151.7,346.9,1150,347.6,1148.5,348.6z"/>
		<path d="M1190.1,376.2l5.8,10.8l-16.9,28.7l0.1,0.1l25-13.4l4.2,7.9l-36,19.2l-5.5-10.4l17.3-29.4l-0.1-0.1l-25.7,13.7l-4.2-7.9
			L1190.1,376.2z"/>
		<path d="M1212.8,444.6c0.5-1,0.8-2.2,0.7-3.5s-0.4-2.5-0.8-3.5c-0.3-0.6-0.6-1.2-1-1.8c-0.4-0.6-0.9-1.1-1.5-1.5
			c-0.5-0.4-1.1-0.7-1.8-0.8c-0.6-0.1-1.3,0-2,0.3c-1.1,0.5-1.8,1.3-2,2.4c-0.2,1.1-0.3,2.4-0.1,3.9c0.1,1.5,0.3,3,0.6,4.7
			c0.2,1.7,0.2,3.3,0,4.9c-0.2,1.6-0.8,3.1-1.7,4.6s-2.5,2.6-4.7,3.6c-2.1,0.9-4.1,1.3-6,1.2c-1.9-0.1-3.6-0.6-5.2-1.4
			c-1.6-0.9-3-2.1-4.3-3.6c-1.3-1.5-2.3-3.3-3.2-5.2c-1.1-2.4-1.7-4.8-1.9-7.2c-0.2-2.4,0.2-4.9,1-7.4l9,3c-0.8,1.3-1.2,2.8-1.2,4.3
			c0,1.6,0.2,3,0.8,4.4c0.3,0.7,0.7,1.3,1.1,1.9s1,1.1,1.5,1.5c0.6,0.4,1.2,0.7,1.8,0.8s1.3,0,2-0.3c1.1-0.5,1.8-1.3,2.1-2.5
			c0.3-1.1,0.3-2.5,0.2-4c-0.1-1.5-0.3-3.1-0.5-4.8c-0.2-1.7-0.2-3.4,0-5c0.2-1.6,0.7-3.2,1.6-4.6c0.9-1.4,2.4-2.6,4.4-3.5
			c2-0.9,3.9-1.3,5.8-1.1c1.9,0.1,3.6,0.6,5.2,1.5c1.6,0.9,3,2.1,4.3,3.6c1.3,1.5,2.3,3.2,3.1,5c0.9,2.1,1.5,4.3,1.8,6.5
			c0.3,2.2,0.1,4.5-0.7,6.7L1212.8,444.6z"/>
		<path d="M1223.7,466.5l-4-10.9l7.5-2.7l11.2,30.3l-7.5,2.7l-4-10.9l-30.9,11.4l-3.1-8.4L1223.7,466.5z"/>
		<path d="M1241.1,491.7l4.5,15.2c0.6,2,0.9,3.9,1.1,5.8c0.1,1.9,0,3.7-0.6,5.3c-0.5,1.6-1.4,3-2.7,4.3c-1.3,1.2-3.1,2.2-5.4,2.9
			c-2.8,0.8-5.3,0.8-7.7-0.1c-2.4-0.9-4.2-2.6-5.5-5.2l-13.6,14.8l-3-10.4l13.3-12.8l-1.3-4.3l-15.7,4.6l-2.5-8.6L1241.1,491.7z
			 M1227.4,505.1l1.5,5.1c0.2,0.8,0.5,1.6,0.8,2.4c0.3,0.9,0.7,1.6,1.2,2.2c0.5,0.6,1.1,1.1,1.8,1.4c0.7,0.3,1.6,0.3,2.7,0
			c1-0.3,1.7-0.7,2.2-1.3c0.5-0.6,0.8-1.2,0.9-1.9c0.1-0.7,0.1-1.5,0-2.3c-0.1-0.8-0.3-1.7-0.5-2.4l-1.7-5.6L1227.4,505.1z"/>
		<path d="M1235.2,571c-2.4,0.5-4.6,0.6-6.8,0.3c-2.1-0.3-4.1-1-5.9-2.1c-1.8-1.1-3.3-2.6-4.6-4.5c-1.3-1.9-2.2-4.3-2.8-7
			c-0.6-2.8-0.7-5.3-0.3-7.6c0.4-2.3,1.2-4.3,2.3-6c1.2-1.7,2.7-3.2,4.5-4.3c1.8-1.1,3.9-2,6.3-2.5l24.5-5.2l1.9,8.8l-24.2,5.2
			c-1.2,0.3-2.3,0.7-3.3,1.3s-1.8,1.4-2.4,2.2c-0.6,0.9-1,1.9-1.3,3c-0.2,1.1-0.2,2.2,0,3.4c0.2,1.2,0.7,2.2,1.3,3.1
			c0.6,0.9,1.4,1.6,2.3,2.2c0.9,0.5,2,0.9,3.1,1.1c1.1,0.2,2.3,0.1,3.6-0.1l24.2-5.2l1.9,8.8L1235.2,571z"/>
		<path d="M1240,591.6l21.1-18.4l1.5,11.1l-14,10.6l16.4,7l1.4,10.6l-25.3-12.1l-17.3,2.3l-1.2-8.9L1240,591.6z"/>
		<path d="M1267,620.3l1.8,27.7l-8.3,0.5l-1.2-18.7l-7.6,0.5l1.2,17.7l-8.3,0.5l-1.2-17.7l-8.3,0.5l1.3,19.7l-8.3,0.5l-1.9-28.7
			L1267,620.3z"/>
		<path d="M1269.5,661l-0.2,12.2l-28.7,16.9l0,0.1l28.4,0.5l-0.1,9l-40.8-0.7l0.2-11.8l29.4-17.4l0-0.1l-29.1-0.5l0.1-9L1269.5,661z
			"/>
		<path d="M1252.7,758.1c1.2-0.7,2.1-1.7,2.9-2.9c0.7-1.2,1.2-2.7,1.4-4.3c0.2-1.7,0.1-3.3-0.4-4.8c-0.5-1.5-1.2-2.9-2.3-4.1
			c-1-1.2-2.3-2.2-3.8-3c-1.5-0.8-3.2-1.3-5.1-1.5c-1.9-0.2-3.7-0.2-5.3,0.2c-1.7,0.4-3.1,1-4.4,1.9c-1.3,0.9-2.4,2-3.2,3.3
			c-0.8,1.3-1.3,2.8-1.5,4.4c-0.2,1.8-0.1,3.5,0.5,5c0.6,1.5,1.5,2.8,2.8,3.9l-6.5,6.8c-2.2-2-3.7-4.4-4.5-7.2
			c-0.8-2.8-1.1-5.6-0.7-8.3c0.4-3.2,1.3-6,2.6-8.6c1.3-2.5,3-4.7,5.1-6.4c2.1-1.7,4.5-3,7.3-3.7c2.8-0.8,5.8-0.9,9-0.5
			c3.2,0.4,6.1,1.3,8.6,2.7c2.5,1.4,4.6,3.2,6.2,5.4s2.7,4.7,3.4,7.5c0.7,2.8,0.8,5.8,0.4,8.9c-0.1,1.1-0.4,2.3-0.8,3.5
			c-0.4,1.2-0.9,2.4-1.5,3.5c-0.6,1.1-1.4,2.2-2.3,3.2c-0.9,1-2,1.9-3.2,2.6L1252.7,758.1z"/>
		<path d="M1241.1,770.5c3.2,0.7,6,1.8,8.4,3.4s4.3,3.6,5.7,5.9s2.4,4.9,2.8,7.7c0.4,2.8,0.3,5.8-0.3,8.9c-0.7,3.1-1.7,5.9-3.3,8.3
			c-1.5,2.4-3.4,4.4-5.6,6c-2.2,1.5-4.8,2.6-7.6,3.1c-2.8,0.5-5.8,0.5-9-0.2c-3.2-0.7-6-1.8-8.4-3.4c-2.4-1.6-4.3-3.6-5.7-5.9
			s-2.4-4.9-2.8-7.7c-0.4-2.8-0.3-5.8,0.3-8.9c0.7-3.1,1.7-5.9,3.3-8.3c1.5-2.4,3.4-4.4,5.6-6s4.8-2.6,7.6-3.1
			C1234.9,769.8,1237.9,769.9,1241.1,770.5z M1239.2,779.7c-1.9-0.4-3.7-0.5-5.4-0.2c-1.7,0.3-3.2,0.8-4.6,1.7s-2.5,2-3.5,3.4
			c-1,1.4-1.6,3-2,4.9c-0.4,1.9-0.4,3.7-0.1,5.3c0.3,1.7,0.9,3.2,1.9,4.5c0.9,1.3,2.1,2.5,3.5,3.4c1.4,0.9,3.1,1.6,5,2
			c1.8,0.4,3.6,0.5,5.3,0.2c1.7-0.3,3.2-0.8,4.6-1.7c1.4-0.9,2.5-2,3.5-3.4c1-1.4,1.6-3,2-4.9c0.4-1.9,0.4-3.7,0.1-5.3
			s-0.9-3.2-1.9-4.5c-0.9-1.3-2.1-2.5-3.6-3.4S1241.1,780.1,1239.2,779.7z"/>
		<path d="M1249.3,828.9l-4,13l-28.2,1.1l0,0.1l22.7,16.9l-4,13l-39-12.1l2.7-8.6l29.9,9.3l0-0.1l-26.7-19.5l2-6.6l33-0.6l0-0.1
			l-29.9-9.3l2.7-8.6L1249.3,828.9z"/>
		<path d="M1194.5,907.7c-2.2-0.9-4.2-2.1-5.8-3.6c-1.6-1.5-2.8-3.1-3.7-5s-1.2-4-1.2-6.3c0-2.3,0.6-4.8,1.7-7.4
			c1.1-2.6,2.4-4.8,4-6.4c1.6-1.7,3.4-2.9,5.3-3.6c1.9-0.8,4-1.1,6.2-1c2.2,0.1,4.4,0.6,6.6,1.5l23.2,9.6l-3.4,8.3l-22.9-9.5
			c-1.2-0.5-2.3-0.7-3.5-0.8c-1.1,0-2.2,0.1-3.2,0.5c-1,0.4-1.9,0.9-2.7,1.7s-1.4,1.7-1.9,2.8c-0.5,1.1-0.7,2.2-0.6,3.3
			c0,1.1,0.3,2.1,0.7,3.1c0.4,1,1.1,1.9,1.9,2.6c0.8,0.8,1.8,1.4,3,1.9l22.9,9.5l-3.4,8.3L1194.5,907.7z"/>
		<path d="M1212.2,929.3l-5.6,10.9l-33.2,2.4l-0.1,0.1l25.2,13l-4.1,8l-36.3-18.7l5.4-10.5l34-2.5l0.1-0.1l-25.9-13.3l4.1-8
			L1212.2,929.3z"/>
		<path d="M1188.1,974.3l-4.6,7.7l-35.1-20.9l4.6-7.7L1188.1,974.3z"/>
		<path d="M1177.3,992.6l-7.6,11.2c-1.8,2.7-3.9,5.1-6.1,7.1c-2.3,2-4.7,3.5-7.3,4.4c-2.6,0.9-5.3,1.2-8.2,0.8
			c-2.9-0.4-5.9-1.6-9-3.7c-2.7-1.9-4.8-4-6.2-6.4c-1.4-2.4-2.2-5-2.4-7.7c-0.2-2.7,0.1-5.5,0.9-8.3c0.8-2.8,2.1-5.4,3.8-8l8.2-12.2
			L1177.3,992.6z M1145.3,981.8l-2.6,3.9c-1.2,1.7-2.1,3.4-2.7,5.2c-0.7,1.7-0.9,3.4-0.9,5c0.1,1.6,0.6,3.2,1.5,4.7
			c0.9,1.5,2.3,2.9,4.2,4.2c1.7,1.1,3.3,1.8,5,2s3.2,0.1,4.7-0.5c1.5-0.5,2.9-1.3,4.3-2.5c1.4-1.1,2.6-2.5,3.6-4.1l3-4.4
			L1145.3,981.8z"/>
		<path d="M1141.3,1043l-4.6,5.8l-43-11.6l6.3-7.9l9,2.7l9.9-12.4l-4.6-8.1l6.2-7.8L1141.3,1043z M1129.8,1038.3l-6.8-11.8l-6.2,7.8
			L1129.8,1038.3z"/>
		<path d="M1119.6,1069.3l-9.2,9.8c-2.2,2.4-4.6,4.4-7.2,6c-2.5,1.6-5.2,2.7-7.9,3.2c-2.7,0.5-5.4,0.3-8.2-0.6
			c-2.8-0.9-5.5-2.6-8.3-5.1c-2.4-2.3-4.1-4.7-5.1-7.4c-1-2.6-1.4-5.3-1.2-8c0.2-2.7,0.9-5.4,2.2-8c1.3-2.6,2.9-5,5-7.3l10.1-10.7
			L1119.6,1069.3z M1089.7,1053.6l-3.2,3.4c-1.4,1.5-2.6,3.1-3.5,4.7s-1.5,3.2-1.6,4.8c-0.2,1.6,0.1,3.3,0.7,4.9
			c0.6,1.6,1.8,3.2,3.5,4.8c1.5,1.4,3,2.3,4.6,2.8c1.6,0.5,3.2,0.6,4.7,0.3c1.6-0.3,3.1-0.9,4.6-1.8c1.5-0.9,2.9-2.1,4.2-3.4
			l3.6-3.9L1089.7,1053.6z"/>
		<path d="M1048.3,1106.7l26.9,7.8l-8.5,7.3l-16.5-6l3,17.6l-8.1,6.9l-3.5-27.8l-11.3-13.2l6.8-5.8L1048.3,1106.7z"/>
		<path d="M1022.8,1157l-12.5,8.6c-1.7,1.2-3.5,2.2-5.3,2.9c-1.8,0.8-3.5,1.1-5.2,1.2c-1.7,0-3.3-0.4-4.9-1.2
			c-1.6-0.8-3.1-2.3-4.4-4.3c-1.4-2-2.2-3.8-2.5-5.6c-0.3-1.8-0.1-3.4,0.4-5c0.6-1.6,1.5-3,2.8-4.4c1.3-1.4,2.8-2.7,4.6-3.9l5.4-3.7
			l-9-13.1l7.4-5.1L1022.8,1157z M1005.5,1147.9l-4.9,3.4c-0.7,0.5-1.3,1-1.8,1.5s-0.9,1.1-1.2,1.8c-0.3,0.6-0.4,1.3-0.3,2.1
			c0.1,0.7,0.4,1.5,0.9,2.3c0.6,0.9,1.3,1.4,2,1.7c0.8,0.2,1.5,0.3,2.4,0.2c0.8-0.1,1.6-0.4,2.4-0.9s1.6-0.9,2.3-1.4l3.8-2.6
			L1005.5,1147.9z"/>
		<path d="M989,1179.8l-13.6,8.1c-1.8,1.1-3.6,1.9-5.4,2.5c-1.8,0.6-3.6,0.9-5.2,0.8c-1.7-0.1-3.3-0.6-4.8-1.6
			c-1.5-1-2.9-2.5-4.1-4.5c-1.5-2.5-2.1-5-1.8-7.5c0.3-2.5,1.5-4.7,3.7-6.7l-17.7-9.5l9.3-5.5l15.7,9.7l3.8-2.3l-8.3-14l7.7-4.6
			L989,1179.8z M972.6,1169.9l-4.6,2.7c-0.7,0.4-1.4,0.9-2.2,1.4c-0.7,0.5-1.4,1.1-1.8,1.7c-0.5,0.6-0.8,1.3-0.9,2.1
			c-0.1,0.8,0.1,1.6,0.7,2.6c0.5,0.9,1.1,1.5,1.8,1.8c0.7,0.3,1.4,0.4,2.1,0.4c0.7-0.1,1.5-0.2,2.3-0.6c0.8-0.3,1.5-0.7,2.2-1.1
			l5.1-3L972.6,1169.9z"/>
		<path d="M945.6,1181.8c1.4,2.9,2.2,5.8,2.4,8.7s-0.2,5.6-1.1,8.1c-0.9,2.5-2.4,4.8-4.4,6.9c-2,2.1-4.4,3.8-7.3,5.2
			c-2.9,1.4-5.7,2.2-8.6,2.5c-2.9,0.3-5.6,0-8.2-0.8c-2.6-0.8-4.9-2.2-7.1-4.1c-2.2-1.9-3.9-4.3-5.4-7.3c-1.4-2.9-2.2-5.8-2.4-8.7
			c-0.2-2.9,0.2-5.6,1.1-8.1c0.9-2.5,2.4-4.8,4.4-6.9s4.4-3.8,7.3-5.2c2.9-1.4,5.7-2.2,8.6-2.5c2.9-0.3,5.6,0,8.2,0.8
			c2.6,0.8,4.9,2.2,7.1,4.1C942.3,1176.4,944.1,1178.8,945.6,1181.8z M937.2,1185.9c-0.8-1.7-1.9-3.2-3.1-4.3
			c-1.2-1.2-2.6-2-4.1-2.6c-1.5-0.6-3.1-0.8-4.8-0.7s-3.4,0.6-5.1,1.4c-1.7,0.8-3.1,1.9-4.3,3.2c-1.1,1.3-1.9,2.7-2.4,4.2
			c-0.5,1.5-0.6,3.2-0.5,4.9c0.2,1.7,0.7,3.4,1.5,5.1c0.8,1.7,1.9,3.1,3.1,4.3c1.2,1.2,2.6,2.1,4.1,2.6c1.5,0.6,3.1,0.8,4.8,0.7
			c1.7-0.1,3.4-0.6,5.1-1.4s3.1-1.9,4.3-3.2c1.1-1.3,1.9-2.7,2.4-4.2c0.5-1.5,0.6-3.2,0.5-4.9C938.5,1189.3,938,1187.6,937.2,1185.9
			z"/>
		<path d="M904.6,1224l-12.7,4.8l-18.2-21.6l-0.1,0l0.5,28.3l-12.7,4.8l-14.4-38.2l8.4-3.2l11,29.3l0.1,0l-1-33.1l6.4-2.4l20.7,25.7
			l0.1,0l-11-29.3l8.4-3.2L904.6,1224z"/>
		<path d="M808.6,1229.2c-0.6-2.3-0.9-4.6-0.7-6.7c0.2-2.2,0.7-4.2,1.7-6s2.4-3.4,4.3-4.8c1.9-1.4,4.1-2.5,6.8-3.2
			c2.7-0.8,5.3-1,7.6-0.8c2.3,0.2,4.3,0.9,6.1,2c1.8,1.1,3.3,2.5,4.6,4.2c1.2,1.8,2.2,3.8,2.8,6.2l6.7,24.2l-8.7,2.4l-6.6-23.9
			c-0.3-1.2-0.8-2.3-1.5-3.2s-1.5-1.7-2.4-2.2c-0.9-0.6-1.9-0.9-3-1.1c-1.1-0.2-2.2-0.1-3.4,0.2c-1.1,0.3-2.1,0.8-3,1.5
			c-0.8,0.7-1.5,1.5-2,2.5c-0.5,1-0.8,2-0.9,3.2c-0.1,1.1,0,2.3,0.4,3.6l6.6,23.9l-8.7,2.4L808.6,1229.2z"/>
		<path d="M802.4,1256.3l-27.2,5.4l-1.6-8.2l18.4-3.6l-1.5-7.5l-17.4,3.4l-1.6-8.2l17.4-3.4l-1.6-8.2l-19.4,3.8l-1.6-8.2l28.2-5.6
			L802.4,1256.3z"/>
		<path d="M766.6,1263.2l-10.2,1.3l-13.3-25.3l-0.1,0l-6.9,27.8l-9.6,1.2l11.7-42.6l7.2-0.9L766.6,1263.2z"/>
		<path d="M717.4,1268.8l-27.7,1.4l-0.4-8.3l18.7-1l-0.4-7.6l-17.7,0.9l-0.4-8.3l17.7-0.9l-0.4-8.3l-19.8,1l-0.4-8.3l28.8-1.5
			L717.4,1268.8z"/>
		<path d="M676.8,1270.5l-12.2-0.3l-16.6-28.8l-0.1,0l-0.7,28.4l-9-0.2l1-40.8l11.8,0.3l17.1,29.5l0.1,0l0.7-29.1l9,0.2
			L676.8,1270.5z"/>
		<path d="M608.8,1267.2l-10.2-1.4l-6.3-27.9l-0.1,0l-13.9,25.1l-9.5-1.3l22.4-38.1l7.1,1L608.8,1267.2z"/>
		<path d="M550.1,1257.6l-7.3-1.6l-8.8-43.7l9.9,2.1l1.6,9.2l15.5,3.3l5.2-7.7l9.7,2.1L550.1,1257.6z M549.3,1245.3l7.5-11.4
			l-9.8-2.1L549.3,1245.3z"/>
		<path d="M517,1249.8l-8.6-2.5l9.1-31.3l-16-4.6l2.3-8l24.7,7.2L517,1249.8z"/>
		<path d="M492.4,1221.4c-1.1,3.1-2.7,5.6-4.6,7.8s-4.2,3.7-6.7,4.8c-2.5,1.1-5.2,1.6-8,1.6c-2.9,0-5.8-0.6-8.8-1.7
			c-3-1.1-5.6-2.6-7.7-4.5c-2.2-1.9-3.9-4-5-6.5c-1.2-2.4-1.8-5.1-1.9-8s0.4-5.8,1.6-8.9c1.1-3.1,2.7-5.6,4.6-7.8s4.2-3.7,6.7-4.8
			c2.5-1.1,5.2-1.6,8-1.6c2.9,0,5.8,0.6,8.8,1.7c3,1.1,5.6,2.6,7.7,4.5c2.2,1.9,3.9,4,5,6.5c1.2,2.4,1.8,5.1,1.9,8
			S493.5,1218.4,492.4,1221.4z M483.6,1218.2c0.7-1.8,1-3.6,1-5.3c0-1.7-0.3-3.3-1-4.8c-0.6-1.5-1.6-2.8-2.8-4s-2.7-2.1-4.6-2.7
			c-1.8-0.7-3.5-1-5.2-0.9c-1.7,0.1-3.3,0.5-4.7,1.2c-1.5,0.7-2.7,1.7-3.9,3c-1.1,1.3-2,2.8-2.7,4.6c-0.7,1.8-1,3.5-1,5.2
			c0,1.7,0.3,3.3,0.9,4.8c0.6,1.5,1.6,2.8,2.8,4c1.2,1.2,2.7,2.1,4.6,2.7c1.8,0.7,3.5,1,5.2,0.9c1.7-0.1,3.3-0.5,4.7-1.2
			c1.5-0.7,2.7-1.7,3.9-3C482.1,1221.5,483,1219.9,483.6,1218.2z"/>
		<path d="M434.1,1220.7l-14.3-6.7c-1.9-0.9-3.6-1.9-5.1-3c-1.5-1.2-2.7-2.5-3.6-3.9c-0.9-1.4-1.3-3.1-1.4-4.9
			c-0.1-1.8,0.4-3.8,1.4-5.9c1.2-2.6,2.9-4.5,5.2-5.7c2.2-1.2,4.7-1.4,7.6-0.7l-2.1-20l9.8,4.6l0.8,18.4l4,1.9l6.9-14.8l8.2,3.8
			L434.1,1220.7z M433,1201.6l-4.8-2.2c-0.7-0.3-1.5-0.7-2.4-1c-0.8-0.3-1.7-0.5-2.4-0.6c-0.8,0-1.5,0.1-2.2,0.5
			c-0.7,0.4-1.3,1-1.8,2c-0.4,0.9-0.6,1.8-0.5,2.5c0.1,0.7,0.4,1.4,0.9,2c0.5,0.6,1,1.1,1.8,1.6c0.7,0.5,1.4,0.9,2.2,1.2l5.3,2.5
			L433,1201.6z"/>
		<path d="M396.1,1202.5l-24.3-13.5l4-7.3l16.4,9.1l3.7-6.7l-15.5-8.6l4-7.3l15.5,8.6l4-7.3l-17.3-9.6l4-7.3l25.2,14L396.1,1202.5z"
			/>
		<path d="M349.5,1163.2c0.1,1.2,0.6,2.3,1.4,3.3c0.8,1,1.7,1.9,2.6,2.5c0.6,0.4,1.2,0.7,1.8,0.9c0.7,0.2,1.3,0.4,2,0.5
			c0.7,0.1,1.4,0,2-0.3c0.6-0.2,1.1-0.7,1.5-1.3c0.7-1,0.8-2.1,0.4-3.1c-0.4-1-1.1-2.1-2-3.3c-0.9-1.1-2-2.4-3.1-3.6
			c-1.1-1.3-2-2.6-2.7-4.1c-0.7-1.5-1.1-3.1-1.1-4.8c0-1.7,0.6-3.5,1.9-5.6c1.2-1.9,2.7-3.3,4.3-4.3c1.6-1,3.3-1.5,5.2-1.7
			c1.8-0.2,3.7,0.1,5.6,0.6c1.9,0.6,3.7,1.4,5.5,2.6c2.2,1.4,4.1,3.1,5.6,5c1.5,1.9,2.5,4.2,3.2,6.7l-9.2,2.5
			c-0.1-1.5-0.6-3-1.4-4.3c-0.8-1.3-1.9-2.4-3.1-3.2c-0.6-0.4-1.3-0.7-2-1c-0.7-0.3-1.4-0.4-2.1-0.4c-0.7,0-1.3,0.1-1.9,0.3
			c-0.6,0.3-1.1,0.7-1.5,1.3c-0.7,1-0.8,2.1-0.4,3.2c0.4,1.1,1.1,2.3,2,3.4c0.9,1.2,2,2.4,3.1,3.8c1.1,1.3,2.1,2.7,2.8,4.2
			c0.7,1.5,1.1,3.1,1.2,4.7c0,1.7-0.5,3.5-1.8,5.4c-1.2,1.8-2.6,3.2-4.2,4.2c-1.6,0.9-3.3,1.5-5.2,1.6c-1.8,0.2-3.7,0-5.6-0.6
			c-1.9-0.6-3.7-1.4-5.4-2.4c-1.9-1.2-3.6-2.7-5.1-4.4c-1.5-1.7-2.5-3.7-3.1-5.9L349.5,1163.2z"/>
		<path d="M313.3,1150l-11.9-9.4c-1.7-1.3-3.1-2.7-4.3-4.2c-1.2-1.5-2.1-3-2.6-4.6c-0.5-1.6-0.6-3.3-0.3-5.1
			c0.3-1.8,1.3-3.6,2.8-5.5c1.5-1.9,3-3.2,4.6-4c1.6-0.8,3.2-1.1,4.9-1.1c1.7,0.1,3.3,0.5,5,1.4c1.7,0.8,3.4,1.9,5.1,3.3l5.2,4.1
			l9.9-12.5l7.1,5.6L313.3,1150z M317,1130.8l-4.7-3.7c-0.6-0.5-1.3-0.9-2-1.3c-0.7-0.3-1.4-0.6-2.1-0.6c-0.7-0.1-1.4,0-2.1,0.3
			c-0.7,0.3-1.3,0.8-1.9,1.5c-0.6,0.8-1,1.6-1,2.4c0,0.8,0.2,1.6,0.5,2.3c0.4,0.7,0.9,1.4,1.6,2.1c0.7,0.6,1.3,1.2,2,1.8l3.6,2.9
			L317,1130.8z"/>
		<path d="M296.9,1110.8c-2.2,2.4-4.6,4.2-7.3,5.4s-5.3,1.8-8,1.8c-2.7,0-5.4-0.5-8-1.6c-2.7-1.1-5.1-2.7-7.5-4.9
			c-2.3-2.2-4.2-4.5-5.4-7.1c-1.3-2.6-2-5.2-2.2-7.9c-0.2-2.7,0.3-5.4,1.3-8.1s2.6-5.2,4.8-7.6c2.2-2.4,4.6-4.2,7.3-5.4
			c2.6-1.2,5.3-1.8,8-1.8c2.7,0,5.4,0.5,8,1.6c2.7,1.1,5.1,2.7,7.5,4.9s4.2,4.5,5.4,7.1c1.3,2.6,2,5.2,2.2,7.9
			c0.2,2.7-0.3,5.4-1.3,8.1C300.7,1105.8,299.1,1108.4,296.9,1110.8z M290,1104.4c1.3-1.4,2.3-2.9,2.9-4.5c0.7-1.6,1-3.2,0.9-4.8
			c0-1.6-0.4-3.2-1.1-4.7c-0.7-1.5-1.7-3-3.2-4.3c-1.4-1.3-2.9-2.3-4.5-2.8c-1.6-0.6-3.2-0.8-4.8-0.7c-1.6,0.1-3.2,0.5-4.7,1.3
			c-1.5,0.8-2.9,1.8-4.2,3.3c-1.3,1.4-2.3,2.9-2.9,4.5c-0.7,1.6-1,3.2-1,4.8c0,1.6,0.4,3.2,1.1,4.7c0.7,1.5,1.7,3,3.2,4.3
			c1.4,1.3,2.9,2.3,4.5,2.8c1.6,0.6,3.2,0.8,4.8,0.7c1.6-0.1,3.2-0.5,4.7-1.3C287.3,1106.8,288.7,1105.8,290,1104.4z"/>
		<path d="M237,1066.2c-0.2,1.2,0,2.4,0.5,3.6c0.5,1.2,1.2,2.2,1.9,3.1c0.4,0.5,1,0.9,1.5,1.3c0.6,0.4,1.2,0.7,1.9,1
			c0.7,0.2,1.3,0.3,2,0.2c0.7-0.1,1.3-0.4,1.8-0.9c0.9-0.8,1.3-1.8,1.1-2.9c-0.1-1.1-0.5-2.4-1.1-3.7c-0.6-1.3-1.3-2.8-2.1-4.3
			c-0.8-1.5-1.3-3.1-1.6-4.7c-0.3-1.6-0.3-3.2,0.1-4.9c0.4-1.6,1.5-3.3,3.3-4.9c1.7-1.5,3.4-2.6,5.2-3.1c1.8-0.5,3.6-0.6,5.4-0.3
			c1.8,0.3,3.5,1,5.2,2c1.7,1,3.3,2.3,4.7,3.9c1.8,1.9,3.2,4,4.1,6.2c0.9,2.2,1.4,4.7,1.4,7.3l-9.5,0.1c0.3-1.5,0.2-3-0.3-4.5
			c-0.5-1.5-1.2-2.8-2.2-3.9c-0.5-0.5-1.1-1-1.7-1.5c-0.6-0.4-1.3-0.8-1.9-1c-0.7-0.2-1.3-0.3-2-0.2c-0.6,0.1-1.2,0.4-1.8,0.9
			c-0.9,0.8-1.3,1.8-1.2,3c0.1,1.2,0.5,2.5,1.1,3.8c0.6,1.4,1.3,2.9,2,4.4c0.8,1.6,1.3,3.1,1.7,4.8c0.3,1.6,0.3,3.2,0,4.9
			s-1.4,3.2-3.1,4.8c-1.6,1.5-3.3,2.5-5.1,3c-1.8,0.5-3.6,0.6-5.4,0.3c-1.8-0.3-3.5-1-5.2-2c-1.7-1-3.2-2.2-4.6-3.7
			c-1.6-1.7-2.8-3.6-3.8-5.6c-1-2-1.5-4.2-1.5-6.5L237,1066.2z"/>
		<path d="M218.8,1060.6l-5.8-6.9l31.3-26.3l5.8,6.9L218.8,1060.6z"/>
		<path d="M206.9,1033.3l7.1,9.3l-6.3,4.8l-19.6-25.7l6.3-4.8l7.1,9.3l26.2-19.9l5.4,7.2L206.9,1033.3z"/>
		<path d="M183.5,1014.9l-5.1-7.4l33.7-23.1l5.1,7.4L183.5,1014.9z"/>
		<path d="M173.6,1000.9l-5.3-8.8l17.6-22.6l-0.1-0.1l-28.2,5.2l-5-8.2l43.7-6.9l3.8,6.2L173.6,1000.9z"/>
		<path d="M167.5,951.3c-2.9,1.5-5.8,2.3-8.7,2.5s-5.6-0.1-8.1-1.1c-2.5-0.9-4.9-2.4-7-4.3c-2.1-2-3.9-4.4-5.3-7.2s-2.3-5.7-2.6-8.6
			c-0.3-2.9-0.1-5.6,0.7-8.2c0.8-2.6,2.1-5,4-7.1c1.9-2.2,4.3-4,7.2-5.5c2.9-1.5,5.8-2.3,8.7-2.5s5.6,0.1,8.1,1.1
			c2.5,0.9,4.9,2.4,7,4.3c2.1,2,3.9,4.4,5.3,7.2c1.4,2.9,2.3,5.7,2.6,8.6c0.3,2.9,0.1,5.6-0.7,8.2s-2.1,5-4,7.1
			C172.8,948,170.4,949.8,167.5,951.3z M163.3,942.9c1.7-0.9,3.2-1.9,4.3-3.2c1.2-1.2,2-2.6,2.6-4.2c0.5-1.5,0.8-3.1,0.7-4.8
			c-0.1-1.7-0.6-3.4-1.5-5.1c-0.9-1.7-1.9-3.1-3.2-4.2c-1.3-1.1-2.7-1.9-4.2-2.4c-1.5-0.5-3.2-0.6-4.9-0.4c-1.7,0.2-3.4,0.7-5.1,1.6
			c-1.7,0.8-3.1,1.9-4.3,3.2c-1.2,1.3-2,2.6-2.6,4.2c-0.5,1.5-0.8,3.1-0.7,4.8c0.1,1.7,0.6,3.4,1.5,5.1c0.9,1.7,1.9,3.1,3.2,4.2
			c1.3,1.1,2.7,1.9,4.2,2.4c1.5,0.5,3.2,0.6,4.9,0.4C159.9,944.3,161.6,943.8,163.3,942.9z"/>
		<path d="M126.9,888.6c-0.6,1-0.8,2.2-0.8,3.5c0.1,1.3,0.3,2.5,0.7,3.5c0.2,0.6,0.6,1.2,1,1.8c0.4,0.6,0.9,1.1,1.4,1.5
			c0.5,0.4,1.1,0.7,1.8,0.9c0.6,0.2,1.3,0.1,2-0.2c1.1-0.5,1.8-1.3,2.1-2.4c0.3-1.1,0.3-2.4,0.2-3.9c-0.1-1.5-0.2-3-0.4-4.7
			c-0.2-1.7-0.2-3.3,0.1-4.9c0.3-1.6,0.9-3.1,1.8-4.5c1-1.4,2.6-2.5,4.8-3.4c2.1-0.9,4.1-1.2,6-1.1c1.9,0.1,3.6,0.7,5.2,1.6
			c1.6,0.9,3,2.1,4.2,3.7s2.2,3.3,3,5.3c1,2.5,1.6,4.9,1.7,7.3c0.1,2.4-0.3,4.9-1.2,7.4l-8.9-3.3c0.8-1.3,1.2-2.8,1.3-4.3
			c0.1-1.6-0.1-3-0.7-4.4c-0.3-0.7-0.6-1.3-1.1-2s-0.9-1.2-1.5-1.6c-0.5-0.4-1.1-0.7-1.8-0.8c-0.6-0.1-1.3-0.1-2,0.2
			c-1.1,0.5-1.9,1.3-2.2,2.4c-0.3,1.1-0.4,2.5-0.3,4c0.1,1.5,0.2,3.1,0.4,4.8c0.2,1.7,0.1,3.4-0.1,5c-0.2,1.6-0.8,3.2-1.8,4.6
			c-0.9,1.4-2.4,2.5-4.5,3.4c-2,0.8-4,1.2-5.8,1c-1.9-0.2-3.6-0.7-5.2-1.6c-1.6-0.9-3-2.1-4.2-3.7c-1.2-1.5-2.2-3.2-3-5.1
			c-0.9-2.1-1.4-4.3-1.6-6.6c-0.2-2.2,0.1-4.5,0.8-6.6L126.9,888.6z"/>
		<path d="M104.9,857l-4.3-14.5c-0.6-2-1-4-1.2-5.9c-0.2-1.9,0-3.7,0.5-5.3c0.5-1.6,1.4-3,2.7-4.3c1.3-1.2,3.1-2.2,5.4-2.9
			c2.3-0.7,4.3-0.9,6.1-0.6c1.8,0.3,3.3,0.9,4.6,1.9c1.3,1,2.4,2.4,3.3,4c0.9,1.7,1.7,3.5,2.3,5.6l1.9,6.3l15.3-4.5l2.6,8.6
			L104.9,857z M118.9,843.4l-1.7-5.8c-0.2-0.8-0.5-1.5-0.9-2.2c-0.4-0.7-0.8-1.2-1.3-1.7c-0.5-0.5-1.1-0.8-1.8-1
			c-0.7-0.2-1.5-0.1-2.5,0.2c-1,0.3-1.7,0.8-2.2,1.4c-0.5,0.6-0.8,1.4-0.9,2.2c-0.1,0.8-0.1,1.7,0.1,2.6c0.2,0.9,0.4,1.8,0.6,2.6
			l1.3,4.4L118.9,843.4z"/>
		<path d="M91.8,808.9l-1.6-7.3l36-26.3l2.2,9.9l-7.7,5.3l3.5,15.5l9.2,1.4l2.2,9.7L91.8,808.9z M102.6,802.9l13.5,2.1l-2.2-9.7
			L102.6,802.9z"/>
		<path d="M84.9,775.7l-2.3-15.6c-0.3-2.1-0.4-4-0.3-5.9c0.1-1.9,0.6-3.6,1.3-5.1c0.7-1.5,1.8-2.8,3.3-3.9c1.5-1,3.4-1.7,5.7-2.1
			c2.9-0.4,5.4,0,7.6,1.2c2.2,1.2,3.8,3.2,4.8,6l15.6-12.8l1.6,10.7l-14.9,10.8l0.6,4.4l16.2-2.4l1.3,8.9L84.9,775.7z M100.3,764.3
			l-0.8-5.3c-0.1-0.8-0.3-1.6-0.5-2.5s-0.5-1.7-0.9-2.4s-0.9-1.2-1.6-1.6c-0.7-0.4-1.6-0.5-2.7-0.3c-1,0.2-1.8,0.5-2.4,1
			c-0.5,0.5-0.9,1.1-1.2,1.8c-0.2,0.7-0.3,1.5-0.3,2.3c0,0.9,0.1,1.7,0.2,2.5l0.9,5.8L100.3,764.3z"/>
		<path d="M78.2,720.7l-0.5-7.4l39.5-20.6l0.7,10.1l-8.4,4.1l1.1,15.8l8.9,2.8l0.7,9.9L78.2,720.7z M89.8,716.4l13,4l-0.7-10
			L89.8,716.4z"/>
		<path d="M76.3,666.2l1-27.7l8.3,0.3l-0.7,18.7l7.6,0.3l0.6-17.7l8.3,0.3l-0.6,17.7l8.3,0.3l0.7-19.8l8.3,0.3l-1,28.8L76.3,666.2z"
			/>
		<path d="M78.2,625.7l0.9-9l32.4,3.2l1.6-16.6l8.3,0.8l-2.5,25.6L78.2,625.7z"/>
		<path d="M84.9,570.3l2.9-13.3l28-3.6l0-0.1l-24.1-14.9l2.9-13.3l39.9,8.6l-1.9,8.8L102,536l0,0.1l28.4,17.1l-1.4,6.7l-32.8,3.5
			l0,0.1l30.6,6.6l-1.9,8.8L84.9,570.3z"/>
		<path d="M132.5,486.9c2.3,0.7,4.3,1.7,6.1,3c1.7,1.3,3.1,2.9,4.1,4.7c1,1.8,1.6,3.9,1.8,6.2c0.2,2.3-0.2,4.8-1,7.5
			c-0.8,2.7-2,5-3.4,6.8c-1.4,1.8-3.1,3.2-5,4.1c-1.9,0.9-3.9,1.4-6,1.5c-2.2,0.1-4.4-0.2-6.7-0.9l-24-7.5l2.7-8.6l23.6,7.4
			c1.2,0.4,2.4,0.5,3.5,0.5c1.1-0.1,2.2-0.3,3.2-0.8c1-0.5,1.8-1.1,2.5-2c0.7-0.8,1.3-1.8,1.6-3c0.4-1.1,0.5-2.2,0.3-3.3
			c-0.1-1.1-0.5-2.1-1-3c-0.5-0.9-1.3-1.8-2.2-2.5c-0.9-0.7-2-1.2-3.2-1.6l-23.6-7.4l2.7-8.6L132.5,486.9z"/>
		<path d="M112.9,467l4.6-11.3l32.8-5.4l0-0.1l-26.3-10.7l3.4-8.3l37.8,15.4l-4.4,10.9l-33.7,5.5l0,0.1l26.9,11l-3.4,8.3L112.9,467z
			"/>
		<path d="M133.1,419.2l6.1-12c1.5-2.9,3.2-5.5,5.2-7.8c2-2.3,4.2-4,6.7-5.3c2.5-1.2,5.1-1.8,8.1-1.8c2.9,0,6,0.9,9.4,2.6
			c2.9,1.5,5.3,3.4,6.9,5.6c1.7,2.3,2.8,4.7,3.4,7.4c0.6,2.7,0.6,5.4,0.1,8.3c-0.5,2.9-1.4,5.7-2.8,8.4l-6.7,13.1L133.1,419.2z
			 M166.2,425.9l2.1-4.2c0.9-1.9,1.6-3.7,2.1-5.5c0.4-1.8,0.5-3.5,0.2-5.1c-0.3-1.6-1-3.1-2-4.5c-1.1-1.4-2.7-2.6-4.7-3.7
			c-1.8-0.9-3.5-1.4-5.2-1.4c-1.7,0-3.2,0.3-4.6,1c-1.4,0.7-2.8,1.7-4,3c-1.2,1.3-2.2,2.8-3.1,4.5l-2.4,4.7L166.2,425.9z"/>
		<path d="M171.8,388.6c-2.8-1.7-5-3.8-6.7-6.1c-1.7-2.3-2.8-4.8-3.3-7.5c-0.5-2.7-0.5-5.4,0-8.2c0.6-2.8,1.7-5.6,3.4-8.3
			s3.7-4.9,5.9-6.7c2.3-1.8,4.7-3,7.3-3.7c2.6-0.7,5.3-0.8,8.2-0.3c2.8,0.5,5.6,1.6,8.4,3.3c2.8,1.7,5,3.8,6.7,6.1s2.8,4.8,3.3,7.5
			c0.5,2.7,0.5,5.4,0,8.2c-0.6,2.8-1.7,5.6-3.4,8.3c-1.7,2.7-3.7,4.9-5.9,6.7c-2.3,1.8-4.7,3-7.3,3.7c-2.6,0.7-5.3,0.8-8.2,0.3
			C177.4,391.5,174.6,390.4,171.8,388.6z M176.7,380.7c1.6,1,3.3,1.7,5,2c1.7,0.3,3.3,0.3,4.9,0c1.6-0.3,3.1-1,4.4-2
			c1.4-1,2.6-2.3,3.6-3.9c1-1.6,1.7-3.3,1.9-5c0.3-1.7,0.2-3.3-0.2-4.9c-0.4-1.6-1.1-3-2.2-4.4c-1-1.3-2.4-2.5-4-3.5
			c-1.6-1-3.2-1.7-4.9-2c-1.7-0.3-3.3-0.4-4.9,0c-1.6,0.3-3.1,1-4.4,2c-1.4,1-2.6,2.3-3.6,3.9c-1,1.6-1.7,3.3-1.9,5
			c-0.3,1.7-0.2,3.3,0.2,4.9c0.4,1.6,1.1,3,2.2,4.4C173.8,378.5,175.1,379.7,176.7,380.7z"/>
		<path d="M212.6,353.7c-0.6-0.4-1.1-0.9-1.5-1.5c-0.4-0.6-0.6-1.2-0.7-1.9c-0.1-0.7-0.1-1.4,0.1-2c0.2-0.7,0.5-1.3,0.9-1.9
			c0.4-0.6,0.9-1.1,1.5-1.5c0.6-0.4,1.2-0.6,1.9-0.7c0.7-0.1,1.4-0.1,2,0.1c0.7,0.2,1.3,0.5,1.9,0.9c0.6,0.4,1.1,0.9,1.5,1.5
			c0.4,0.6,0.6,1.2,0.7,1.9c0.1,0.7,0.1,1.4-0.1,2c-0.2,0.7-0.5,1.3-0.9,1.9c-0.4,0.6-0.9,1.1-1.5,1.5c-0.6,0.4-1.2,0.6-1.9,0.7
			c-0.7,0.1-1.4,0.1-2-0.1C213.9,354.4,213.2,354.1,212.6,353.7z"/>
	</g>
	<g>
		<g>
			<path d="M344.8,652.1V396.4h67.5L424,514.9h0.7l11.9-118.5h72.9v255.7h-46v-215h-0.7l-21.4,215h-35.3l-21.5-215H384v215H344.8z"
				/>
			<path d="M578.9,655.7c-16.3,0-29.4-4.9-39.3-14.7c-9.9-9.8-14.8-23.3-14.8-40.4V396.4h46.7v207.2c0,8.7,2.7,13,8.1,12.8
				c3,0,5.1-0.9,6.2-2.7c1.1-1.8,1.6-5.2,1.6-10.1V396.4h46v204.1c0,17-4.9,30.5-14.8,40.4C608.6,650.7,595.4,655.7,578.9,655.7z"/>
			<path d="M700,655.7c-16.5,0-29.6-4.9-39.1-14.6c-9.5-9.7-14.3-23.1-14.3-40.3V447.6c0-17,4.8-30.4,14.3-40.3
				c9.5-9.8,22.6-14.7,39.1-14.7c17,0,30.3,4.9,40,14.7c9.6,9.8,14.5,23.2,14.5,40.4v42.9h-45.6v-46c0-8.4-2.6-12.7-7.8-12.7
				c-3,0-5.1,0.9-6.2,2.8c-1.1,1.9-1.6,5.2-1.6,9.9v159.4c0,4.7,0.5,8,1.6,9.8c1.1,1.8,3.1,2.7,6.2,2.7c5.2,0,7.8-4.2,7.8-12.5
				v-57.2h45.6v54.1c0,17-4.8,30.4-14.5,40.2C730.3,650.8,717,655.7,700,655.7z"/>
			<path d="M766.5,652.1V396.4h46.7v99h16.3v-99h46.7v255.7h-46.7V533.9h-16.3v118.2H766.5z"/>
			<path d="M945.9,655.7c-17,0-30.5-5-40.4-15.1c-9.9-10.1-14.8-24-14.8-41.9V449.8c0-17.7,4.9-31.7,14.8-41.9
				c9.9-10.2,23.3-15.3,40.4-15.3c17.2,0,30.8,5.1,40.5,15.2c9.8,10.1,14.7,24.1,14.7,42v148.9c0,17.7-4.9,31.7-14.7,41.8
				C976.6,650.6,963.1,655.7,945.9,655.7z M945.9,616.4c5.7,0,8.5-4.5,8.5-13.6V445.6c0-9.2-2.8-13.8-8.5-13.8
				c-5.7,0-8.5,4.6-8.5,13.8v157.2C937.4,611.9,940.2,616.4,945.9,616.4z"/>
		</g>
		<g>
			<path d="M349.8,950.7v-258h68.1l11.9,119.6h0.7l12.1-119.6h73.6v258h-46.4V733.7h-0.7l-21.5,216.9h-35.6l-21.7-216.9h-0.7v216.9
				H349.8z"/>
			<path d="M532.6,950.7v-258h95.7v38.9h-48.6v61h41.8v38.9h-41.8v80.3h48.6v38.9H532.6z"/>
			<path d="M690.9,954.3c-16.7,0-29.9-5-39.8-14.9c-9.9-9.9-14.8-23.5-14.8-40.8v-54.2h46.4v58.1c0,8.3,2.5,12.4,7.5,12.2
				c5.2,0,7.9-4.1,7.9-12.2V692.7h47.1v206c0,17.2-4.9,30.7-14.8,40.7C720.5,949.3,707.4,954.3,690.9,954.3z"/>
			<path d="M814.7,954.3c-17.2,0-30.7-5.1-40.7-15.2c-10-10.2-15-24.3-15-42.3V746.5c0-17.9,5-32,15-42.3
				c10-10.3,23.6-15.4,40.7-15.4c17.4,0,31,5.1,40.9,15.3c9.9,10.2,14.8,24.3,14.8,42.4v150.3c0,17.9-4.9,32-14.8,42.2
				C845.8,949.2,832.1,954.3,814.7,954.3z M814.7,914.7c5.7,0,8.6-4.6,8.6-13.7V742.3c0-9.2-2.9-13.9-8.6-13.9
				c-5.7,0-8.6,4.6-8.6,13.9V901C806.2,910.1,809,914.7,814.7,914.7z"/>
			<path d="M884.9,950.7v-258h55c37.1,0,55.7,18.8,55.7,56.4V769c0,22.6-7.2,37.4-21.7,44.4v0.7c14.5,6.9,21.7,21.8,21.7,44.6v92
				h-47.1v-97.1c0-6.9-1.1-11.6-3.4-14.1c-2.3-2.4-6.5-3.7-12.7-3.7H932v114.9H884.9z M932,796.9h3.8c5,0,8.3-1.2,10-3.6
				c1.7-2.4,2.6-7.2,2.6-14.3v-29.6c0-7.2-0.9-12-2.6-14.3c-1.7-2.4-5.1-3.6-10-3.6H932V796.9z"/>
		</g>
	</g>
</g>
</svg>
