<?xml version="1.0" encoding="utf-8"?>
<!-- Generator: Adobe Illustrator 25.4.1, SVG Export Plug-In . SVG Version: 6.00 Build 0)  -->
<svg version="1.1" id="Capa_1" xmlns="http://www.w3.org/2000/svg" xmlns:xlink="http://www.w3.org/1999/xlink" x="0px" y="0px"
	 viewBox="0 0 245 150" style="enable-background:new 0 0 245 150;" xml:space="preserve">
<g>
	<path d="M77.9,74.4L77.9,74.4c0-3.5-2.6-6.4-6.2-6.4c-3.6,0-6.1,2.8-6.1,6.3v0.1c0,3.5,2.6,6.4,6.2,6.4
		C75.3,80.7,77.9,77.9,77.9,74.4 M60.8,74.4L60.8,74.4c0-5.8,4.6-10.5,10.9-10.5c6.3,0,10.8,4.7,10.8,10.4v0.1
		c0,5.8-4.6,10.5-10.9,10.5C65.4,84.8,60.8,80.2,60.8,74.4"/>
	<path d="M85.2,79V69h4.4v8.6c0,2.1,1,3.2,2.7,3.2c1.7,0,2.8-1.1,2.8-3.2V69h4.4v15.5h-4.4v-2.2c-1,1.3-2.3,2.5-4.6,2.5
		C87.2,84.7,85.2,82.6,85.2,79"/>
	<path d="M103.5,80.1v-7.3h-1.9V69h1.9v-4h4.4v4h3.7v3.8H108v6.6c0,1,0.4,1.5,1.4,1.5c0.8,0,1.5-0.2,2.2-0.5v3.5
		c-0.9,0.5-2,0.9-3.5,0.9C105.4,84.7,103.5,83.7,103.5,80.1"/>
	<rect x="114.4" y="63.4" width="4.4" height="21.1"/>
	<path d="M132.5,75.5c-0.3-2-1.4-3.3-3.3-3.3c-1.8,0-3,1.3-3.4,3.3H132.5z M121.5,76.8L121.5,76.8c0-4.5,3.2-8.1,7.7-8.1
		c5.2,0,7.6,4,7.6,8.4c0,0.3,0,0.8-0.1,1.2h-10.9c0.4,2,1.8,3,3.8,3c1.5,0,2.6-0.5,3.8-1.6l2.5,2.2c-1.5,1.8-3.6,2.9-6.4,2.9
		C125,84.8,121.5,81.5,121.5,76.8"/>
	<path d="M140.2,80.1v-7.3h-1.9V69h1.9v-4h4.4v4h3.7v3.8h-3.7v6.6c0,1,0.4,1.5,1.4,1.5c0.8,0,1.5-0.2,2.2-0.5v3.5
		c-0.9,0.5-2,0.9-3.5,0.9C142,84.7,140.2,83.7,140.2,80.1"/>
	<path d="M165,77.1l-4.6-10.3l-4.7,10.3H165z M159.3,64.1h2.2l9.3,20.4h-2.5l-2.4-5.3h-11.1l-2.4,5.3H150L159.3,64.1z"/>
	<path d="M172.9,69.5h2.2v3.9c0.3-0.6,0.6-1.2,1-1.7c0.4-0.5,0.9-1,1.4-1.3c0.5-0.4,1.1-0.7,1.7-0.9c0.6-0.2,1.3-0.3,2-0.3v2.4h-0.2
		c-0.8,0-1.6,0.1-2.3,0.4c-0.7,0.3-1.4,0.7-1.9,1.3c-0.5,0.6-1,1.3-1.3,2.2c-0.3,0.9-0.5,1.8-0.5,3v6h-2.2V69.5z"/>
	<path d="M188.2,83c0.7,0,1.3-0.1,1.9-0.3c0.6-0.2,1.1-0.5,1.6-0.8c0.5-0.4,0.8-0.8,1.1-1.3c0.3-0.5,0.4-1,0.4-1.6v-1.4
		c-0.6-0.2-1.2-0.3-1.9-0.4c-0.7-0.1-1.5-0.2-2.5-0.2c-1.4,0-2.5,0.3-3.2,0.8c-0.8,0.5-1.1,1.3-1.1,2.2V80c0,0.5,0.1,0.9,0.3,1.3
		c0.2,0.4,0.5,0.7,0.8,0.9c0.3,0.2,0.8,0.4,1.2,0.6C187.3,82.9,187.7,83,188.2,83 M187.8,84.8c-0.7,0-1.4-0.1-2.1-0.3
		c-0.7-0.2-1.3-0.5-1.8-0.9c-0.5-0.4-0.9-0.9-1.3-1.5c-0.3-0.6-0.5-1.3-0.5-2v-0.1c0-0.8,0.2-1.5,0.5-2.1c0.3-0.6,0.8-1.1,1.3-1.5
		c0.6-0.4,1.3-0.7,2-0.9c0.8-0.2,1.7-0.3,2.6-0.3c1,0,1.8,0.1,2.5,0.2c0.7,0.1,1.4,0.3,2.1,0.5v-0.5c0-1.3-0.4-2.3-1.2-3
		c-0.8-0.7-1.9-1-3.3-1c-0.9,0-1.7,0.1-2.4,0.3c-0.7,0.2-1.4,0.5-2.1,0.8l-0.7-1.8c0.8-0.4,1.7-0.7,2.5-0.9c0.9-0.2,1.8-0.4,2.9-0.4
		c2.1,0,3.8,0.6,4.9,1.6c1.1,1,1.6,2.5,1.6,4.4v9.1h-2.2v-2.2c-0.5,0.7-1.2,1.3-2.1,1.8C190.2,84.5,189.1,84.8,187.8,84.8"/>
	<path d="M204.3,84.8c-0.9,0-1.7-0.1-2.4-0.4c-0.7-0.3-1.3-0.7-1.8-1.2c-0.5-0.5-0.9-1.2-1.1-1.9c-0.3-0.7-0.4-1.5-0.4-2.4v-9.3h2.2
		v8.7c0,1.4,0.4,2.5,1.1,3.3c0.7,0.8,1.8,1.2,3.1,1.2c0.6,0,1.2-0.1,1.8-0.3c0.6-0.2,1-0.5,1.4-1c0.4-0.4,0.7-0.9,0.9-1.5
		c0.2-0.6,0.4-1.2,0.4-1.9v-8.5h2.2v14.9h-2.2v-2.6c-0.5,0.8-1.2,1.5-2,2.1C206.6,84.5,205.6,84.8,204.3,84.8"/>
	<path d="M222.1,84.8c-1.1,0-2.1-0.2-3.1-0.6c-0.9-0.4-1.8-1-2.5-1.7c-0.7-0.7-1.2-1.5-1.6-2.5c-0.4-0.9-0.6-1.9-0.6-3V77
		c0-1.1,0.2-2.1,0.6-3c0.4-0.9,0.9-1.8,1.6-2.5c0.7-0.7,1.5-1.3,2.5-1.7c0.9-0.4,2-0.6,3.1-0.6c0.7,0,1.4,0.1,2,0.2
		c0.6,0.1,1.1,0.3,1.6,0.6c0.5,0.2,0.9,0.5,1.3,0.9c0.4,0.3,0.8,0.7,1.1,1l-1.5,1.6c-0.6-0.6-1.3-1.1-2-1.6
		c-0.7-0.4-1.6-0.7-2.6-0.7c-0.8,0-1.5,0.1-2.1,0.4c-0.7,0.3-1.2,0.7-1.7,1.2c-0.5,0.5-0.9,1.1-1.1,1.8c-0.3,0.7-0.4,1.5-0.4,2.3V77
		c0,0.8,0.1,1.6,0.4,2.3c0.3,0.7,0.7,1.3,1.2,1.9c0.5,0.5,1.1,0.9,1.8,1.2c0.7,0.3,1.4,0.4,2.2,0.4c1,0,1.8-0.2,2.6-0.6
		c0.7-0.4,1.4-1,2-1.6l1.4,1.3c-0.8,0.8-1.6,1.5-2.6,2.1C224.7,84.5,223.5,84.8,222.1,84.8"/>
	<path d="M237.4,82.8c0.8,0,1.6-0.2,2.2-0.5c0.7-0.3,1.3-0.7,1.8-1.2c0.5-0.5,0.9-1.1,1.1-1.8c0.3-0.7,0.4-1.4,0.4-2.2V77
		c0-0.8-0.1-1.6-0.4-2.3c-0.3-0.7-0.7-1.3-1.2-1.9c-0.5-0.5-1.1-0.9-1.8-1.3c-0.7-0.3-1.4-0.5-2.2-0.5c-0.8,0-1.6,0.2-2.2,0.5
		c-0.7,0.3-1.3,0.7-1.7,1.2c-0.5,0.5-0.9,1.1-1.1,1.8c-0.3,0.7-0.4,1.5-0.4,2.2V77c0,0.8,0.1,1.6,0.4,2.3c0.3,0.7,0.7,1.3,1.2,1.8
		c0.5,0.5,1.1,0.9,1.8,1.2C235.9,82.7,236.6,82.8,237.4,82.8 M237.3,84.8c-1.1,0-2.2-0.2-3.1-0.6c-1-0.4-1.8-1-2.5-1.7
		c-0.7-0.7-1.2-1.5-1.6-2.5c-0.4-0.9-0.6-1.9-0.6-3V77c0-1.1,0.2-2.1,0.6-3c0.4-0.9,0.9-1.8,1.6-2.5c0.7-0.7,1.5-1.3,2.5-1.7
		c1-0.4,2-0.6,3.2-0.6c1.1,0,2.2,0.2,3.1,0.6c1,0.4,1.8,1,2.5,1.7c0.7,0.7,1.2,1.5,1.6,2.5c0.4,0.9,0.6,1.9,0.6,3V77
		c0,1.1-0.2,2.1-0.6,3c-0.4,0.9-0.9,1.8-1.6,2.5c-0.7,0.7-1.5,1.3-2.5,1.7C239.5,84.6,238.5,84.8,237.3,84.8"/>
	<path d="M25.7,49.3C11.5,49.3,0,60.8,0,75s11.5,25.7,25.7,25.7c14.2,0,25.7-11.5,25.7-25.7S40,49.3,25.7,49.3z M20.8,97.7
		c-9.6-2.1-17-10.1-18.2-20c4.9-0.5,9.9,1.1,13.7,4.9C20.5,86.7,22,92.4,20.8,97.7z M25.9,98.3c-1,0-1.9-0.1-2.9-0.3
		c0.3-1.4,0.5-2.8,0.5-4.3c0-1-0.1-2.1-0.3-3.1c0,0,0,0,0,0c-1.2-5.6-5.5-11.2-11.2-14C12.1,69.1,18.3,63,25.9,63
		c7.6,0,13.8,6.1,13.9,13.7c-6.2,3-11.6,9.5-11.6,17c0,1.5,0.2,2.9,0.5,4.3C27.8,98.2,26.8,98.3,25.9,98.3z M31,97.6
		c-1.1-5.3,0.5-11.1,4.6-15.2c3.6-3.6,8.5-5.3,13.2-4.8C47.8,87.4,40.5,95.4,31,97.6z M46.9,75c-1.6,0-3.3,0.3-5,0.9
		c-0.6-8.5-7.6-15.1-16.2-15.1c-8.6,0-15.6,6.6-16.2,15C8,75.2,6.4,75,4.8,75C4,75,3.2,75,2.5,75.1c0-0.1,0-0.1,0-0.2
		c0-12.9,10.4-23.3,23.3-23.3C38.6,51.7,49,62.1,49,74.9c0,0,0,0.1,0,0.1C48.3,75,47.6,75,46.9,75z"/>
</g>
</svg>
