<?xml version="1.0" encoding="utf-8"?>
<!-- Generator: Adobe Illustrator 25.4.1, SVG Export Plug-In . SVG Version: 6.00 Build 0)  -->
<svg version="1.1" id="Capa_1" xmlns="http://www.w3.org/2000/svg" xmlns:xlink="http://www.w3.org/1999/xlink" x="0px" y="0px"
	 viewBox="0 0 245 150" style="enable-background:new 0 0 245 150;" xml:space="preserve">
<g>
	<path d="M21.3,137.9L21.3,137.9c0-6.4,5-11.6,11.9-11.6c6.9,0,11.9,5.1,11.9,11.4v0.1c0,6.3-5,11.5-11.9,11.5
		S21.3,144.2,21.3,137.9 M40,137.9L40,137.9c0-3.9-2.8-7-6.8-7c-4,0-6.7,3.1-6.7,6.9v0.1c0,3.8,2.8,7,6.8,7
		C37.2,144.8,40,141.7,40,137.9"/>
	<path d="M48.1,143v-11h4.9v9.5c0,2.3,1.1,3.5,2.9,3.5c1.9,0,3-1.2,3-3.5V132h4.9v17h-4.9v-2.4c-1.1,1.4-2.6,2.7-5,2.7
		C50.2,149.3,48.1,146.9,48.1,143"/>
	<path d="M68.2,144.1v-8.1h-2.1V132h2.1v-4.3H73v4.3h4v4.1h-4v7.3c0,1.1,0.5,1.7,1.6,1.7c0.9,0,1.7-0.2,2.4-0.6v3.9
		c-1,0.6-2.2,1-3.8,1C70.2,149.3,68.2,148.1,68.2,144.1"/>
	<rect x="80.1" y="125.8" width="4.9" height="23.2"/>
	<path d="M87.9,140.6L87.9,140.6c0-4.9,3.5-8.9,8.5-8.9c5.7,0,8.4,4.4,8.4,9.2c0,0.4,0,0.8-0.1,1.3H92.7c0.5,2.2,2,3.3,4.2,3.3
		c1.6,0,2.8-0.5,4.2-1.7l2.8,2.4c-1.6,2-3.9,3.2-7,3.2C91.7,149.4,87.9,145.8,87.9,140.6 M100,139.1c-0.3-2.2-1.6-3.6-3.6-3.6
		c-2,0-3.3,1.4-3.7,3.6H100z"/>
	<path d="M108.4,144.1v-8.1h-2V132h2v-4.3h4.9v4.3h4v4.1h-4v7.3c0,1.1,0.5,1.7,1.6,1.7c0.9,0,1.7-0.2,2.4-0.6v3.9
		c-1,0.6-2.2,1-3.8,1C110.4,149.3,108.4,148.1,108.4,144.1"/>
	<path d="M129.3,126.6h2.4l10.2,22.4h-2.7l-2.6-5.9h-12.2l-2.7,5.9h-2.6L129.3,126.6z M135.6,140.8l-5.1-11.3l-5.1,11.3H135.6z"/>
	<path d="M144.3,132.6h2.5v4.3c0.3-0.7,0.7-1.3,1.1-1.9c0.4-0.6,1-1.1,1.5-1.5c0.6-0.4,1.2-0.7,1.9-0.9c0.7-0.2,1.4-0.3,2.2-0.3v2.6
		h-0.2c-0.9,0-1.7,0.2-2.5,0.5c-0.8,0.3-1.5,0.8-2.1,1.4c-0.6,0.6-1.1,1.4-1.4,2.4c-0.3,0.9-0.5,2-0.5,3.3v6.5h-2.5V132.6z"/>
	<path d="M160.6,149.3c-0.8,0-1.5-0.1-2.3-0.3c-0.7-0.2-1.4-0.5-2-1c-0.6-0.4-1-1-1.4-1.6c-0.4-0.6-0.5-1.4-0.5-2.2v-0.1
		c0-0.9,0.2-1.7,0.5-2.3c0.3-0.7,0.8-1.2,1.5-1.7c0.6-0.4,1.4-0.8,2.2-1c0.9-0.2,1.8-0.3,2.9-0.3c1.1,0,2,0.1,2.8,0.2
		c0.8,0.1,1.5,0.3,2.3,0.5V139c0-1.4-0.4-2.5-1.3-3.3c-0.9-0.7-2.1-1.1-3.6-1.1c-1,0-1.9,0.1-2.7,0.3c-0.8,0.2-1.6,0.5-2.4,0.9
		l-0.7-2c0.9-0.4,1.8-0.8,2.8-1c0.9-0.3,2-0.4,3.2-0.4c2.3,0,4.1,0.6,5.3,1.8c1.2,1.1,1.7,2.7,1.7,4.8v10h-2.4v-2.4
		c-0.6,0.7-1.4,1.4-2.3,2C163.3,149,162.1,149.3,160.6,149.3 M161.1,147.3c0.8,0,1.5-0.1,2.1-0.3c0.7-0.2,1.2-0.5,1.7-0.9
		c0.5-0.4,0.9-0.9,1.2-1.4c0.3-0.5,0.4-1.1,0.4-1.8v-1.5c-0.6-0.2-1.3-0.3-2.1-0.5c-0.8-0.1-1.7-0.2-2.7-0.2c-1.5,0-2.7,0.3-3.6,0.9
		c-0.8,0.6-1.3,1.4-1.3,2.4v0.1c0,0.5,0.1,1,0.3,1.4c0.2,0.4,0.5,0.8,0.9,1c0.4,0.3,0.8,0.5,1.3,0.6
		C160.1,147.2,160.6,147.3,161.1,147.3"/>
	<path d="M178.7,149.3c-1,0-1.9-0.2-2.7-0.5c-0.8-0.3-1.4-0.8-2-1.3c-0.5-0.6-1-1.3-1.2-2.1c-0.3-0.8-0.4-1.7-0.4-2.7v-10.2h2.5v9.6
		c0,1.5,0.4,2.7,1.2,3.6c0.8,0.9,1.9,1.3,3.4,1.3c0.7,0,1.4-0.1,2-0.4c0.6-0.2,1.1-0.6,1.6-1c0.4-0.5,0.8-1,1-1.6
		c0.3-0.6,0.4-1.3,0.4-2.1v-9.4h2.4V149h-2.4v-2.9c-0.6,0.9-1.3,1.6-2.2,2.3C181.3,149,180.2,149.3,178.7,149.3"/>
	<path d="M198.2,149.4c-1.2,0-2.3-0.2-3.4-0.7c-1-0.5-1.9-1.1-2.7-1.8c-0.8-0.8-1.4-1.7-1.8-2.7c-0.4-1-0.6-2.1-0.6-3.3v-0.1
		c0-1.2,0.2-2.3,0.6-3.3c0.4-1,1-1.9,1.8-2.7c0.8-0.8,1.7-1.4,2.7-1.9c1-0.5,2.2-0.7,3.4-0.7c0.8,0,1.5,0.1,2.1,0.2
		c0.6,0.1,1.2,0.4,1.8,0.6c0.5,0.3,1,0.6,1.5,0.9c0.4,0.4,0.9,0.7,1.2,1.1l-1.6,1.7c-0.7-0.7-1.4-1.3-2.2-1.7
		c-0.8-0.5-1.7-0.7-2.9-0.7c-0.8,0-1.6,0.2-2.3,0.5c-0.7,0.3-1.4,0.8-1.9,1.3c-0.5,0.6-1,1.2-1.2,2c-0.3,0.8-0.4,1.6-0.4,2.5v0.1
		c0,0.9,0.2,1.7,0.5,2.5c0.3,0.8,0.7,1.4,1.3,2c0.5,0.6,1.2,1,1.9,1.4c0.7,0.3,1.5,0.5,2.4,0.5c1.1,0,2-0.2,2.8-0.7
		c0.8-0.5,1.6-1,2.2-1.7l1.6,1.5c-0.8,0.9-1.8,1.7-2.8,2.3C201.1,149.1,199.8,149.4,198.2,149.4"/>
	<path d="M215,149.4c-1.2,0-2.4-0.2-3.4-0.7c-1-0.5-2-1.1-2.7-1.8c-0.8-0.8-1.4-1.7-1.8-2.7c-0.4-1-0.6-2.1-0.6-3.3v-0.1
		c0-1.2,0.2-2.3,0.6-3.3c0.4-1,1-1.9,1.8-2.7c0.8-0.8,1.7-1.4,2.7-1.9c1.1-0.5,2.2-0.7,3.5-0.7c1.2,0,2.4,0.2,3.4,0.7
		c1.1,0.5,2,1.1,2.7,1.8c0.8,0.8,1.4,1.7,1.8,2.7c0.4,1,0.6,2.1,0.6,3.3v0.1c0,1.2-0.2,2.3-0.7,3.3c-0.4,1-1,1.9-1.8,2.7
		c-0.8,0.8-1.7,1.4-2.8,1.9C217.4,149.1,216.3,149.4,215,149.4 M215.1,147.2c0.9,0,1.7-0.2,2.5-0.5c0.7-0.3,1.4-0.8,1.9-1.4
		c0.5-0.6,1-1.2,1.2-2c0.3-0.8,0.4-1.6,0.4-2.4v-0.1c0-0.9-0.2-1.7-0.5-2.5c-0.3-0.8-0.7-1.4-1.3-2c-0.6-0.6-1.2-1-2-1.4
		c-0.7-0.3-1.6-0.5-2.4-0.5c-0.9,0-1.7,0.2-2.5,0.5c-0.7,0.3-1.4,0.8-1.9,1.4c-0.5,0.6-0.9,1.2-1.2,2c-0.3,0.8-0.4,1.6-0.4,2.5v0.1
		c0,0.9,0.2,1.7,0.5,2.5c0.3,0.8,0.7,1.4,1.3,2c0.5,0.6,1.2,1,1.9,1.4C213.4,147,214.2,147.2,215.1,147.2"/>
	<path d="M122.8,0C94.2,0,71,23.2,71,51.8s23.2,51.8,51.8,51.8c28.6,0,51.8-23.2,51.8-51.8S151.4,0,122.8,0z M112.9,97.5
		c-19.4-4.2-34.3-20.3-36.7-40.3c9.8-1.1,20,2.3,27.6,9.8C112.2,75.4,115.3,86.9,112.9,97.5z M123,98.8c-2,0-3.9-0.2-5.8-0.6
		c0.7-2.8,1-5.7,1-8.7c0-2-0.2-4.1-0.7-6.2c0,0,0,0,0,0c-2.4-11.2-11-22.6-22.5-28.1c0.3-15.2,12.8-27.4,28-27.4
		c15.3,0,27.8,12.3,28,27.6c-12.5,6-23.4,19.1-23.4,34.3c0,3,0.4,5.9,1,8.7C126.9,98.6,125,98.8,123,98.8z M133.5,97.4
		c-2.2-10.7,1-22.3,9.4-30.6c7.3-7.3,17.1-10.6,26.5-9.7C167.1,76.8,152.5,92.9,133.5,97.4z M165.5,51.8c-3.3,0-6.6,0.6-10,1.7
		c-1.2-17-15.4-30.5-32.7-30.5c-17.2,0-31.3,13.3-32.7,30.2c-3-0.9-6.2-1.4-9.5-1.4c-1.6,0-3.1,0.1-4.7,0.3c0-0.1,0-0.2,0-0.3
		c0-25.9,21-46.9,46.9-46.9c25.9,0,46.9,21,46.9,46.9c0,0.1,0,0.2,0,0.3C168.3,51.8,166.9,51.8,165.5,51.8z"/>
</g>
</svg>
