<?xml version="1.0" encoding="utf-8"?>
<!-- Generator: Adobe Illustrator 26.1.0, SVG Export Plug-In . SVG Version: 6.00 Build 0)  -->
<svg version="1.1" id="tira" xmlns="http://www.w3.org/2000/svg" xmlns:xlink="http://www.w3.org/1999/xlink" x="0px" y="0px"
	 viewBox="0 0 344.4 86.2" style="enable-background:new 0 0 344.4 86.2;" xml:space="preserve">
<style type="text/css">
	.st0{fill:#163A1B;}
	.st1{fill:#FFFFFF;}
	.st2{fill:#00AB4E;}
	.st3{fill:#263A78;}
	.st4{fill:#F04A5D;}
</style>
<g>
	<g>
		<path class="st0" d="M-359.3-648.3c6.7,0,13.4,0.2,18,0.7c0,2.1-2.1,50.9-2.9,82.6c4.4,0,8.5,0,11.1,0c2.9,0,9,6,10.1,6
			c1.8,0.2,3.4-5.1,5.1-5.1c4.6,0.3,8.8,0.5,10.9,0.7c3.3,0.2,2.8,19.3,1.6,21.2c-0.3,0.5-7.8,0.7-17.5,0.7
			c-19.6,0-48.5-0.7-48.5-0.7v-0.3c-0.3,0-0.7,0-1.1,0c0-2-1.5-22.8-1.5-26.9c0-0.8,4.4-2.4,4.4-4.9c0-3.1-5.5-4.1-5.5-5.2
			c0-1.1-2.8-59.9-2.8-68.1C-374.8-648-367.1-648.3-359.3-648.3z"/>
		<path class="st0" d="M-260.5-653.2c-9.8,0-19.6,2.6-27.4,9.8c-1.6,1.6-0.5,6.5-0.8,9.5c-2.1,1.3-6.5,0-7.7,2.4
			c-4.1,8.3-6.5,19.6-6.5,34.6c0,39,13.2,59.6,42.4,59.6c16.2,0,26.6-6.2,33.3-16.2c1.1-0.7,1.1-6.7,1-9.3c2.4-1.3,5.5-3.9,5.5-6.2
			c2-7.5,2.8-15.8,2.8-24.6C-218-633-234.1-653.2-260.5-653.2z M-258.9-562.8c-12.9,0-12.9-16.3-12.9-32.1
			c0-21.2,3.1-30.5,11.3-30.5c12.9,0,14,15.5,14,30.4C-246.5-566.1-252.7-562.8-258.9-562.8z"/>
		<path class="st0" d="M-262.3-660.7c-3.8,0-7.2-0.2-8.5-0.8c4.7-13.1,11.1-27.6,14.5-31.3c1.6-0.7,7.8-0.8,13.9-0.8
			c5.9,0,11.6,0.2,11.8,0.8c0,1.8-17.5,29.5-20.1,31.3C-252.2-661.1-257.6-660.7-262.3-660.7z"/>
		<path class="st0" d="M-213.1-601.7c0-18.6,4.4-30,13.2-38.5c1.1-1.1,8.8,2.1,10,1.3c0.5-1.3-2-8.3-1.1-8.8
			c6.5-4.1,12.7-5.5,19.7-5.5c40.3,0,41.3,33,41.3,47.2c0,1.6-7.5,2.6-14.4,2.6c-6.2,0-11.9-0.8-11.9-2.3c0-12.7-4.4-19.6-13.1-19.6
			c-12.7,0-14.5,18.1-14.5,28.4c0,27.6,6.4,34.1,14.4,34.1c9.6,0,14.7-4.1,14.7-10.4c-1.6,0-8.6,0.5-13.5-0.5v-18
			c0-1,8-1.5,16.8-1.5c11.1,0,23.5,0.8,23.5,2.3c0,15.8-3.9,30.2-9,38.5c-0.3,0.5-0.8,0.7-1.3,0.7c-2.1,0-5.9-2.4-7.3-1.1
			c-0.7,2,3.8,6.9,1.8,8.2c-6.2,4.6-15.7,7.3-24.2,7.3C-210.5-537.4-213.1-573.3-213.1-601.7z"/>
		<path class="st0" d="M-100.5-648.3c6.7,0,13.4,0.2,18,0.7c0,0.5,0.2,8,0,14c-0.2,2.1-6.5,4.1-6.5,6.9c-0.2,3.1,5.5,3.4,5.5,7
			c-1,27.9-2.4,63-2.4,76c-8,1.6-16,2.3-27.7,1.5c0-2-1.5-22.8-1.5-27.1c0-0.8,4.4-2.4,4.4-4.7c0-3.3-5.5-4.2-5.5-5.4
			c0-1.1-2.8-60.1-2.8-68.2C-116-648-108.3-648.3-100.5-648.3z"/>
		<path class="st0" d="M-73.5-601.7c0-18.6,4.4-30,13.2-38.5c1.1-1.1,7.7,0.8,8.8,0c0.5-1.3-0.8-7,0-7.5c6.5-4.1,12.7-5.5,19.7-5.5
			c40.3,0,41.3,33,41.3,47.2c0,1.6-7.5,2.6-14.4,2.6c-6.2,0-11.9-0.8-11.9-2.3c0-12.7-4.4-19.6-13.1-19.6
			c-12.7,0-14.5,20.9-14.5,31.2c0,27.6,6.4,31.3,14.4,31.3c9.6,0,14.9-5.5,14.9-21.9c0-0.8,4.9-1.3,10.3-1.3
			c6.9,0,14.4,0.8,14.4,2.8c0,15.8-2,22.5-7,30.8c-1,1.6-3.1,0.7-4.9,0.7c-0.8,0-1.5,0.2-2,0.7c-0.7,2,2,5.1,0,6.4
			c-6.2,4.6-15.7,7.3-24.2,7.3C-70.9-537.4-73.5-573.3-73.5-601.7z"/>
		<path class="st0" d="M58.8-653.2c-9.8,0-19.6,2.6-27.4,9.8c-1.6,1.6-0.5,6.5-0.8,9.5c-2.1,1.3-6.5,0-7.7,2.4
			c-4.1,8.3-6.5,19.6-6.5,34.6c0,39,13.2,59.6,42.4,59.6c16.2,0,26.6-6.2,33.3-16.2c1.1-0.7,1.1-6.7,1-9.3c2.4-1.3,5.5-3.9,5.5-6.2
			c2-7.5,2.8-15.8,2.8-24.6C101.4-633,85.2-653.2,58.8-653.2z M60.4-562.8c-12.9,0-12.9-16.3-12.9-32.1c0-21.2,3.1-30.5,11.3-30.5
			c12.9,0,14,15.5,14,30.4C72.8-566.1,66.6-562.8,60.4-562.8z"/>
		<path class="st0" d="M-380.8-723.8c3.2-7.5,7.5-15.6,12.5-24.3c2-3.2,15.4,14.8,18,13.3c2.6-1.4-9-28.4-7.5-31
			c15.1-24.9,38.2-49.8,48.1-65.7c-30.1-0.6-65.5-1.4-66.3-2.3c-2.3-1.7-1.4-42.8,0.9-43.4c2.6-0.9,25.5-0.9,51.3-0.9
			c35,0,75.6,0.3,76.8,0.9c0.6,0.3,0.9,4.6,0.6,11.6c0,0.9-31.6,2.3-31.6,3.2c0,1.4,31,7.2,31,8.4c-0.3,6.9-0.6,10.1-1.7,12.4
			c-17.1,35-47.5,73.2-64.3,104.5c32.4,0.9,68.1,1.4,69.2,2.3c2,1.7,2.3,46,0,46.9c-1.2,0.3-15.4,0-28.7,0.6
			c-4.1,0-3.8-13.3-8.4-13.3c-4.9,0-10.1,13.9-15.4,13.9c-39.1,0.3-86,0-86.6-1.2v-0.6C-385.1-703.9-381.3-720.9-380.8-723.8z"/>
		<path class="st0" d="M-147.4-909.1c-23.2,0-46.9,4.9-63.4,24.6c-3.5,4.1,10.7,22.3,8.1,27.5c-1.4,2.9-14.5-3.5-20-3.5
			c-1.2,0-1.7,0.3-2,0.9c-5.2,15.1-8.4,34.2-8.4,58.8c0,66.9,13,120.5,85.7,120.5c25.2,0,44.9-4.6,58.5-19.1
			c3.8-3.8-11.3-17.7-8.7-22.9c1.7-3.2,19.7,9.8,21.1,6.4c6.4-16.8,11-46.1,11-76.5C-65.4-878.4-86.2-909.1-147.4-909.1z
			 M-147.4-735.3c-18.5,0-24.3-20.9-24.3-57.1c0-44.3,9.3-61.7,24.3-61.7c16.5,0,21.4,20.3,21.4,60.5
			C-125.9-753.3-134.6-735.3-147.4-735.3z"/>
		<path class="st0" d="M-41.1-870.6c1.2-3.2,15.6,4.6,17.1,2c2-4.1-9.6-18.5-6.4-21.4c17.1-15.4,42-19.1,60-19.1
			c47.8,0,74.2,24,74.2,91c0,23.8-3.8,46.3-8.7,59.4c-1.2,2.9-15.1-7.2-16.5-4.9c-2,4.1,10.1,15.6,7,18
			C70.7-734.5,49.3-731,29.6-731c-56.5,0-77.3-41.7-77.3-93.8C-47.7-844-44.8-858.7-41.1-870.6z"/>
		<path class="st0" d="M-26.9-719.8c13.3,11,28.4,18.2,57.4,18.2c21.4,0,44.9-8.1,54.7-16.8c5.5,2,17.1,22,20,29.3
			c-12.2,17.4-45.8,27.2-77.3,27.2c-19.7,0-42.9-5.5-51-12.7c-2.9-2.6,4.1-11.3,2-14.5c-1.2-1.7-11.3,12.5-13.3,10.7
			c-4.6-4.1-9.3-4.9-11.9-13.9C-44.2-698.7-36.7-715.5-26.9-719.8z"/>
		<g>
			<g>
				<g>
					<path class="st0" d="M0-956.1c-1.3,0-2.5,0.2-3.6,0.5c2.1,1,3.6,3.1,3.6,5.6c0,3.4-2.8,6.2-6.2,6.2c-2.5,0-4.6-1.5-5.6-3.6
						c-0.4,1.1-0.5,2.4-0.5,3.6c0,6.8,5.5,12.3,12.3,12.3c6.8,0,12.3-5.5,12.3-12.3C12.3-950.6,6.8-956.1,0-956.1z"/>
				</g>
			</g>
			<g>
				<g>
					<path class="st0" d="M56-956.1c-1.3,0-2.5,0.2-3.6,0.5c2.1,1,3.6,3.1,3.6,5.6c0,3.4-2.8,6.2-6.2,6.2c-2.5,0-4.6-1.5-5.6-3.6
						c-0.4,1.1-0.5,2.4-0.5,3.6c0,6.8,5.5,12.3,12.3,12.3c6.8,0,12.3-5.5,12.3-12.3C68.4-950.6,62.8-956.1,56-956.1z"/>
				</g>
			</g>
		</g>
		<g>
			
				<text transform="matrix(1 0 0 1 -875.3926 -181.6452)" style="fill:#317B3C; font-family:'AvantGardeLT-Bold'; font-size:105.9208px; letter-spacing:-4;">amigable</text>
		</g>
	</g>
	<g>
		
			<text transform="matrix(1.001 0 0 1 -769.1332 -1032.994)" style="fill:#48280F; font-family:'OswaldStencil-Bold'; font-size:49.1602px;">Bienvenidos al</text>
	</g>
	<g>
		<path d="M212,52.2l-2.8,7h-6.6l11.9-30.9h7.1l12,30.9h-6.9l-4.2-11.6L212,52.2z M222.2,47.1c0,0-3.8-10.7-4.3-12.5h-0.1
			c-0.5,1.8-4.2,12.5-4.2,12.5H222.2z"/>
		<path d="M234.9,43.8c0-3.2,0-5.4-0.2-7.2h5.3v4.9l0.3-0.9c1.1-3.2,3.7-4.7,6.4-4.7c0.6,0,0.9,0,1.4,0.1l0,6.1
			c-0.4-0.4-1.5-0.5-2.3-0.5c-3.2,0-4.4,2.1-4.8,4.2c-0.1,0.4-0.2,1.6-0.2,2.1l-0.1,11.2h-5.8V43.8z"/>
		<path d="M268.1,53.3c0,2.1,0.1,4.6,0.4,5.8h-5.3l-0.2-3.4l-0.3,0.3c-1.4,1.8-3.5,3.5-7.4,3.5c-4.5,0-7.4-3.2-7.4-6.7
			c0-6.2,4.8-7.9,14.7-7.7l0-1c0-2.2-1.8-3.7-5.2-3.7c-2.3,0-5.3,1.5-6.8,2.4v-5.1c1.5-0.7,4-1.7,8-1.7c7.3,0,9.4,3.5,9.4,9.7
			L268.1,53.3z M262.6,48.6c-6.5-0.2-9,1.2-9,3.6c0,2,1.5,3.1,3.6,3.1c1.9,0,3.5-0.9,4.5-2.5c0.2-0.4,0.8-1.7,0.8-2.2L262.6,48.6z"
			/>
		<path d="M292.2,51.5c0,2.9,0.1,5.7,0.2,7.6h-5.7v-3.2h-0.3c-0.9,1.4-3.4,3.6-7.4,3.6c-4.5,0-7.5-2.9-7.5-8.1V36.6h5.8v11.8
			c0,4,0.8,6.5,4,6.5c2.9,0,4-2.7,4.4-3.8c0.2-0.4,0.3-0.9,0.3-1.5V36.6h6.1V51.5z"/>
		<path d="M311.6,58.7c-1.2,0.6-3.8,0.8-6.4,0.8c-7.3,0-10.6-5-10.6-12c0-6.6,3.2-11.4,11.5-11.4c1.8,0,3.5,0.2,5,0.8l-0.4,4.4
			c-0.8-0.4-2.2-0.8-4-0.8c-3.7,0-6,3.6-6,7.3c0,4.1,2.7,7,6.1,7c1.7,0,3.5-0.3,4.6-0.7L311.6,58.7z"/>
		<path d="M335.2,47.6c0,8.2-5.8,12-11.8,12c-6.6,0-11.6-4.3-11.6-11.6c0-7.3,4.8-11.9,12-11.9C330.6,36,335.2,40.8,335.2,47.6
			 M317.9,47.8c0,4.1,2,7.2,5.8,7.2c3.5,0,5.6-2.9,5.6-7.2c0-3.5-1.6-7.1-5.6-7.1C319.6,40.6,317.9,44.3,317.9,47.8"/>
		<path d="M91.3,28.3h7c3.6,0,6,0.7,7.6,2.3c1.5,1.5,2.4,3.5,2.4,6.3c0,2.8-0.5,4.3-2,5.9c-2,2.3-4.9,3.1-8.5,3.1l-3.6,0v13h-3.1
			V28.3z M94.5,43.2c0,0,2.3,0.1,3.5,0.1c4.4,0,7.1-2.2,7.1-6.4c0-4.2-2.6-5.9-6.7-5.9c-1.6,0-4,0.1-4,0.1V43.2z"/>
		<path d="M130.2,44c0-2.6,0-5.3-0.2-7.4h2.6v4.9h0.1c0.9-3,3.2-5.2,5.7-5.2c0.4,0,1.8,0.2,2.1,0.3v2.7c-0.4-0.1-1.2-0.2-2.3-0.2
			c-2.6,0-4.5,2.1-5,5.2c-0.1,0.6-0.1,2.6-0.1,3.2v11.6h-2.9V44z"/>
		<path d="M156.8,55.2l-0.3,0.4c-1.1,2.2-2.7,4-7.2,4c-4.8,0-8.6-4.5-8.6-11.3c0-8.4,3.4-12.1,9.2-12.1c3.2,0,5.6,1.6,6.6,3.7
			l0.3,0.4l0-3.6h3.1c-0.1,1.9-0.2,3.8-0.2,6.2v25.4h-2.9V55.2z M156.6,45.7c0-0.6-0.3-1.6-0.4-2.1c-0.7-2.7-2.8-5.1-5.9-5.1
			c-4.2,0-6.8,3.9-6.8,9.4c0,4.9,2.1,9.1,6.6,9.1c2.6,0,4.9-1.8,5.9-4.8c0.2-0.7,0.6-2.1,0.6-2.7L156.6,45.7z"/>
		<path d="M181.4,52.8c0,2.4,0,4.4,0.2,6.2h-2.8v-4l-0.3,0.5c-0.9,1.8-2.7,4-7.3,4c-4,0-7.3-2-7.3-9.8V36.6h2.9v12.4
			c0,7.1,2.3,8.2,5.6,8.2c3.5,0,5-2.9,5.7-4.7c0.2-0.6,0.3-1.3,0.3-2.1V36.6h2.9V52.8z"/>
		<path d="M187.4,48.6c0.1,5.5,3.5,8.5,7.2,8.5c2.7,0,5-0.9,6.4-1.6l-0.1,2.7c-1.3,0.6-3.4,1.3-6.6,1.3c-6.3,0-10-4.6-10-11.3
			c0-6.8,3.6-12,9.6-12c7.3,0,8.7,6.4,8.7,10.5c0,0.8,0.1,1.4,0,1.9H187.4z M199.6,46.2c0-3-1.1-7.7-5.8-7.7c-4.3,0-6.1,4.4-6.4,7.7
			H199.6z"/>
		<path d="M126.1,58.9l-2.7,0.1l0-3.5l-0.5,0.7c-1.1,1.8-3.6,3.2-6.5,3.2c-4.7,0-7.6-2.2-7.6-6.3c0-5.9,5.7-7.9,13.6-7.8l0.7,0
			c0-1.8,0.5-6.9-5.2-6.9c-1.9,0-4.8,0.8-6.2,1.8l0-2.6c1.7-0.9,4.2-1.7,6.7-1.7c6.2,0,7.6,4,7.6,9.1v10.4L126.1,58.9z M123,47.6
			c-5-0.1-11.1,0.8-11.1,5.5c0,2.9,1.9,4,4.2,4c3.3,0,5.5-1.1,6.2-3.2c0.2-0.5,0.7-2.3,0.7-2.7L123,47.6z"/>
		<path d="M335,31.5h-0.8v-6.6h2.3c1.5,0,2.5,0.6,2.5,1.8c0,0.9-0.7,1.6-1.9,1.7l2.2,3.1h-0.9l-2-3.1H335V31.5z M335,27.8h1.4
			c1.4,0,1.8-0.5,1.8-1.2c0-0.6-0.5-1.1-1.8-1.1H335V27.8z"/>
		<path d="M336.3,22.2c-3.3,0-6,2.7-6,6c0,3.3,2.7,6,6,6c3.3,0,6-2.7,6-6C342.2,24.9,339.6,22.2,336.3,22.2 M336.3,32.9
			c-2.6,0-4.8-2.1-4.8-4.8c0-2.6,2.1-4.8,4.8-4.8c2.6,0,4.8,2.1,4.8,4.8C341,30.8,338.9,32.9,336.3,32.9"/>
		<g>
			<path class="st1" d="M83.9,41.9c0,23.2-18.8,41.9-41.9,41.9C18.8,83.9,0,65.1,0,41.9S18.8,0,41.9,0C65.1,0,83.9,18.8,83.9,41.9"
				/>
			<path class="st2" d="M79.6,46.1C72,45.4,64.1,48,58.1,54c-6.8,6.8-9.3,16.1-7.6,24.8C66,75.2,77.8,62.2,79.6,46.1"/>
			<path class="st2" d="M4.3,46.3c1.9,16.2,14,29.2,29.7,32.6c1.9-8.6-0.6-17.9-7.4-24.6C20.5,48.1,12.2,45.4,4.3,46.3"/>
			<path class="st3" d="M41.9,3.9C21,3.9,4,20.9,4,41.8c0,0.1,0,0.2,0,0.3c1.2-0.2,2.5-0.2,3.8-0.2c2.7,0,5.2,0.4,7.7,1.2
				C16.6,29.4,28,18.6,41.9,18.6c14,0,25.5,10.9,26.4,24.6c2.7-0.9,5.4-1.4,8.1-1.4c1.1,0,2.3,0.1,3.4,0.2c0-0.1,0-0.2,0-0.2
				C79.9,20.9,62.9,3.9,41.9,3.9"/>
			<path class="st4" d="M45.9,72.4c0-12.3,8.8-22.8,18.9-27.7c-0.2-12.3-10.3-22.3-22.7-22.3c-12.4,0-22.4,9.9-22.7,22.2
				c9.3,4.5,16.3,13.7,18.2,22.8c0,0,0,0,0,0c0.4,1.7,0.6,3.4,0.6,5c0,2.4-0.3,4.8-0.8,7.1c1.5,0.3,3.1,0.5,4.7,0.5
				c1.6,0,3.1-0.2,4.6-0.5C46.2,77.2,45.9,74.9,45.9,72.4"/>
		</g>
	</g>
</g>
</svg>
