<?xml version="1.0" encoding="utf-8"?>
<!-- Generator: Adobe Illustrator 26.1.0, SVG Export Plug-In . SVG Version: 6.00 Build 0)  -->
<svg version="1.1"
	 id="svg2" inkscape:version="1.0 (4035a4fb49, 2020-05-01)" sodipodi:docname="Logo-PA-Horizontal_blanco.svg" xmlns:cc="http://creativecommons.org/ns#" xmlns:dc="http://purl.org/dc/elements/1.1/" xmlns:inkscape="http://www.inkscape.org/namespaces/inkscape" xmlns:rdf="http://www.w3.org/1999/02/22-rdf-syntax-ns#" xmlns:sodipodi="http://sodipodi.sourceforge.net/DTD/sodipodi-0.dtd" xmlns:svg="http://www.w3.org/2000/svg"
	 xmlns="http://www.w3.org/2000/svg" xmlns:xlink="http://www.w3.org/1999/xlink" x="0px" y="0px" viewBox="0 0 790 192"
	 style="enable-background:new 0 0 790 192;" xml:space="preserve">
<style type="text/css">
	.st0{clip-path:url(#SVGID_00000039097537821191092450000001218496612516218762_);}
	.st1{fill:#FFFFFF;}
	.st2{fill:#42A430;}
	.st3{fill:#264A95;}
	.st4{fill:#ED192E;}
</style>
<sodipodi:namedview  bordercolor="#666666" borderopacity="1" gridtolerance="10" guidetolerance="10" id="namedview46" inkscape:current-layer="svg2" inkscape:cx="528" inkscape:cy="408" inkscape:document-rotation="0" inkscape:pageopacity="0" inkscape:pageshadow="2" inkscape:window-height="1017" inkscape:window-maximized="1" inkscape:window-width="1920" inkscape:window-x="-8" inkscape:window-y="-8" inkscape:zoom="1.000947" objecttolerance="10" pagecolor="#ffffff" showgrid="false">
	</sodipodi:namedview>
<g id="g10" transform="matrix(1.3333333,0,0,-1.3333333,-132.87228,504.29707)">
	<g id="g12">
		<g>
			<defs>
				<rect id="SVGID_1_" x="-132" y="-102" width="1056" height="816"/>
			</defs>
			<clipPath id="SVGID_00000026882558874559308260000007908541696594090911_">
				<use xlink:href="#SVGID_1_"  style="overflow:visible;"/>
			</clipPath>
			<g id="g14" style="clip-path:url(#SVGID_00000026882558874559308260000007908541696594090911_);">
				<g id="g20" transform="translate(264.8962,303.739)">
					<path id="path22" class="st1" d="M0,0h3.6c7.8,0,15.2,0.9,15.2,10.4c0,6.6-3.8,10.4-10.4,10.4H0V0z M-5.2,25.3H7.7
						c9.9,0,16.3-5,16.3-14.9C24,0.6,16.6-4.5,7.2-4.5H0v-22.7h-5.2V25.3z"/>
				</g>
				<g id="g24" transform="translate(314.6895,295.8275)">
					<path id="path26" class="st1" d="M0,0h-1.4c-8.2,0-18-0.8-18-9.3c0-5,3.6-6.9,8-6.9C-0.2-16.2,0-6.5,0-2.3V0z M0.4-13.2H0.3
						c-2.1-4.6-7.5-7.1-12.2-7.1c-10.9,0-12.7,7.4-12.7,10.8c0,12.9,13.7,13.5,23.7,13.5H0V6c0,6.6-2.3,9.9-8.7,9.9
						c-4,0-7.8-0.9-11.3-3.2v4.6c3,1.4,7.9,2.6,11.3,2.6C0.7,20,4.7,15.7,4.7,5.6v-16.9c0-3.1,0-5.4,0.4-8.1H0.4V-13.2z"/>
				</g>
				<g id="g28" transform="translate(326.9588,306.2928)">
					<path id="path30" class="st1" d="M0,0c0,4.2,0,5.8-0.3,8.6h4.8V1.2h0.2c1.7,4.3,5,8.3,9.9,8.3c1.1,0,2.5-0.2,3.3-0.5v-5
						c-1,0.3-2.3,0.4-3.5,0.4c-7.5,0-9.6-8.4-9.6-15.4v-19H0V0z"/>
				</g>
				<g id="g32" transform="translate(361.2368,279.6313)">
					<path id="path34" class="st1" d="M0,0c8.4,0,11.4,9,11.4,16c0,7-2.9,16-11.4,16c-9,0-11.4-8.6-11.4-16C-11.4,8.6-9,0,0,0
						 M16.1-19h-4.7V3.4h-0.1c-2.3-5-6-7.5-12-7.5c-10.5,0-15.8,8.7-15.8,20.1c0,11.7,4.5,20.1,15.8,20.1c8.1,0,11.1-5.8,12-7.2h0.1
						v6.3h4.7V-19z"/>
				</g>
				<g id="g36" transform="translate(415.0247,285.5047)">
					<path id="path38" class="st1" d="M0,0c0-2.9,0-5.9,0.3-9h-4.6v6.9h-0.2C-6-5.6-8.9-9.9-16.9-9.9C-26.4-9.9-30-3.6-30,4.8v24.6
						h4.7V6c0-7.2,2.6-11.9,9.1-11.9c8.7,0,11.4,7.6,11.4,14v21.2H0V0z"/>
				</g>
				<g id="g40" transform="translate(446.5765,298.3921)">
					<path id="path42" class="st1" d="M0,0c0,6.7-2.7,13.3-9.8,13.3c-7,0-11.3-7-11.3-13.3H0z M2.3-20.7c-3.3-1.4-7.6-2.1-11.2-2.1
						c-12.7,0-17.5,8.6-17.5,20.1c0,11.8,6.5,20.1,16.2,20.1C0.7,17.4,5.2,8.7,5.2-1.7v-2.4h-26.3c0-8.1,4.4-14.7,12.7-14.7
						c3.5,0,8.5,1.4,10.8,2.9L2.3-20.7z"/>
				</g>
				<g id="g44" transform="translate(478.0655,318.4991)">
					<path id="path46" class="st1" d="M0,0h-0.2l-7.6-21.7H7.6L0,0z M-5.8,10.5H6.1L26.7-42H15.1L7.6-21.7L-10.8-30L-15.4-42h-10.9
						L-5.8,10.5z"/>
				</g>
				<g id="g48" transform="translate(507.1348,315.2525)">
					<path id="path50" class="st1" d="M0,0h8.9v-8.8h0.2c0.5,3.6,4.6,9.7,10.6,9.7c1,0,2,0,3.1-0.3V-9.6c-0.9,0.5-2.7,0.8-4.5,0.8
						c-8.2,0-8.2-10.2-8.2-15.8v-14.2H0V0z"/>
				</g>
				<g id="g52" transform="translate(545.9968,282.9509)">
					<path id="path54" class="st1" d="M0,0c3.1,0,5.5,1.4,7.1,3.5c1.7,2.2,2.1,5,2.1,8H4.8c-4.5,0-11.2-0.8-11.2-6.7
						C-6.4,1.4-3.6,0,0,0 M-11.8,30.3c3.9,1.8,9.2,2.9,13.5,2.9c11.8,0,16.7-4.9,16.7-16.4v-5c0-3.9,0.1-6.9,0.2-9.7
						c0.1-2.9,0.2-5.6,0.4-8.7h-8.9c-0.4,2-0.4,4.6-0.5,5.8H9.5C7.1-5,2.1-7.4-2.5-7.4C-9.3-7.4-16-3.2-16,4.1
						c0,5.8,2.8,9.2,6.6,11.1c3.8,1.9,8.8,2.3,13,2.3h5.6c0,6.2-2.8,8.4-8.7,8.4c-4.3,0-8.6-1.7-12-4.2L-11.8,30.3z"/>
				</g>
				<g id="g56" transform="translate(606.1709,276.4707)">
					<path id="path58" class="st1" d="M0,0h-9.6v5.3h-0.2c-3.1-3.8-7.5-6.2-12.7-6.2c-9.2,0-13.2,6.5-13.2,15.2v24.5h10.1V18.1
						c0-4.7,0.1-11.2,6.6-11.2c7.3,0,8.9,7.9,8.9,12.9v19H0V0z"/>
				</g>
				<g id="g60" transform="translate(637.9698,306.8995)">
					<path id="path62" class="st1" d="M0,0c-1.8,0.8-3.8,1.4-6.9,1.4c-6.3,0-10.2-5-10.2-12.3c0-7.2,3.4-12.7,10.5-12.7
						c2.9,0,6,1.1,7.8,1.8l0.5-8.4c-2.9-0.9-6-1.3-10.1-1.3c-12.7,0-19.1,8.7-19.1,20.5C-27.7,0.4-21,9.3-8.9,9.3
						c4.1,0,7-0.5,9.8-1.3L0,0z"/>
				</g>
				<g id="g64" transform="translate(660.249,283.3926)">
					<path id="path66" class="st1" d="M0,0c7.8,0,9.8,6.9,9.8,13.4c0,6-3.2,11.5-9.8,11.5c-6.6,0-9.7-5.7-9.7-11.5C-9.7,7-7.7,0,0,0
						 M0,32.8c11.5,0,20.3-7.8,20.3-20.6c0-11.2-7.5-20-20.3-20c-12.8,0-20.3,8.9-20.3,20C-20.3,25-11.5,32.8,0,32.8"/>
				</g>
				<g id="g68" transform="translate(679.0469,329.8918)">
					<path id="path70" class="st1" d="M0,0h2c1.3,0,2.4,0.2,2.4,1.8c0,1.4-1.3,1.6-2.4,1.6H0V0z M-2.2,5.1h4.4c2.9,0,4.4-1,4.4-3.5
						c0-2-1.2-3-3.1-3.2l3.2-5.2H4.4L1.3-1.7H0v-5.1h-2.2V5.1z M9.8-0.9c0,4.9-3.6,8.5-7.9,8.5c-4.4,0-8-3.5-8-8.5
						c0-4.9,3.5-8.5,8-8.5C6.2-9.4,9.8-5.8,9.8-0.9 M-8.6-0.9c0,5.8,4.7,10.5,10.5,10.5c5.8,0,10.5-4.7,10.5-10.5
						c0-5.8-4.7-10.5-10.5-10.5C-3.9-11.4-8.6-6.7-8.6-0.9"/>
				</g>
				<g id="g72" transform="translate(242.9669,306.0046)">
					<path id="path74" class="st1" d="M0,0c0-39.3-31.9-71.2-71.2-71.2c-39.3,0-71.2,31.9-71.2,71.2c0,39.3,31.9,71.2,71.2,71.2
						C-31.9,71.2,0,39.3,0,0"/>
				</g>
				<g id="g76" transform="translate(236.8108,298.6507)">
					<path id="path78" class="st2" d="M0,0c-1,0.1-2.1,0.1-3.2,0.1C-29.6,0.1-51-21.3-51-47.7c0-3,0.3-5.8,0.8-8.6
						C-23.6-50.2-3.1-27.7,0,0"/>
				</g>
				<g id="g80" transform="translate(110.5596,298.7748)">
					<path id="path82" class="st2" d="M0,0c-1.3,0-2.5-0.1-3.8-0.2C-0.6-28.1,20.1-50.7,47-56.6c0.5,2.8,0.8,5.8,0.8,8.8
						C47.8-21.5,26.4,0,0,0"/>
				</g>
				<g id="g84" transform="translate(110.5596,305.783)">
					<path id="path86" class="st3" d="M0,0c5.3,0,10.4-0.7,15.3-2.2c1.7,23.9,21.7,42.8,46,42.8c24.4,0,44.3-19,46-43
						c5,1.5,10.4,2.3,15.9,2.3c1.2,0,2.4,0,3.6-0.1c0,0.1,0,0.3,0,0.4c0,36.1-29.3,65.4-65.4,65.4S-4.2,36.4-4.2,0.3
						c0-0.2,0-0.3,0-0.4C-2.8,0-1.4,0,0,0"/>
				</g>
				<g id="g88" transform="translate(178.7772,250.9249)">
					<path id="path90" class="st4" d="M0,0c0,22.1,13.2,41.3,32.1,49.9C31.8,71.2,14.4,88.5-7,88.5c-21.3,0-38.6-17.1-39.1-38.3
						C-26.8,41.6-13.4,22.4-13.4,0c0-3.4-0.3-6.7-0.9-9.9c2.4-0.3,4.8-0.4,7.3-0.4c2.6,0,5.3,0.2,7.9,0.5C0.3-6.7,0-3.4,0,0"/>
				</g>
			</g>
		</g>
	</g>
</g>
</svg>
