<?xml version="1.0" encoding="utf-8"?>
<!-- Generator: Adobe Illustrator 26.1.0, SVG Export Plug-In . SVG Version: 6.00 Build 0)  -->
<svg version="1.1" id="tira" xmlns="http://www.w3.org/2000/svg" xmlns:xlink="http://www.w3.org/1999/xlink" x="0px" y="0px"
	 viewBox="0 0 169 103.4" style="enable-background:new 0 0 169 103.4;" xml:space="preserve">
<style type="text/css">
	.st0{fill:none;}
	.st1{fill:#000001;}
</style>
<rect class="st0" width="169" height="103.4"/>
<g>
	<path d="M-326.7-10.5h-1v1.4h1c0.4,0,0.7-0.3,0.7-0.7C-326-10.2-326.3-10.5-326.7-10.5z"/>
	<path d="M-369.1-24.4c-2.3,0-3.9,1.7-3.9,4c0,2.3,1.6,4,3.9,4c2.3,0,3.9-1.7,3.9-4C-365.2-22.7-366.8-24.4-369.1-24.4z"/>
	<path d="M-411.1-49.4l-6,32.7L-282,8.3l6-32.7L-411.1-49.4z M-327.7-26.1h2v9.7h6v1.8h-8V-26.1z M-397.9-15.1h-3.3v-10.6h3.3V-15.1
		z M-380.8-15.1h-3l-4.2-5.1v5.1h-3.5v-10.6h3l4.1,5.2v-5.2h3.5V-15.1z M-369.1-14.6c-3.3,0-5.8-2.5-5.8-5.8c0-3.3,2.5-5.8,5.8-5.8
		c3.3,0,5.8,2.5,5.8,5.8C-363.3-17.1-365.8-14.6-369.1-14.6z M-347.6-19.4c0,2.9-2.1,4.9-5,4.9c-3.1,0-5-1.9-5-4.9v-6.7h2v6.7
		c0,2,1.1,3.1,3,3.1c2.8,0,3.1-2.2,3.1-3.1v-6.7h2V-19.4z M-332.8-24.2h-3.8v9.5h-2v-9.5h-4v-2h9.8V-24.2z M-326.5-8.1h-1.1v1.2
		h-1.1v-4.6h2.3c0.9,0,1.7,0.5,1.7,1.7C-324.8-8.7-325.6-8.1-326.5-8.1z M-319.5-6.8c-1.1,0-1.8-1.3-2.4-1.7h-0.2v1.7h-1.1l0,0h0h0
		v-4.6h2.2c0.9,0,1.8,0.4,1.8,1.5c0,0.7-0.5,1.2-1.2,1.4c0.4,0.4,0.8,0.8,1.2,0.8c0.1,0,0.3,0,0.5-0.1l0.1,0.9
		C-318.9-6.9-319.2-6.8-319.5-6.8z M-313.8-10.5h-2.6v0.8h2.1v1h-2.1v0.9h2.6v1l-3.7,0v-4.6h3.7V-10.5z M-306.9-6.9h-1.1v-2.8
		l-1.4,1.7h-0.2l-1.4-1.7v2.8h-1.1v-4.6h1l1.6,1.9l1.6-1.9h1V-6.9z M-305.6-24.2h-6.9v2.6h5.8v1.8h-5.8v3.3h6.9v1.8h-8.7v-11.5h8.7
		V-24.2z M-304.1-6.9h-1.1v-4.6h1.1V-6.9z M-298-8.8c0,1.1-0.8,2-2.1,2c-1.4,0-2.1-0.9-2.1-2v-2.6h1.1v2.5c0,0.7,0.3,1.1,1,1.1
		c0.7,0,1-0.4,1-1.1v-2.5h1.1V-8.8z M-291.2-6.9h-1.1h0v-2.8l-1.4,1.7h-0.2l-1.4-1.7v2.8h-1.1v-4.6h1l1.6,1.9l1.6-1.9h1V-6.9z
		 M-291.2-24.2h-3.8v9.5h-2v-9.5h-4v-2h9.8V-24.2z"/>
	<path d="M-321.2-10.5l-1,0v1.1h1c0.4,0,0.6-0.2,0.6-0.6C-320.6-10.3-320.8-10.5-321.2-10.5z"/>
</g>
<g>
	<path class="st1" d="M79.8,7.3c-10,0-18.1,8-18.1,18c0,10,8,18.1,18,18.1c10,0,18.1-8,18.1-18C97.9,15.4,89.8,7.3,79.8,7.3z
		 M76.2,41.5c-6.8-1.5-12.1-7.3-12.9-14.3c0.3,0,0.6,0,1,0c6.7,0,12.1,5.5,12.1,12.2C76.4,40.1,76.3,40.8,76.2,41.5z M79.8,41.9
		c-0.6,0-1.2,0-1.8-0.1c0.2-0.8,0.2-1.7,0.2-2.5c0-5.7-3.4-10.6-8.3-12.7c0.1-5.4,4.5-9.7,9.9-9.7c5.4,0,9.8,4.4,9.9,9.8
		c-4.8,2.2-8.2,7-8.2,12.6c0,0.8,0.1,1.7,0.2,2.5C81.1,41.9,80.4,41.9,79.8,41.9z M83.5,41.5c-0.1-0.7-0.2-1.4-0.2-2.2
		c0-6.7,5.5-12.1,12.2-12.1c0.3,0,0.5,0,0.8,0C95.5,34.3,90.3,39.9,83.5,41.5z M95.5,25.4c-1.4,0-2.7,0.2-4,0.6
		c-0.4-6.1-5.5-10.9-11.6-10.9c-6.2,0-11.2,4.8-11.7,10.8c-1.2-0.4-2.5-0.6-3.9-0.6c-0.4,0-0.7,0-1.1,0c0,0,0-0.1,0-0.1
		c0-9.2,7.5-16.6,16.6-16.6c9.2,0,16.6,7.5,16.6,16.6v0.1C96.1,25.4,95.8,25.4,95.5,25.4z"/>
	<g>
		<path class="st1" d="M140.4,61.2c0-1.7,1.4-3.1,3.1-3.1c1.7,0,3.1,1.4,3.1,3.1c0,1.7-1.4,3.1-3.1,3.1
			C141.8,64.3,140.4,62.9,140.4,61.2 M145.9,61.2c0-1.5-1-2.5-2.4-2.5c-1.3,0-2.4,1.1-2.4,2.5c0,1.5,1,2.5,2.4,2.5
			C144.9,63.7,145.9,62.7,145.9,61.2 M142.4,59.4l1.3,0c0.8,0,1.3,0.3,1.3,1c0,0.6-0.3,0.9-0.9,1L145,63l-0.7,0l-0.9-1.5l-0.4,0
			l0,1.5l-0.7,0L142.4,59.4z M143,60.9l0.6,0c0.4,0,0.7,0,0.7-0.5c0-0.4-0.4-0.5-0.7-0.5l-0.6,0L143,60.9z"/>
		<polygon class="st1" points="22.4,60.6 25.4,60.6 25.4,73.3 31.2,73.3 31.2,75.7 22.3,75.7 		"/>
		<path class="st1" d="M32.6,65.2c1.1-0.5,2.6-0.8,3.9-0.8c3.4,0,4.8,1.4,4.8,4.7l0,1.4c0,1.1,0,2,0,2.8c0,0.8,0.1,1.6,0.1,2.5
			l-2.6,0c-0.1-0.6-0.1-1.3-0.1-1.7h0C38,75.3,36.5,76,35.2,76c-2,0-3.9-1.2-3.9-3.3c0-1.7,0.8-2.6,1.9-3.2c1.1-0.5,2.5-0.6,3.7-0.6
			l1.6,0c0-1.8-0.8-2.4-2.5-2.4c-1.2,0-2.5,0.5-3.4,1.2L32.6,65.2z M35.9,73.8c0.9,0,1.6-0.4,2-1c0.5-0.6,0.6-1.4,0.6-2.3l-1.3,0
			c-1.3,0-3.2,0.2-3.2,1.9C34.1,73.4,34.9,73.8,35.9,73.8"/>
		<path class="st1" d="M43.2,64.6l2.7,0l0,1.6h0c0.9-1.4,2.2-1.8,3.3-1.8c1.6,0,2.7,0.6,3.3,2c0.7-1.3,2.1-2,3.5-2
			c2.7,0,3.5,1.9,3.5,4.4l0,7l-2.9,0l0-6.6c0-1,0-2.5-1.7-2.5c-1.9,0-2.2,2.3-2.2,3.7l0,5.4l-2.9,0l0-6.6c0-1,0-2.5-1.7-2.5
			c-1.9,0-2.2,2.3-2.2,3.7l0,5.4l-2.9,0L43.2,64.6z"/>
		<path class="st1" d="M61.6,59.6l2.9,0l0,6.5h0c0.8-1.1,1.8-1.7,3.3-1.7c3.4,0,4.7,2.7,4.6,5.8c0,3-1.3,5.8-4.7,5.8
			c-1.2,0-2.6-0.4-3.4-1.6h0l0,1.4l-2.8,0L61.6,59.6z M67.1,73.8c1.9,0,2.4-2.1,2.5-3.6c0-1.5-0.5-3.5-2.4-3.6c-1.9,0-2.6,2-2.6,3.5
			C64.5,71.7,65.1,73.8,67.1,73.8"/>
		<path class="st1" d="M74.1,64.7l2.6,0l0,2.5l0,0c0.1-1,1.3-2.8,3-2.8c0.3,0,0.6,0,0.9,0.1l0,2.9c-0.3-0.1-0.8-0.2-1.3-0.2
			c-2.4,0-2.4,2.9-2.4,4.5l0,4.1l-2.9,0L74.1,64.7z"/>
		<path class="st1" d="M82.1,65.3c1.1-0.5,2.6-0.8,3.9-0.8c3.4,0,4.8,1.4,4.8,4.7l0,1.4c0,1.1,0,2,0,2.8c0,0.8,0.1,1.6,0.1,2.5
			l-2.6,0c-0.1-0.6-0.1-1.3-0.1-1.7l0,0c-0.7,1.2-2.1,1.9-3.4,1.9c-2,0-3.9-1.2-3.9-3.3c0-1.7,0.8-2.6,1.9-3.2
			c1.1-0.5,2.5-0.6,3.7-0.6l1.6,0c0-1.8-0.8-2.4-2.5-2.4c-1.2,0-2.5,0.5-3.4,1.2L82.1,65.3z M85.4,74c0.9,0,1.6-0.4,2-1
			c0.5-0.6,0.6-1.4,0.6-2.3l-1.3,0c-1.3,0-3.2,0.2-3.2,1.9C83.6,73.5,84.4,74,85.4,74"/>
		<path class="st1" d="M92.7,64.7l2.7,0l0,1.6h0c0.9-1.4,2.2-1.8,3.3-1.8c1.6,0,2.7,0.6,3.3,2c0.7-1.3,2.1-2,3.5-2
			c2.7,0,3.5,1.9,3.5,4.4l0,7l-2.9,0l0-6.6c0-1,0-2.5-1.7-2.5c-1.9,0-2.2,2.3-2.2,3.7l0,5.4l-2.9,0l0-6.6c0-1,0-2.5-1.7-2.5
			c-1.9,0-2.2,2.3-2.2,3.7l0,5.4l-2.9,0L92.7,64.7z"/>
		<path class="st1" d="M111.6,65.3c1.1-0.5,2.6-0.8,3.9-0.8c3.4,0,4.8,1.4,4.8,4.7l0,1.4c0,1.1,0,2,0,2.8c0,0.8,0.1,1.6,0.1,2.5
			l-2.6,0c-0.1-0.6-0.1-1.3-0.1-1.7l0,0c-0.7,1.2-2.1,1.9-3.4,1.9c-2,0-3.9-1.2-3.9-3.3c0-1.7,0.8-2.6,1.9-3.2
			c1.1-0.5,2.5-0.6,3.7-0.6l1.6,0c0-1.8-0.8-2.4-2.5-2.4c-1.2,0-2.5,0.5-3.4,1.2L111.6,65.3z M115,74c0.9,0,1.6-0.4,2-1
			c0.5-0.6,0.6-1.4,0.6-2.3l-1.3,0c-1.3,0-3.2,0.2-3.2,1.9C113.2,73.6,114,74,115,74"/>
		<path class="st1" d="M122.3,64.8l2.7,0l0,1.5h0c0.9-1.3,2.1-1.8,3.7-1.8c2.6,0,3.8,1.9,3.8,4.4l0,7l-2.9,0l0-5.9
			c0-1.4,0-3.2-1.9-3.2c-2.1,0-2.6,2.3-2.6,3.7l0,5.4l-2.9,0L122.3,64.8z"/>
		<path class="st1" d="M134.8,60l2.9,0l0,2.8l-2.9,0L134.8,60z M134.8,64.8l2.9,0l0,11.1l-2.9,0L134.8,64.8z"/>
	</g>
	<g>
		<path class="st1" d="M52.3,42.5l3.5,0c2.7,0,4.5,1.4,4.5,4.1c0,2.7-2,4.1-4.6,4.1l-2,0l0,6.2l-1.4,0L52.3,42.5z M53.7,49.4l1,0
			c2.2,0,4.2-0.2,4.2-2.8c0-1.8-1-2.9-2.8-2.9l-2.3,0L53.7,49.4z"/>
		<path class="st1" d="M67.7,55.3L67.7,55.3c-0.6,1.3-2.1,1.9-3.4,1.9c-3,0-3.5-2-3.5-3c0-3.5,3.8-3.7,6.5-3.7l0.2,0l0-0.5
			c0-1.8-0.6-2.7-2.4-2.7c-1.1,0-2.1,0.2-3.1,0.9l0-1.3c0.8-0.4,2.2-0.7,3.1-0.7c2.6,0,3.7,1.2,3.7,3.9l0,4.6c0,0.8,0,1.5,0.1,2.2
			l-1.3,0L67.7,55.3z M67.6,51.6l-0.4,0c-2.3,0-4.9,0.2-4.9,2.5c0,1.4,1,1.9,2.2,1.9c3.1,0,3.1-2.7,3.1-3.8L67.6,51.6z"/>
		<path class="st1" d="M71.2,48.8c0-1.2,0-1.6-0.1-2.4l1.3,0l0,2l0,0c0.5-1.2,1.4-2.3,2.7-2.3c0.3,0,0.7,0.1,0.9,0.1l0,1.4
			c-0.3-0.1-0.6-0.1-0.9-0.1c-2.1,0-2.6,2.3-2.6,4.2l0,5.2l-1.3,0L71.2,48.8z"/>
		<path class="st1" d="M85.6,61.3l-1.3,0l0-6.1h0c-0.6,1.4-1.6,2-3.3,2c-2.9,0-4.3-2.4-4.3-5.5c0-3.2,1.2-5.5,4.3-5.5
			c2.2,0,3,1.6,3.3,2l0,0l0-1.7l1.3,0L85.6,61.3z M81.2,56.1c2.3,0,3.1-2.5,3.1-4.4c0-1.9-0.8-4.4-3.1-4.4c-2.5,0-3.1,2.3-3.1,4.4
			C78.1,53.8,78.7,56.1,81.2,56.1"/>
		<path class="st1" d="M96.2,54.5c0,0.8,0,1.6,0.1,2.5L95,57l0-1.9h0c-0.4,0.9-1.2,2.1-3.4,2.1c-2.6,0-3.6-1.7-3.6-4.1l0-6.7l1.3,0
			l0,6.4c0,2,0.7,3.3,2.5,3.3c2.4,0,3.1-2.1,3.1-3.8l0-5.8l1.3,0L96.2,54.5z"/>
		<path class="st1" d="M105.8,56.7c-0.9,0.4-2.1,0.6-3.1,0.6c-3.5,0-4.8-2.4-4.8-5.5c0-3.2,1.8-5.5,4.5-5.5c3,0,4.2,2.4,4.2,5.2
			l0,0.7l-7.2,0c0,2.2,1.2,4,3.5,4c1,0,2.3-0.4,3-0.8L105.8,56.7z M105.1,51c0-1.8-0.7-3.7-2.7-3.7c-1.9,0-3.1,1.9-3.1,3.7L105.1,51
			z"/>
	</g>
	<g>
		<path class="st1" d="M39.1,88.1c-0.3,0.1-0.9,0.3-1.6,0.3c-2.3,0-3.4-1.7-3.4-3.8c0-2.2,1.2-3.8,3.4-3.8c0.8,0,1.4,0.2,1.7,0.3
			L39,82.3c-0.3-0.1-0.7-0.4-1.4-0.4c-1.1,0-2.1,0.8-2.1,2.7c0,1.9,1,2.7,2.1,2.7c0.7,0,1.1-0.2,1.4-0.4L39.1,88.1z"/>
		<polygon class="st1" points="40.3,80.9 44.2,80.9 44.2,82 41.6,81.9 41.6,83.9 44,83.9 44,85 41.6,85 41.6,87.2 44.3,87.2 
			44.3,88.3 40.2,88.3 		"/>
		<polygon class="st1" points="45.6,80.9 47.2,80.9 49.7,86.7 49.7,86.7 49.7,80.9 50.9,80.9 50.9,88.3 49.3,88.3 46.8,82.5 
			46.8,82.5 46.8,88.3 45.6,88.3 		"/>
		<polygon class="st1" points="53.6,82 52,82 52,80.9 56.6,80.9 56.6,82 55,82 55,88.3 53.6,88.3 		"/>
		<path class="st1" d="M57.6,80.9l2.3,0c1.3,0,2.2,0.6,2.2,2c0,1-0.6,1.6-1.4,1.7v0c0.3,0,0.6,0.2,0.8,0.9l1,2.8l-1.5,0l-0.7-2.4
			c-0.2-0.6-0.5-0.8-1-0.8l-0.3,0l0,3.2l-1.4,0L57.6,80.9z M59.5,84.1c0.7,0,1.2-0.4,1.2-1.1c0-0.9-0.4-1.1-1.2-1.1l-0.6,0l0,2.2
			L59.5,84.1z"/>
		<path class="st1" d="M66.3,80.8c1.5,0,3,1.2,3,3.8c0,2.7-1.4,3.8-3,3.8c-1.5,0-3-1.2-3-3.8C63.3,82,64.7,80.8,66.3,80.8
			 M66.2,87.4c0.9,0,1.6-0.7,1.6-2.8c0-2-0.7-2.8-1.6-2.8c-0.9,0-1.6,0.7-1.6,2.8C64.7,86.7,65.4,87.4,66.2,87.4"/>
		<path class="st1" d="M78,88.2c-0.3,0.1-0.9,0.3-1.6,0.3c-2.3,0-3.4-1.7-3.4-3.8c0-2.2,1.2-3.8,3.4-3.8c0.8,0,1.4,0.2,1.7,0.3
			l-0.1,1.2c-0.3-0.1-0.7-0.4-1.4-0.4c-1.1,0-2.1,0.8-2.1,2.7c0,1.9,1,2.7,2.1,2.7c0.7,0,1.1-0.2,1.4-0.4L78,88.2z"/>
		<path class="st1" d="M81.9,80.8c1.5,0,3,1.2,3,3.8c0,2.7-1.4,3.8-3,3.8c-1.5,0-3-1.2-3-3.8C78.9,82,80.3,80.8,81.9,80.8
			 M81.9,87.5c0.9,0,1.6-0.7,1.6-2.8c0-2-0.7-2.8-1.6-2.8c-0.9,0-1.6,0.7-1.6,2.8C80.3,86.7,81,87.5,81.9,87.5"/>
		<polygon class="st1" points="92,82.2 92,82.2 90.1,88.4 89.2,88.4 87.4,82.2 87.4,82.2 87.4,88.4 86.1,88.4 86.1,81 88.2,81 
			89.7,86.5 89.7,86.5 91.3,81 93.3,81 93.3,88.4 92,88.4 		"/>
		<polygon class="st1" points="94.8,81 98.8,81 98.8,82.1 96.2,82.1 96.2,84.1 98.6,84.1 98.6,85.1 96.2,85.1 96.2,87.3 98.9,87.3 
			98.8,88.4 94.8,88.4 		"/>
		<path class="st1" d="M100.1,81l2.3,0c1.3,0,2.2,0.6,2.2,2c0,1-0.6,1.6-1.4,1.7v0c0.3,0,0.6,0.2,0.8,0.9l1,2.8l-1.5,0l-0.7-2.4
			c-0.2-0.6-0.5-0.8-1-0.8l-0.3,0l0,3.2l-1.4,0L100.1,81z M102,84.2c0.7,0,1.2-0.4,1.2-1.1c0-0.9-0.4-1.1-1.2-1.1l-0.6,0l0,2.2
			L102,84.2z"/>
		<path class="st1" d="M110.8,88.3c-0.3,0.1-0.9,0.3-1.6,0.3c-2.3,0-3.4-1.7-3.4-3.8c0-2.2,1.2-3.8,3.4-3.8c0.8,0,1.4,0.2,1.7,0.3
			l-0.1,1.2c-0.3-0.1-0.7-0.4-1.4-0.4c-1.1,0-2.1,0.8-2.1,2.7c0,1.9,1,2.7,2.1,2.7c0.7,0,1.1-0.2,1.4-0.4L110.8,88.3z"/>
		
			<rect x="109" y="84.1" transform="matrix(2.032063e-03 -1 1 2.032063e-03 27.768 197.3036)" class="st1" width="7.4" height="1.4"/>
		<path class="st1" d="M118.7,86.7l-2.6,0l-0.5,1.8l-1.4,0l2.5-7.4l1.5,0l2.4,7.5l-1.4,0L118.7,86.7z M118.5,85.6l-0.9-3.5l0,0
			l-1,3.5L118.5,85.6z"/>
		<polygon class="st1" points="121.5,81 122.8,81 122.8,87.4 125.3,87.4 125.3,88.5 121.5,88.5 		"/>
	</g>
</g>
</svg>
