<?xml version="1.0" encoding="utf-8"?>
<!-- Generator: Adobe Illustrator 26.1.0, SVG Export Plug-In . SVG Version: 6.00 Build 0)  -->
<svg version="1.1" id="Isolation_Mode" xmlns="http://www.w3.org/2000/svg" xmlns:xlink="http://www.w3.org/1999/xlink" x="0px"
	 y="0px" viewBox="0 0 40 41.2" style="enable-background:new 0 0 40 41.2;" xml:space="preserve">
<style type="text/css">
	.st0{fill:#FFFFFF;}
</style>
<path class="st0" d="M-35.7,1.9c-10.3,0-18.7,8.4-18.7,18.7c0,10.3,8.4,18.7,18.7,18.7S-17,30.9-17,20.6C-17,10.3-25.3,1.9-35.7,1.9
	z M-31.2,20.6h-2.9V31h-4.3V20.6h-2.1V17h2.1v-2.2c0-2.9,1.2-4.7,4.7-4.7h2.9v3.6h-1.8c-1.3,0-1.4,0.5-1.4,1.4l0,1.8h3.2L-31.2,20.6
	z"/>
<g>
	<path class="st0" d="M19.7,16.3c0.2,0,0.3,0,0.4-0.1c0.1-0.1,0.1-0.2,0.1-0.4v-3.2c0-0.1,0-0.2-0.1-0.3c-0.1-0.1-0.2-0.1-0.4-0.1
		c-0.1,0-0.3,0-0.4,0.1c-0.1,0.1-0.1,0.2-0.1,0.3v3.2c0,0.2,0,0.3,0.1,0.4C19.4,16.3,19.5,16.3,19.7,16.3z"/>
	<path class="st0" d="M19.8,1.9C9.6,1.9,1.3,10.2,1.3,20.4c0,10.2,8.3,18.5,18.5,18.5c10.2,0,18.5-8.3,18.5-18.5
		C38.3,10.2,30.1,1.9,19.8,1.9z M22.4,11.3h1.2v4.5c0,0.1,0,0.2,0.1,0.3c0,0.1,0.1,0.1,0.2,0.1c0.1,0,0.2,0,0.3-0.1
		c0.1-0.1,0.3-0.2,0.4-0.3v-4.5h1.2v5.9h-1.2v-0.7c-0.2,0.2-0.4,0.4-0.7,0.6c-0.2,0.1-0.5,0.2-0.7,0.2c-0.3,0-0.5-0.1-0.6-0.3
		c-0.1-0.2-0.2-0.4-0.2-0.8V11.3z M18,12.7c0-0.5,0.2-0.8,0.5-1.1c0.3-0.3,0.8-0.4,1.3-0.4c0.5,0,0.9,0.1,1.2,0.4
		c0.3,0.3,0.5,0.7,0.5,1.1v3.1c0,0.5-0.2,0.9-0.5,1.2c-0.3,0.3-0.7,0.4-1.3,0.4c-0.5,0-0.9-0.1-1.3-0.4c-0.3-0.3-0.5-0.7-0.5-1.2
		V12.7z M14.7,9.2l0.9,3.2h0.1l0.8-3.2h1.4l-1.6,4.7v3.3H15V14l-1.6-4.8H14.7z M28,30.7c-0.9,0.9-8.2,0.9-8.2,0.9s-7.3,0-8.2-0.9
		c-0.9-0.9-0.9-5.2-0.9-5.2c0,0,0-4.3,0.9-5.2c0.9-0.9,8.2-0.9,8.2-0.9c0,0,7.3,0,8.2,0.9c0.9,0.9,0.9,5.2,0.9,5.2
		C28.9,25.5,28.9,29.9,28,30.7z"/>
</g>
<path class="st0" d="M27.3,26.6v-1.4c0-0.5-0.1-0.9-0.4-1.2c-0.3-0.3-0.6-0.4-1.1-0.4c-0.5,0-0.9,0.1-1.2,0.4
	c-0.3,0.3-0.4,0.7-0.4,1.1v2.4c0,0.5,0.1,0.9,0.4,1.2c0.3,0.3,0.6,0.4,1.1,0.4c0.5,0,0.9-0.1,1.2-0.4c0.3-0.3,0.4-0.7,0.4-1.2v-0.3
	h-1.1v0.2c0,0.3,0,0.5-0.1,0.6s-0.2,0.1-0.4,0.1c-0.2,0-0.3-0.1-0.4-0.2c-0.1-0.1-0.1-0.3-0.1-0.6v-1H27.3z M25.3,25.7v-0.5
	c0-0.2,0-0.4,0.1-0.5c0.1-0.1,0.2-0.1,0.4-0.1c0.2,0,0.3,0,0.4,0.1c0.1,0.1,0.1,0.3,0.1,0.5v0.5H25.3z"/>
<path class="st0" d="M23.4,24c-0.2-0.2-0.4-0.3-0.8-0.3c-0.2,0-0.3,0-0.5,0.1c-0.2,0.1-0.3,0.2-0.5,0.4v-2.3h-1.1v7.3h1.1v-0.4
	c0.1,0.2,0.3,0.3,0.5,0.4c0.2,0.1,0.3,0.1,0.6,0.1c0.3,0,0.6-0.1,0.7-0.3c0.2-0.2,0.2-0.5,0.2-0.9v-3C23.6,24.6,23.6,24.2,23.4,24z
	 M22.6,27.9c0,0.2,0,0.3-0.1,0.4c-0.1,0.1-0.2,0.1-0.3,0.1c-0.1,0-0.2,0-0.3-0.1c-0.1,0-0.2-0.1-0.3-0.2v-3.4
	c0.1-0.1,0.1-0.1,0.2-0.2c0.1,0,0.1-0.1,0.2-0.1c0.1,0,0.3,0,0.3,0.1c0.1,0.1,0.1,0.2,0.1,0.4C22.6,25.1,22.6,27.9,22.6,27.9z"/>
<path class="st0" d="M18.7,29.1v-0.6c-0.2,0.2-0.4,0.4-0.6,0.5c-0.2,0.1-0.4,0.2-0.6,0.2c-0.2,0-0.4-0.1-0.6-0.2
	c-0.1-0.2-0.2-0.4-0.2-0.7v-4.5h1.1v4.1c0,0.1,0,0.2,0.1,0.3c0,0.1,0.1,0.1,0.2,0.1c0.1,0,0.2,0,0.3-0.1c0.1-0.1,0.2-0.2,0.3-0.3
	v-4.1h1.1v5.4H18.7L18.7,29.1z"/>
<polygon class="st0" points="15.1,22.9 15.1,29.1 13.9,29.1 13.9,22.9 12.7,22.9 12.7,21.8 16.3,21.8 16.3,22.9 "/>
</svg>
