<?xml version="1.0" encoding="utf-8"?>
<!-- Generator: Adobe Illustrator 26.1.0, SVG Export Plug-In . SVG Version: 6.00 Build 0)  -->
<svg version="1.1" id="tira" xmlns="http://www.w3.org/2000/svg" xmlns:xlink="http://www.w3.org/1999/xlink" x="0px" y="0px"
	 viewBox="0 0 531 437.7" style="enable-background:new 0 0 531 437.7;" xml:space="preserve">
<style type="text/css">
	.st0{fill:#163A1B;}
	.st1{fill:#317B3C;}
	.st2{font-family:'AvantGardeLT-Bold';}
	.st3{font-size:105.9208px;}
	.st4{letter-spacing:-4;}
	.st5{fill:#FFFFFF;}
	.st6{fill:#00AB4E;}
	.st7{fill:#263A78;}
	.st8{fill:#F04A5D;}
</style>
<g>
	<g>
		<path class="st0" d="M49.6,317.8c6.7,0,13.4,0.2,18,0.7c0,2.1-2.1,50.9-2.9,82.6c4.4,0,8.5,0,11.1,0c2.9,0,9,6,10.1,6
			c1.8,0.2,3.4-5.1,5.1-5.1c4.6,0.3,8.8,0.5,10.9,0.7c3.3,0.2,2.8,19.3,1.6,21.2c-0.3,0.5-7.8,0.7-17.5,0.7
			c-19.6,0-48.5-0.7-48.5-0.7v-0.3c-0.3,0-0.7,0-1.1,0c0-2-1.5-22.8-1.5-26.9c0-0.8,4.4-2.4,4.4-4.9c0-3.1-5.5-4.1-5.5-5.2
			c0-1.1-2.8-59.9-2.8-68.1C34.1,318.2,41.8,317.8,49.6,317.8z"/>
		<path class="st0" d="M148.3,312.9c-9.8,0-19.6,2.6-27.4,9.8c-1.6,1.6-0.5,6.5-0.8,9.5c-2.1,1.3-6.5,0-7.7,2.4
			c-4.1,8.3-6.5,19.6-6.5,34.6c0,39,13.2,59.6,42.4,59.6c16.2,0,26.6-6.2,33.3-16.2c1.1-0.7,1.1-6.7,1-9.3c2.4-1.3,5.5-3.9,5.5-6.2
			c2-7.5,2.8-15.8,2.8-24.6C190.9,333.2,174.8,312.9,148.3,312.9z M149.9,403.3c-12.9,0-12.9-16.3-12.9-32.1
			c0-21.2,3.1-30.5,11.3-30.5c12.9,0,14,15.5,14,30.4C162.4,400.1,156.2,403.3,149.9,403.3z"/>
		<path class="st0" d="M146.5,305.4c-3.8,0-7.2-0.2-8.5-0.8c4.7-13.1,11.1-27.6,14.5-31.3c1.6-0.7,7.8-0.8,13.9-0.8
			c5.9,0,11.6,0.2,11.8,0.8c0,1.8-17.5,29.5-20.1,31.3C156.6,305.1,151.3,305.4,146.5,305.4z"/>
		<path class="st0" d="M195.8,364.5c0-18.6,4.4-30,13.2-38.5c1.1-1.1,8.8,2.1,10,1.3c0.5-1.3-2-8.3-1.1-8.8
			c6.5-4.1,12.7-5.5,19.7-5.5c40.3,0,41.3,33,41.3,47.2c0,1.6-7.5,2.6-14.4,2.6c-6.2,0-11.9-0.8-11.9-2.3c0-12.7-4.4-19.6-13.1-19.6
			c-12.7,0-14.5,18.1-14.5,28.4c0,27.6,6.4,34.1,14.4,34.1c9.6,0,14.7-4.1,14.7-10.4c-1.6,0-8.6,0.5-13.5-0.5v-18
			c0-1,8-1.5,16.8-1.5c11.1,0,23.5,0.8,23.5,2.3c0,15.8-3.9,30.2-9,38.5c-0.3,0.5-0.8,0.7-1.3,0.7c-2.1,0-5.9-2.4-7.3-1.1
			c-0.7,2,3.8,6.9,1.8,8.2c-6.2,4.6-15.7,7.3-24.2,7.3C198.4,428.8,195.8,392.9,195.8,364.5z"/>
		<path class="st0" d="M308.4,317.8c6.7,0,13.4,0.2,18,0.7c0,0.5,0.2,8,0,14c-0.2,2.1-6.5,4.1-6.5,6.9c-0.2,3.1,5.5,3.4,5.5,7
			c-1,27.9-2.4,63-2.4,76c-8,1.6-16,2.3-27.7,1.5c0-2-1.5-22.8-1.5-27.1c0-0.8,4.4-2.4,4.4-4.7c0-3.3-5.5-4.2-5.5-5.4
			c0-1.1-2.8-60.1-2.8-68.2C292.9,318.2,300.6,317.8,308.4,317.8z"/>
		<path class="st0" d="M335.3,364.5c0-18.6,4.4-30,13.2-38.5c1.1-1.1,7.7,0.8,8.8,0c0.5-1.3-0.8-7,0-7.5c6.5-4.1,12.7-5.5,19.7-5.5
			c40.3,0,41.3,33,41.3,47.2c0,1.6-7.5,2.6-14.4,2.6c-6.2,0-11.9-0.8-11.9-2.3c0-12.7-4.4-19.6-13.1-19.6
			c-12.7,0-14.5,20.9-14.5,31.2c0,27.6,6.4,31.3,14.4,31.3c9.6,0,14.9-5.5,14.9-21.9c0-0.8,4.9-1.3,10.3-1.3
			c6.9,0,14.4,0.8,14.4,2.8c0,15.8-2,22.5-7,30.8c-1,1.6-3.1,0.7-4.9,0.7c-0.8,0-1.5,0.2-2,0.7c-0.7,2,2,5.1,0,6.4
			c-6.2,4.6-15.7,7.3-24.2,7.3C337.9,428.8,335.3,392.9,335.3,364.5z"/>
		<path class="st0" d="M467.6,312.9c-9.8,0-19.6,2.6-27.4,9.8c-1.6,1.6-0.5,6.5-0.8,9.5c-2.1,1.3-6.5,0-7.7,2.4
			c-4.1,8.3-6.5,19.6-6.5,34.6c0,39,13.2,59.6,42.4,59.6c16.2,0,26.6-6.2,33.3-16.2c1.1-0.7,1.1-6.7,1-9.3c2.4-1.3,5.5-3.9,5.5-6.2
			c2-7.5,2.8-15.8,2.8-24.6C510.2,333.2,494.1,312.9,467.6,312.9z M469.3,403.3c-12.9,0-12.9-16.3-12.9-32.1
			c0-21.2,3.1-30.5,11.3-30.5c12.9,0,14,15.5,14,30.4C481.7,400.1,475.5,403.3,469.3,403.3z"/>
		<path class="st0" d="M28.1,242.3c3.2-7.5,7.5-15.6,12.5-24.3c2-3.2,15.4,14.8,18,13.3c2.6-1.4-9-28.4-7.5-31
			c15.1-24.9,38.2-49.8,48.1-65.7c-30.1-0.6-65.5-1.4-66.3-2.3c-2.3-1.7-1.4-42.8,0.9-43.4C36.2,88,59.1,88,84.9,88
			c35,0,75.6,0.3,76.8,0.9c0.6,0.3,0.9,4.6,0.6,11.6c0,0.9-31.6,2.3-31.6,3.2c0,1.4,31,7.2,31,8.4c-0.3,6.9-0.6,10.1-1.7,12.4
			c-17.1,35-47.5,73.2-64.3,104.5c32.4,0.9,68.1,1.4,69.2,2.3c2,1.7,2.3,46,0,46.9c-1.2,0.3-15.4,0-28.7,0.6
			c-4.1,0-3.8-13.3-8.4-13.3c-4.9,0-10.1,13.9-15.4,13.9c-39.1,0.3-86,0-86.6-1.2v-0.6C23.8,262.3,27.5,245.2,28.1,242.3z"/>
		<path class="st0" d="M261.5,57c-23.2,0-46.9,4.9-63.4,24.6c-3.5,4.1,10.7,22.3,8.1,27.5c-1.4,2.9-14.5-3.5-20-3.5
			c-1.2,0-1.7,0.3-2,0.9c-5.2,15.1-8.4,34.2-8.4,58.8c0,66.9,13,120.5,85.7,120.5c25.2,0,44.9-4.6,58.5-19.1
			c3.8-3.8-11.3-17.7-8.7-22.9c1.7-3.2,19.7,9.8,21.1,6.4c6.4-16.8,11-46.1,11-76.5C343.5,87.7,322.6,57,261.5,57z M261.5,230.8
			c-18.5,0-24.3-20.9-24.3-57.1c0-44.3,9.3-61.7,24.3-61.7c16.5,0,21.4,20.3,21.4,60.5S274.2,230.8,261.5,230.8z"/>
		<path class="st0" d="M367.8,95.5c1.2-3.2,15.6,4.6,17.1,2c2-4.1-9.6-18.5-6.4-21.4c17.1-15.4,42-19.1,60-19.1
			c47.8,0,74.2,24,74.2,91c0,23.8-3.8,46.3-8.7,59.4c-1.2,2.9-15.1-7.2-16.5-4.9c-2,4.1,10.1,15.6,7,18
			c-14.8,11.3-36.2,14.8-55.9,14.8c-56.5,0-77.3-41.7-77.3-93.8C361.1,122.2,364,107.4,367.8,95.5z"/>
		<path class="st0" d="M382,246.3c13.3,11,28.4,18.2,57.4,18.2c21.4,0,44.9-8.1,54.7-16.8c5.5,2,17.1,22,20,29.3
			c-12.2,17.4-45.8,27.2-77.3,27.2c-19.7,0-42.9-5.5-51-12.7c-2.9-2.6,4.1-11.3,2-14.5c-1.2-1.7-11.3,12.5-13.3,10.7
			c-4.6-4.1-9.3-4.9-11.9-13.9C364.6,267.5,372.2,250.7,382,246.3z"/>
		<g>
			<g>
				<g>
					<path class="st0" d="M408.9,10c-1.3,0-2.5,0.2-3.6,0.5c2.1,1,3.6,3.1,3.6,5.6c0,3.4-2.8,6.2-6.2,6.2c-2.5,0-4.6-1.5-5.6-3.6
						c-0.4,1.1-0.5,2.4-0.5,3.6c0,6.8,5.5,12.3,12.3,12.3c6.8,0,12.3-5.5,12.3-12.3C421.2,15.5,415.7,10,408.9,10z"/>
				</g>
			</g>
			<g>
				<g>
					<path class="st0" d="M464.9,10c-1.3,0-2.5,0.2-3.6,0.5c2.1,1,3.6,3.1,3.6,5.6c0,3.4-2.8,6.2-6.2,6.2c-2.5,0-4.6-1.5-5.6-3.6
						c-0.4,1.1-0.5,2.4-0.5,3.6c0,6.8,5.5,12.3,12.3,12.3c6.8,0,12.3-5.5,12.3-12.3C477.2,15.5,471.7,10,464.9,10z"/>
				</g>
			</g>
		</g>
		<g>
			<text transform="matrix(1 0 0 1 77.4806 521.3062)" class="st1 st2 st3 st4">amigable</text>
		</g>
	</g>
	<g>
		
			<text transform="matrix(1.001 0 0 1 -466.7889 46.0964)" style="fill:#48280F; font-family:'OswaldStencil-Bold'; font-size:49.1602px;">Bienvenidos al</text>
	</g>
	<g>
		<path d="M-186.3,627.8l-2.8,7h-6.6l11.9-30.9h7.1l12,30.9h-6.9l-4.2-11.6L-186.3,627.8z M-176,622.7c0,0-3.8-10.7-4.3-12.5h-0.1
			c-0.5,1.8-4.2,12.5-4.2,12.5H-176z"/>
		<path d="M-163.3,619.4c0-3.2,0-5.4-0.2-7.2h5.3v4.9l0.3-0.9c1.1-3.2,3.7-4.7,6.4-4.7c0.6,0,0.9,0,1.4,0.1l0,6.1
			c-0.4-0.4-1.5-0.5-2.3-0.5c-3.2,0-4.4,2.1-4.8,4.2c-0.1,0.4-0.2,1.6-0.2,2.1l-0.1,11.2h-5.8V619.4z"/>
		<path d="M-130.1,628.9c0,2.1,0.1,4.6,0.4,5.8h-5.3l-0.2-3.4l-0.3,0.3c-1.4,1.8-3.5,3.5-7.4,3.5c-4.5,0-7.4-3.2-7.4-6.7
			c0-6.2,4.8-7.9,14.7-7.7l0-1c0-2.2-1.8-3.7-5.2-3.7c-2.3,0-5.3,1.5-6.8,2.4v-5.1c1.5-0.7,4-1.7,8-1.7c7.3,0,9.4,3.5,9.4,9.7
			L-130.1,628.9z M-135.6,624.2c-6.5-0.2-9,1.2-9,3.6c0,2,1.5,3.1,3.6,3.1c1.9,0,3.5-0.9,4.5-2.5c0.2-0.4,0.8-1.7,0.8-2.2
			L-135.6,624.2z"/>
		<path d="M-106,627.1c0,2.9,0.1,5.7,0.2,7.6h-5.7v-3.2h-0.3c-0.9,1.4-3.4,3.6-7.4,3.6c-4.5,0-7.5-2.9-7.5-8.1v-14.8h5.8V624
			c0,4,0.8,6.5,4,6.5c2.9,0,4-2.7,4.4-3.8c0.2-0.4,0.3-0.9,0.3-1.5v-13.1h6.1V627.1z"/>
		<path d="M-86.7,634.3c-1.2,0.6-3.8,0.8-6.4,0.8c-7.3,0-10.6-5-10.6-12c0-6.6,3.2-11.4,11.5-11.4c1.8,0,3.5,0.2,5,0.8l-0.4,4.4
			c-0.8-0.4-2.2-0.8-4-0.8c-3.7,0-6,3.6-6,7.3c0,4.1,2.7,7,6.1,7c1.7,0,3.5-0.3,4.6-0.7L-86.7,634.3z"/>
		<path d="M-63,623.2c0,8.2-5.8,12-11.8,12c-6.6,0-11.6-4.3-11.6-11.6c0-7.3,4.8-11.9,12-11.9C-67.6,611.7-63,616.4-63,623.2
			 M-80.3,623.4c0,4.1,2,7.2,5.8,7.2c3.5,0,5.6-2.9,5.6-7.2c0-3.5-1.6-7.1-5.6-7.1C-78.7,616.2-80.3,619.9-80.3,623.4"/>
		<path d="M-306.9,603.9h7c3.6,0,6,0.7,7.6,2.3c1.5,1.5,2.4,3.5,2.4,6.3c0,2.8-0.5,4.3-2,5.9c-2,2.3-4.9,3.1-8.5,3.1l-3.6,0v13h-3.1
			V603.9z M-303.8,618.8c0,0,2.3,0.1,3.5,0.1c4.4,0,7.1-2.2,7.1-6.4c0-4.2-2.6-5.9-6.7-5.9c-1.6,0-4,0.1-4,0.1V618.8z"/>
		<path d="M-268,619.6c0-2.6,0-5.3-0.2-7.4h2.6v4.9h0.1c0.9-3,3.2-5.2,5.7-5.2c0.4,0,1.8,0.2,2.1,0.3v2.7c-0.4-0.1-1.2-0.2-2.3-0.2
			c-2.6,0-4.5,2.1-5,5.2c-0.1,0.6-0.1,2.6-0.1,3.2v11.6h-2.9V619.6z"/>
		<path d="M-241.5,630.8l-0.3,0.4c-1.1,2.2-2.7,4-7.2,4c-4.8,0-8.6-4.5-8.6-11.3c0-8.4,3.4-12.1,9.2-12.1c3.2,0,5.6,1.6,6.6,3.7
			l0.3,0.4l0-3.6h3.1c-0.1,1.9-0.2,3.8-0.2,6.2v25.4h-2.9V630.8z M-241.7,621.3c0-0.6-0.3-1.6-0.4-2.1c-0.7-2.7-2.8-5.1-5.9-5.1
			c-4.2,0-6.8,3.9-6.8,9.4c0,4.9,2.1,9.1,6.6,9.1c2.6,0,4.9-1.8,5.9-4.8c0.2-0.7,0.6-2.1,0.6-2.7L-241.7,621.3z"/>
		<path d="M-216.8,628.4c0,2.4,0,4.4,0.2,6.2h-2.8v-4l-0.3,0.5c-0.9,1.8-2.7,4-7.3,4c-4,0-7.3-2-7.3-9.8v-13.1h2.9v12.4
			c0,7.1,2.3,8.2,5.6,8.2c3.5,0,5-2.9,5.7-4.7c0.2-0.6,0.3-1.3,0.3-2.1v-13.7h2.9V628.4z"/>
		<path d="M-210.8,624.2c0.1,5.5,3.5,8.5,7.2,8.5c2.7,0,5-0.9,6.4-1.6l-0.1,2.7c-1.3,0.6-3.4,1.3-6.6,1.3c-6.3,0-10-4.6-10-11.3
			c0-6.8,3.6-12,9.6-12c7.3,0,8.7,6.4,8.7,10.5c0,0.8,0.1,1.4,0,1.9H-210.8z M-198.6,621.8c0-3-1.1-7.7-5.8-7.7
			c-4.3,0-6.1,4.4-6.4,7.7H-198.6z"/>
		<path d="M-272.1,634.5l-2.7,0.1l0-3.5l-0.5,0.7c-1.1,1.8-3.6,3.2-6.5,3.2c-4.7,0-7.6-2.2-7.6-6.3c0-5.9,5.7-7.9,13.6-7.8l0.7,0
			c0-1.8,0.5-6.9-5.2-6.9c-1.9,0-4.8,0.8-6.2,1.8l0-2.6c1.7-0.9,4.2-1.7,6.7-1.7c6.2,0,7.6,4,7.6,9.1v10.4L-272.1,634.5z
			 M-275.2,623.2c-5-0.1-11.1,0.8-11.1,5.5c0,2.9,1.9,4,4.2,4c3.3,0,5.5-1.1,6.2-3.2c0.2-0.5,0.7-2.3,0.7-2.7L-275.2,623.2z"/>
		<path d="M-63.2,607.1H-64v-6.6h2.3c1.5,0,2.5,0.6,2.5,1.8c0,0.9-0.7,1.6-1.9,1.7l2.2,3.1h-0.9l-2-3.1h-1.3V607.1z M-63.2,603.4
			h1.4c1.4,0,1.8-0.5,1.8-1.2c0-0.6-0.5-1.1-1.8-1.1h-1.4V603.4z"/>
		<path d="M-61.9,597.8c-3.3,0-6,2.7-6,6c0,3.3,2.7,6,6,6c3.3,0,6-2.7,6-6C-56,600.5-58.7,597.8-61.9,597.8 M-61.9,608.5
			c-2.6,0-4.8-2.1-4.8-4.8c0-2.6,2.1-4.8,4.8-4.8c2.6,0,4.8,2.1,4.8,4.8C-57.2,606.4-59.3,608.5-61.9,608.5"/>
		<g>
			<path class="st5" d="M-314.3,617.5c0,23.2-18.8,41.9-41.9,41.9c-23.2,0-41.9-18.8-41.9-41.9s18.8-41.9,41.9-41.9
				C-333.1,575.6-314.3,594.4-314.3,617.5"/>
			<path class="st6" d="M-318.6,621.7c-7.6-0.7-15.5,1.9-21.5,7.9c-6.8,6.8-9.3,16.1-7.6,24.8C-332.2,650.8-320.4,637.8-318.6,621.7
				"/>
			<path class="st6" d="M-393.9,621.9c1.9,16.2,14,29.2,29.7,32.6c1.9-8.6-0.6-17.9-7.4-24.6C-377.7,623.7-386,621-393.9,621.9"/>
			<path class="st7" d="M-356.3,579.5c-20.9,0-37.9,17-37.9,37.9c0,0.1,0,0.2,0,0.3c1.2-0.2,2.5-0.2,3.8-0.2c2.7,0,5.2,0.4,7.7,1.2
				c1.1-13.7,12.5-24.4,26.4-24.4c14,0,25.5,10.9,26.4,24.6c2.7-0.9,5.4-1.4,8.1-1.4c1.1,0,2.3,0.1,3.4,0.2c0-0.1,0-0.2,0-0.2
				C-318.4,596.5-335.3,579.5-356.3,579.5"/>
			<path class="st8" d="M-352.3,648c0-12.3,8.8-22.8,18.9-27.7c-0.2-12.3-10.3-22.3-22.7-22.3c-12.4,0-22.4,9.9-22.7,22.2
				c9.3,4.5,16.3,13.7,18.2,22.8c0,0,0,0,0,0c0.4,1.7,0.6,3.4,0.6,5c0,2.4-0.3,4.8-0.8,7.1c1.5,0.3,3.1,0.5,4.7,0.5
				c1.6,0,3.1-0.2,4.6-0.5C-352,652.8-352.3,650.5-352.3,648"/>
		</g>
	</g>
</g>
</svg>
